FontWithASyntaxHighlighter-LightWide.ufo
<glyph name="exclam" format="2">
  <advance width="1555"/>
  <unicode hex="0021"/>
  <outline>
    <contour>
      <point x="830" y="550" type="line"/>
      <point x="842" y="1460" type="line"/>
      <point x="712" y="1460" type="line"/>
      <point x="726" y="550" type="line"/>
    </contour>
    <contour>
      <point x="776.6" y="-23.8" type="curve" smooth="yes"/>
      <point x="847.8" y="-23.8"/>
      <point x="903.8" y="22.6"/>
      <point x="903.8" y="100.2" type="curve" smooth="yes"/>
      <point x="903.8" y="179.4"/>
      <point x="847.8" y="224.2"/>
      <point x="776.6" y="224.2" type="curve" smooth="yes"/>
      <point x="706.2" y="224.2"/>
      <point x="650.2" y="179.4"/>
      <point x="650.2" y="100.2" type="curve" smooth="yes"/>
      <point x="650.2" y="22.6"/>
      <point x="706.2" y="-23.8"/>
    </contour>
  </outline>
</glyph>
<glyph name="numbersign" format="2">
  <advance width="1555"/>
  <unicode hex="0023"/>
  <outline>
    <contour>
      <point x="466" y="-200" type="line"/>
      <point x="677" y="1460" type="line"/>
      <point x="550" y="1460" type="line"/>
      <point x="337" y="-200" type="line"/>
    </contour>
    <contour>
      <point x="1006" y="-200" type="line"/>
      <point x="1218" y="1460" type="line"/>
      <point x="1090" y="1460" type="line"/>
      <point x="878" y="-200" type="line"/>
    </contour>
    <contour>
      <point x="220" y="890" type="line"/>
      <point x="1416" y="890" type="line"/>
      <point x="1416" y="1000" type="line"/>
      <point x="220" y="1000" type="line"/>
    </contour>
    <contour>
      <point x="139" y="260" type="line"/>
      <point x="1335" y="260" type="line"/>
      <point x="1335" y="370" type="line"/>
      <point x="139" y="370" type="line"/>
    </contour>
  </outline>
</glyph>
<glyph name="parenleft" format="2">
  <advance width="1555"/>
  <unicode hex="0028"/>
  <outline>
    <contour>
      <point x="606" y="601" type="curve" smooth="yes"/>
      <point x="606" y="1139"/>
      <point x="928" y="1397"/>
      <point x="1238" y="1602" type="curve"/>
      <point x="1093" y="1602" type="line"/>
      <point x="814" y="1447"/>
      <point x="478" y="1170"/>
      <point x="478" y="601" type="curve" smooth="yes"/>
      <point x="478" y="30"/>
      <point x="814" y="-245"/>
      <point x="1093" y="-400" type="curve"/>
      <point x="1238" y="-400" type="line"/>
      <point x="928" y="-195"/>
      <point x="606" y="63"/>
    </contour>
  </outline>
</glyph>
<glyph name="period" format="2">
  <advance width="1555"/>
  <unicode hex="002E"/>
  <outline>
    <contour>
      <point x="777" y="-31" type="curve" smooth="yes"/>
      <point x="866" y="-31"/>
      <point x="936" y="27"/>
      <point x="936" y="124" type="curve" smooth="yes"/>
      <point x="936" y="223"/>
      <point x="866" y="279"/>
      <point x="777" y="279" type="curve" smooth="yes"/>
      <point x="689" y="279"/>
      <point x="619" y="223"/>
      <point x="619" y="124" type="curve" smooth="yes"/>
      <point x="619" y="27"/>
      <point x="689" y="-31"/>
    </contour>
  </outline>
</glyph>
<glyph name="greater" format="2">
  <advance width="1555"/>
  <unicode hex="003E"/>
  <outline>
    <contour>
      <point x="311" y="20" type="line"/>
      <point x="1310" y="597" type="line"/>
      <point x="1310" y="696" type="line"/>
      <point x="311" y="1273" type="line"/>
      <point x="255" y="1178" type="line"/>
      <point x="1164" y="653" type="line"/>
      <point x="1164" y="639" type="line"/>
      <point x="255" y="115" type="line"/>
    </contour>
  </outline>
</glyph>
<glyph name="A" format="2">
  <advance width="1555"/>
  <unicode hex="0041"/>
  <outline>
    <contour>
      <point x="234" y="0" type="line"/>
      <point x="360" y="0" type="line"/>
      <point x="360" y="821" type="line"/>
      <point x="798" y="1380" type="line"/>
      <point x="758" y="1380" type="line"/>
      <point x="1196" y="825" type="line"/>
      <point x="1196" y="0" type="line"/>
      <point x="1322" y="0" type="line"/>
      <point x="1322" y="861" type="line"/>
      <point x="851" y="1460" type="line"/>
      <point x="705" y="1460" type="line"/>
      <point x="234" y="861" type="line"/>
    </contour>
    <contour>
      <point x="313" y="449" type="line"/>
      <point x="1238" y="449" type="line"/>
      <point x="1238" y="552" type="line"/>
      <point x="313" y="552" type="line"/>
    </contour>
  </outline>
</glyph>
<glyph name="C" format="2">
  <advance width="1555"/>
  <unicode hex="0043"/>
  <outline>
    <contour>
      <point x="671" y="0" type="line"/>
      <point x="1316" y="0" type="line"/>
      <point x="1336" y="110" type="line"/>
      <point x="736" y="110" type="line"/>
      <point x="315" y="573" type="line"/>
      <point x="315" y="897" type="line"/>
      <point x="736" y="1350" type="line"/>
      <point x="1336" y="1350" type="line"/>
      <point x="1316" y="1460" type="line"/>
      <point x="671" y="1460" type="line"/>
      <point x="189" y="933" type="line"/>
      <point x="189" y="537" type="line"/>
    </contour>
  </outline>
</glyph>
<glyph name="E" format="2">
  <advance width="1555"/>
  <unicode hex="0045"/>
  <outline>
    <contour>
      <point x="416" y="0" type="line"/>
      <point x="416" y="1460" type="line"/>
      <point x="290" y="1460" type="line"/>
      <point x="290" y="0" type="line"/>
    </contour>
    <contour>
      <point x="1338" y="110" type="line"/>
      <point x="375" y="110" type="line"/>
      <point x="375" y="0" type="line"/>
      <point x="1318" y="0" type="line"/>
    </contour>
    <contour>
      <point x="1141" y="779" type="line"/>
      <point x="375" y="779" type="line"/>
      <point x="375" y="674" type="line"/>
      <point x="1141" y="674" type="line"/>
    </contour>
    <contour>
      <point x="1298" y="1350" type="line"/>
      <point x="1278" y="1460" type="line"/>
      <point x="375" y="1460" type="line"/>
      <point x="375" y="1350" type="line"/>
    </contour>
  </outline>
</glyph>
<glyph name="L" format="2">
  <advance width="1555"/>
  <unicode hex="004C"/>
  <outline>
    <contour>
      <point x="298" y="0" type="line"/>
      <point x="424" y="0" type="line"/>
      <point x="424" y="1460" type="line"/>
      <point x="298" y="1460" type="line"/>
    </contour>
    <contour>
      <point x="383" y="0" type="line"/>
      <point x="1359" y="0" type="line"/>
      <point x="1379" y="110" type="line"/>
      <point x="383" y="110" type="line"/>
    </contour>
  </outline>
</glyph>
<glyph name="V" format="2">
  <advance width="1555"/>
  <unicode hex="0056"/>
  <outline>
    <contour>
      <point x="705" y="0" type="line"/>
      <point x="851" y="0" type="line"/>
      <point x="1328" y="739" type="line"/>
      <point x="1328" y="1460" type="line"/>
      <point x="1202" y="1460" type="line"/>
      <point x="1202" y="767" type="line"/>
      <point x="758" y="80" type="line"/>
      <point x="798" y="80" type="line"/>
      <point x="354" y="771" type="line"/>
      <point x="354" y="1460" type="line"/>
      <point x="228" y="1460" type="line"/>
      <point x="228" y="739" type="line"/>
    </contour>
  </outline>
</glyph>
<glyph name="W" format="2">
  <advance width="1555"/>
  <unicode hex="0057"/>
  <outline>
    <contour>
      <point x="464" y="0" type="line"/>
      <point x="583" y="0" type="line"/>
      <point x="807" y="714" type="line"/>
      <point x="750" y="714" type="line"/>
      <point x="971" y="0" type="line"/>
      <point x="1090" y="0" type="line"/>
      <point x="1344" y="739" type="line"/>
      <point x="1344" y="1460" type="line"/>
      <point x="1218" y="1460" type="line"/>
      <point x="1218" y="767" type="line"/>
      <point x="997" y="80" type="line"/>
      <point x="1051" y="80" type="line"/>
      <point x="840" y="771" type="line"/>
      <point x="840" y="1013" type="line"/>
      <point x="714" y="1013" type="line"/>
      <point x="714" y="767" type="line"/>
      <point x="503" y="80" type="line"/>
      <point x="557" y="80" type="line"/>
      <point x="336" y="771" type="line"/>
      <point x="336" y="1460" type="line"/>
      <point x="210" y="1460" type="line"/>
      <point x="210" y="739" type="line"/>
    </contour>
  </outline>
</glyph>
<glyph name="X" format="2">
  <advance width="1555"/>
  <unicode hex="0058"/>
  <outline>
    <contour>
      <point x="1203" y="0" type="line"/>
      <point x="1329" y="0" type="line"/>
      <point x="1329" y="263" type="line"/>
      <point x="352" y="1238" type="line"/>
      <point x="352" y="1460" type="line"/>
      <point x="226" y="1460" type="line"/>
      <point x="226" y="1197" type="line"/>
      <point x="1203" y="227" type="line"/>
    </contour>
    <contour>
      <point x="226" y="0" type="line"/>
      <point x="346" y="0" type="line"/>
      <point x="346" y="229" type="line"/>
      <point x="805" y="703" type="line"/>
      <point x="734" y="793" type="line"/>
      <point x="226" y="263" type="line"/>
    </contour>
    <contour>
      <point x="831" y="676" type="line"/>
      <point x="1329" y="1197" type="line"/>
      <point x="1329" y="1460" type="line"/>
      <point x="1209" y="1460" type="line"/>
      <point x="1209" y="1228" type="line"/>
      <point x="760" y="766" type="line"/>
    </contour>
  </outline>
</glyph>
<glyph name="grave" format="2">
  <advance width="1555"/>
  <unicode hex="0060"/>
  <outline>
    <contour>
      <point x="720" y="1274" type="line"/>
      <point x="839" y="1274" type="line"/>
      <point x="567" y="1597" type="line"/>
      <point x="414" y="1597" type="line"/>
    </contour>
  </outline>
</glyph>
<glyph name="n" format="2">
  <advance width="1555"/>
  <unicode hex="006E"/>
  <outline>
    <contour>
      <point x="1194" y="0" type="line"/>
      <point x="1320" y="0" type="line"/>
      <point x="1320" y="781" type="line"/>
      <point x="1001" y="1023" type="line"/>
      <point x="295" y="864" type="line"/>
      <point x="295" y="782" type="line"/>
      <point x="963" y="907" type="line"/>
      <point x="1194" y="737" type="line"/>
    </contour>
    <contour>
      <point x="236" y="0" type="line"/>
      <point x="360" y="0" type="line"/>
      <point x="360" y="858" type="line"/>
      <point x="323" y="1000" type="line"/>
      <point x="236" y="1000" type="line"/>
    </contour>
  </outline>
</glyph>
<glyph name="s" format="2">
  <advance width="1555"/>
  <unicode hex="0073"/>
  <outline>
    <contour>
      <point x="240" y="0" type="line"/>
      <point x="1128" y="0" type="line"/>
      <point x="1334" y="209" type="line"/>
      <point x="1334" y="382" type="line"/>
      <point x="350" y="699" type="line"/>
      <point x="350" y="756" type="line"/>
      <point x="497" y="902" type="line"/>
      <point x="1322" y="902" type="line"/>
      <point x="1302" y="1000" type="line"/>
      <point x="444" y="1000" type="line"/>
      <point x="238" y="791" type="line"/>
      <point x="238" y="627" type="line"/>
      <point x="1222" y="310" type="line"/>
      <point x="1222" y="245" type="line"/>
      <point x="1075" y="98" type="line"/>
      <point x="220" y="98" type="line"/>
    </contour>
  </outline>
</glyph>
<glyph name="v" format="2">
  <advance width="1555"/>
  <unicode hex="0076"/>
  <outline>
    <contour>
      <point x="714" y="0" type="line"/>
      <point x="840" y="0" type="line"/>
      <point x="1324" y="545" type="line"/>
      <point x="1324" y="1000" type="line"/>
      <point x="1200" y="1000" type="line"/>
      <point x="1200" y="583" type="line"/>
      <point x="759" y="90" type="line"/>
      <point x="797" y="90" type="line"/>
      <point x="356" y="587" type="line"/>
      <point x="356" y="1000" type="line"/>
      <point x="230" y="1000" type="line"/>
      <point x="230" y="545" type="line"/>
    </contour>
  </outline>
</glyph>
<glyph name="bar" format="2">
  <advance width="1555"/>
  <unicode hex="007C"/>
  <outline>
    <contour>
      <point x="840" y="-400" type="line"/>
      <point x="840" y="1602" type="line"/>
      <point x="714" y="1602" type="line"/>
      <point x="714" y="-400" type="line"/>
    </contour>
  </outline>
</glyph>
<glyph name="exclamdown" format="2">
  <advance width="1555"/>
  <unicode hex="00A1"/>
  <outline>
    <contour>
      <point x="725" y="451" type="line"/>
      <point x="713" y="-459" type="line"/>
      <point x="843" y="-459" type="line"/>
      <point x="829" y="451" type="line"/>
    </contour>
    <contour>
      <point x="778.4" y="1024.8" type="curve" smooth="yes"/>
      <point x="707.2" y="1024.8"/>
      <point x="651.2" y="978.4"/>
      <point x="651.2" y="900.8" type="curve" smooth="yes"/>
      <point x="651.2" y="821.6"/>
      <point x="707.2" y="776.8"/>
      <point x="778.4" y="776.8" type="curve" smooth="yes"/>
      <point x="848.8" y="776.8"/>
      <point x="904.8" y="821.6"/>
      <point x="904.8" y="900.8" type="curve" smooth="yes"/>
      <point x="904.8" y="978.4"/>
      <point x="848.8" y="1024.8"/>
    </contour>
  </outline>
</glyph>
<glyph name="cent" format="2">
  <advance width="1555"/>
  <unicode hex="00A2"/>
  <outline>
    <contour>
      <point x="673" y="250" type="line"/>
      <point x="629" y="-109" type="line"/>
      <point x="751" y="-109" type="line"/>
      <point x="795" y="250" type="line"/>
    </contour>
    <contour>
      <point x="1182" y="483" type="line"/>
      <point x="1131" y="360"/>
      <point x="989" y="288"/>
      <point x="797" y="288" type="curve" smooth="yes"/>
      <point x="529" y="288"/>
      <point x="376" y="427"/>
      <point x="376" y="648" type="curve" smooth="yes"/>
      <point x="376" y="869"/>
      <point x="529" y="1007"/>
      <point x="804" y="1007" type="curve" smooth="yes"/>
      <point x="999" y="1007"/>
      <point x="1132" y="935"/>
      <point x="1182" y="812" type="curve"/>
      <point x="1317" y="837" type="line"/>
      <point x="1256" y="1012"/>
      <point x="1067" y="1119"/>
      <point x="804" y="1119" type="curve" smooth="yes"/>
      <point x="452" y="1119"/>
      <point x="228" y="935"/>
      <point x="228" y="649" type="curve" smooth="yes"/>
      <point x="228" y="363"/>
      <point x="452" y="176"/>
      <point x="797" y="176" type="curve" smooth="yes"/>
      <point x="1056" y="176"/>
      <point x="1254" y="283"/>
      <point x="1316" y="458" type="curve"/>
    </contour>
    <contour>
      <point x="893" y="1047" type="line"/>
      <point x="937" y="1403" type="line"/>
      <point x="815" y="1403" type="line"/>
      <point x="771" y="1047" type="line"/>
    </contour>
    <contour>
      <point x="790" y="228" type="line"/>
      <point x="891" y="1069" type="line"/>
      <point x="776" y="1069" type="line"/>
      <point x="675" y="228" type="line"/>
    </contour>
  </outline>
</glyph>
<glyph name="currency" format="2">
  <advance width="1555"/>
  <unicode hex="00A4"/>
  <outline>
    <contour>
      <point x="777" y="209" type="curve" smooth="yes"/>
      <point x="1061" y="209"/>
      <point x="1256" y="395"/>
      <point x="1256" y="648" type="curve" smooth="yes"/>
      <point x="1256" y="901"/>
      <point x="1061" y="1084"/>
      <point x="777" y="1084" type="curve" smooth="yes"/>
      <point x="494" y="1084"/>
      <point x="298" y="901"/>
      <point x="298" y="648" type="curve" smooth="yes"/>
      <point x="298" y="395"/>
      <point x="494" y="209"/>
    </contour>
    <contour>
      <point x="777" y="321" type="curve" smooth="yes"/>
      <point x="560" y="321"/>
      <point x="428" y="459"/>
      <point x="428" y="648" type="curve" smooth="yes"/>
      <point x="428" y="837"/>
      <point x="560" y="974"/>
      <point x="777" y="974" type="curve" smooth="yes"/>
      <point x="994" y="974"/>
      <point x="1129" y="837"/>
      <point x="1129" y="648" type="curve" smooth="yes"/>
      <point x="1129" y="459"/>
      <point x="994" y="321"/>
    </contour>
    <contour>
      <point x="1040" y="339" type="line"/>
      <point x="1256" y="132" type="line"/>
      <point x="1354" y="219" type="line"/>
      <point x="1132" y="421" type="line"/>
    </contour>
    <contour>
      <point x="1128" y="866" type="line"/>
      <point x="1354" y="1073" type="line"/>
      <point x="1256" y="1160" type="line"/>
      <point x="1034" y="950" type="line"/>
    </contour>
    <contour>
      <point x="200" y="1073" type="line"/>
      <point x="422" y="871" type="line"/>
      <point x="514" y="954" type="line"/>
      <point x="298" y="1160" type="line"/>
    </contour>
    <contour>
      <point x="298" y="132" type="line"/>
      <point x="520" y="342" type="line"/>
      <point x="426" y="426" type="line"/>
      <point x="200" y="219" type="line"/>
    </contour>
  </outline>
</glyph>
<glyph name="section" format="2">
  <advance width="1555"/>
  <unicode hex="00A7"/>
  <outline>
    <contour>
      <point x="332" y="912" type="curve"/>
      <point x="436" y="859" type="line"/>
      <point x="344" y="823"/>
      <point x="294" y="754"/>
      <point x="294" y="669" type="curve" smooth="yes"/>
      <point x="294" y="535"/>
      <point x="417" y="454"/>
      <point x="789" y="392" type="curve" smooth="yes"/>
      <point x="1186" y="326"/>
      <point x="1378" y="229"/>
      <point x="1378" y="-10" type="curve" smooth="yes"/>
      <point x="1378" y="-249"/>
      <point x="1177" y="-424"/>
      <point x="751" y="-424" type="curve" smooth="yes"/>
      <point x="324" y="-424"/>
      <point x="138" y="-229"/>
      <point x="99" y="4" type="curve"/>
      <point x="228" y="14" type="line"/>
      <point x="276" y="-214"/>
      <point x="452" y="-311"/>
      <point x="751" y="-311" type="curve" smooth="yes"/>
      <point x="1051" y="-311"/>
      <point x="1248" y="-226"/>
      <point x="1248" y="-18" type="curve" smooth="yes"/>
      <point x="1248" y="184"/>
      <point x="1060" y="235"/>
      <point x="716" y="289" type="curve" smooth="yes"/>
      <point x="378" y="342"/>
      <point x="168" y="451"/>
      <point x="168" y="663" type="curve" smooth="yes"/>
      <point x="168" y="777"/>
      <point x="229" y="859"/>
    </contour>
    <contour>
      <point x="1262" y="175" type="curve"/>
      <point x="1183" y="252" type="line"/>
      <point x="1260" y="299"/>
      <point x="1297" y="360"/>
      <point x="1297" y="441" type="curve" smooth="yes"/>
      <point x="1297" y="623"/>
      <point x="1110" y="674"/>
      <point x="765" y="728" type="curve" smooth="yes"/>
      <point x="427" y="781"/>
      <point x="217" y="890"/>
      <point x="217" y="1122" type="curve" smooth="yes"/>
      <point x="217" y="1374"/>
      <point x="464" y="1484"/>
      <point x="832" y="1484" type="curve" smooth="yes"/>
      <point x="1129" y="1484"/>
      <point x="1376" y="1401"/>
      <point x="1424" y="1114" type="curve"/>
      <point x="1298" y="1104" type="line"/>
      <point x="1249" y="1293"/>
      <point x="1092" y="1371"/>
      <point x="821" y="1371" type="curve" smooth="yes"/>
      <point x="531" y="1371"/>
      <point x="342" y="1303"/>
      <point x="342" y="1122" type="curve" smooth="yes"/>
      <point x="342" y="974"/>
      <point x="466" y="893"/>
      <point x="839" y="831" type="curve" smooth="yes"/>
      <point x="1234" y="765"/>
      <point x="1427" y="674"/>
      <point x="1427" y="455" type="curve" smooth="yes"/>
      <point x="1427" y="348"/>
      <point x="1381" y="259"/>
    </contour>
  </outline>
</glyph>
<glyph name="dieresis" format="2">
  <advance width="1555"/>
  <unicode hex="00A8"/>
  <outline>
    <contour>
      <point x="471" y="1276" type="line"/>
      <point x="608" y="1406" type="line"/>
      <point x="471" y="1536" type="line"/>
      <point x="334" y="1406" type="line"/>
    </contour>
    <contour>
      <point x="1083" y="1276" type="line"/>
      <point x="1220" y="1406" type="line"/>
      <point x="1083" y="1536" type="line"/>
      <point x="946" y="1406" type="line"/>
    </contour>
  </outline>
</glyph>
<glyph name="ordfeminine" format="2">
  <advance width="1555"/>
  <unicode hex="00AA"/>
  <outline>
    <contour>
      <point x="692" y="1554" type="curve" smooth="yes"/>
      <point x="452" y="1554"/>
      <point x="362" y="1480"/>
      <point x="362" y="1375" type="curve" smooth="yes"/>
      <point x="362" y="1344" type="line"/>
      <point x="466" y="1344" type="line"/>
      <point x="467" y="1366" type="line" smooth="yes"/>
      <point x="469" y="1450"/>
      <point x="561" y="1475"/>
      <point x="675" y="1475" type="curve" smooth="yes"/>
      <point x="776" y="1475"/>
      <point x="903" y="1456"/>
      <point x="903" y="1332" type="curve" smooth="yes"/>
      <point x="903" y="1016" type="line"/>
      <point x="909" y="1002" type="line"/>
      <point x="909" y="957"/>
      <point x="930" y="911"/>
      <point x="1011" y="911" type="curve" smooth="yes"/>
      <point x="1036" y="911"/>
      <point x="1063" y="915"/>
      <point x="1089" y="923" type="curve"/>
      <point x="1089" y="1003" type="line"/>
      <point x="1031" y="997"/>
      <point x="1015" y="1006"/>
      <point x="1015" y="1052" type="curve" smooth="yes"/>
      <point x="1015" y="1331" type="line" smooth="yes"/>
      <point x="1015" y="1482"/>
      <point x="917" y="1554"/>
    </contour>
    <contour>
      <point x="932" y="1195" type="curve"/>
      <point x="911" y="1267" type="line"/>
      <point x="576" y="1281"/>
      <point x="325" y="1251"/>
      <point x="325" y="1081" type="curve" smooth="yes"/>
      <point x="325" y="972"/>
      <point x="423" y="911"/>
      <point x="588" y="911" type="curve" smooth="yes"/>
      <point x="707" y="911"/>
      <point x="812" y="941"/>
      <point x="898" y="988" type="curve"/>
      <point x="922" y="988" type="line"/>
      <point x="918" y="1056" type="line"/>
      <point x="824" y="1014"/>
      <point x="726" y="994"/>
      <point x="628" y="994" type="curve" smooth="yes"/>
      <point x="508" y="994"/>
      <point x="442" y="1027"/>
      <point x="442" y="1090" type="curve" smooth="yes"/>
      <point x="442" y="1167"/>
      <point x="548" y="1207"/>
      <point x="761" y="1207" type="curve" smooth="yes"/>
      <point x="812" y="1207"/>
      <point x="880" y="1204"/>
    </contour>
  </outline>
</glyph>
<glyph name="guillemetleft" format="2">
  <advance width="1555"/>
  <unicode hex="00AB"/>
  <outline>
    <contour>
      <point x="700" y="39" type="line"/>
      <point x="325" y="543" type="line"/>
      <point x="220" y="500" type="line"/>
      <point x="609" y="-24" type="line"/>
    </contour>
    <contour>
      <point x="609" y="1024" type="line"/>
      <point x="220" y="500" type="line"/>
      <point x="323" y="458" type="line"/>
      <point x="700" y="961" type="line"/>
    </contour>
    <contour>
      <point x="1275" y="39" type="line"/>
      <point x="900" y="543" type="line"/>
      <point x="795" y="500" type="line"/>
      <point x="1184" y="-24" type="line"/>
    </contour>
    <contour>
      <point x="1184" y="1024" type="line"/>
      <point x="795" y="500" type="line"/>
      <point x="898" y="458" type="line"/>
      <point x="1275" y="961" type="line"/>
    </contour>
  </outline>
</glyph>
<glyph name="logicalnot" format="2">
  <advance width="1555"/>
  <unicode hex="00AC"/>
  <outline>
    <contour>
      <point x="250" y="691" type="line"/>
      <point x="1305" y="691" type="line"/>
      <point x="1305" y="801" type="line"/>
      <point x="250" y="801" type="line"/>
    </contour>
    <contour>
      <point x="1185" y="801" type="line"/>
      <point x="1185" y="279" type="line"/>
      <point x="1305" y="279" type="line"/>
      <point x="1305" y="801" type="line"/>
    </contour>
  </outline>
</glyph>
<glyph name="twosuperior" format="2">
  <advance width="1555"/>
  <unicode hex="00B2"/>
  <outline>
    <contour>
      <point x="736" y="1664" type="curve" smooth="yes"/>
      <point x="620" y="1664"/>
      <point x="537" y="1609"/>
      <point x="536" y="1504" type="curve"/>
      <point x="629" y="1496" type="line"/>
      <point x="638" y="1567"/>
      <point x="680" y="1587"/>
      <point x="748" y="1587" type="curve" smooth="yes"/>
      <point x="810" y="1587"/>
      <point x="854" y="1567"/>
      <point x="854" y="1510" type="curve" smooth="yes"/>
      <point x="854" y="1441"/>
      <point x="793" y="1411"/>
      <point x="723" y="1378" type="curve" smooth="yes"/>
      <point x="607" y="1324"/>
      <point x="536" y="1270"/>
      <point x="536" y="1180" type="curve" smooth="yes"/>
      <point x="536" y="1100" type="line"/>
      <point x="973" y="1100" type="line"/>
      <point x="973" y="1180" type="line"/>
      <point x="611" y="1180" type="line"/>
      <point x="630" y="1162" type="line"/>
      <point x="627" y="1228"/>
      <point x="665" y="1252"/>
      <point x="769" y="1303" type="curve" smooth="yes"/>
      <point x="845" y="1340"/>
      <point x="953" y="1387"/>
      <point x="953" y="1510" type="curve" smooth="yes"/>
      <point x="953" y="1618"/>
      <point x="867" y="1664"/>
    </contour>
  </outline>
</glyph>
<glyph name="acute" format="2">
  <advance width="1555"/>
  <unicode hex="00B4"/>
  <outline>
    <contour>
      <point x="835" y="1274" type="line"/>
      <point x="716" y="1274" type="line"/>
      <point x="988" y="1597" type="line"/>
      <point x="1141" y="1597" type="line"/>
    </contour>
  </outline>
</glyph>
<glyph name="periodcentered" format="2">
  <advance width="1555"/>
  <unicode hex="00B7"/>
  <outline>
    <contour>
      <point x="777" y="489" type="curve" smooth="yes"/>
      <point x="866" y="489"/>
      <point x="936" y="547"/>
      <point x="936" y="644" type="curve" smooth="yes"/>
      <point x="936" y="743"/>
      <point x="866" y="799"/>
      <point x="777" y="799" type="curve" smooth="yes"/>
      <point x="689" y="799"/>
      <point x="619" y="743"/>
      <point x="619" y="644" type="curve" smooth="yes"/>
      <point x="619" y="547"/>
      <point x="689" y="489"/>
    </contour>
  </outline>
</glyph>
<glyph name="cedilla" format="2">
  <advance width="1555"/>
  <unicode hex="00B8"/>
  <outline>
    <contour>
      <point x="623" y="-565" type="line"/>
      <point x="867" y="-565" type="line"/>
      <point x="1063" y="-455" type="line"/>
      <point x="1063" y="-279" type="line"/>
      <point x="866" y="-169" type="line"/>
      <point x="788" y="-169" type="line"/>
      <point x="807" y="-191" type="line"/>
      <point x="807" y="48" type="line"/>
      <point x="713" y="48" type="line"/>
      <point x="713" y="-259" type="line"/>
      <point x="839" y="-259" type="line"/>
      <point x="975" y="-329" type="line"/>
      <point x="975" y="-405" type="line"/>
      <point x="839" y="-475" type="line"/>
      <point x="623" y="-475" type="line"/>
    </contour>
  </outline>
</glyph>
<glyph name="onesuperior" format="2">
  <advance width="1555"/>
  <unicode hex="00B9"/>
  <outline>
    <contour>
      <point x="593" y="1559" type="curve"/>
      <point x="593" y="1462" type="line"/>
      <point x="689" y="1462"/>
      <point x="810" y="1565"/>
      <point x="810" y="1655" type="curve"/>
      <point x="738" y="1655" type="line"/>
      <point x="729" y="1599"/>
      <point x="640" y="1559"/>
    </contour>
    <contour>
      <point x="836" y="1100" type="line"/>
      <point x="836" y="1655" type="line"/>
      <point x="738" y="1655" type="line"/>
      <point x="738" y="1100" type="line"/>
    </contour>
    <contour>
      <point x="577" y="1100" type="line"/>
      <point x="1000" y="1100" type="line"/>
      <point x="1000" y="1180" type="line"/>
      <point x="577" y="1180" type="line"/>
    </contour>
  </outline>
</glyph>
<glyph name="Eacute" format="2">
  <advance width="1555"/>
  <unicode hex="00C9"/>
  <outline>
    <contour>
      <point x="416" y="0" type="line"/>
      <point x="416" y="1460" type="line"/>
      <point x="290" y="1460" type="line"/>
      <point x="290" y="0" type="line"/>
    </contour>
    <contour>
      <point x="1338" y="110" type="line"/>
      <point x="375" y="110" type="line"/>
      <point x="375" y="0" type="line"/>
      <point x="1318" y="0" type="line"/>
    </contour>
    <contour>
      <point x="1141" y="779" type="line"/>
      <point x="375" y="779" type="line"/>
      <point x="375" y="674" type="line"/>
      <point x="1141" y="674" type="line"/>
    </contour>
    <contour>
      <point x="1298" y="1350" type="line"/>
      <point x="1278" y="1460" type="line"/>
      <point x="375" y="1460" type="line"/>
      <point x="375" y="1350" type="line"/>
    </contour>
    <contour>
      <point x="864" y="1652" type="line"/>
      <point x="745" y="1652" type="line"/>
      <point x="1017" y="1884" type="line"/>
      <point x="1170" y="1884" type="line"/>
    </contour>
  </outline>
</glyph>
<glyph name="Icircumflex" format="2">
  <advance width="1555"/>
  <unicode hex="00CE"/>
  <outline>
    <contour>
      <point x="705" y="0" type="line"/>
      <point x="831" y="0" type="line"/>
      <point x="831" y="1460" type="line"/>
      <point x="705" y="1460" type="line"/>
    </contour>
    <contour>
      <point x="228" y="0" type="line"/>
      <point x="1328" y="0" type="line"/>
      <point x="1348" y="110" type="line"/>
      <point x="208" y="110" type="line"/>
    </contour>
    <contour>
      <point x="208" y="1350" type="line"/>
      <point x="1348" y="1350" type="line"/>
      <point x="1328" y="1460" type="line"/>
      <point x="228" y="1460" type="line"/>
    </contour>
    <contour>
      <point x="387" y="1650" type="line"/>
      <point x="534" y="1650" type="line"/>
      <point x="809" y="1859" type="line"/>
      <point x="747" y="1859" type="line"/>
      <point x="1023" y="1650" type="line"/>
      <point x="1170" y="1650" type="line"/>
      <point x="856" y="1883" type="line"/>
      <point x="700" y="1883" type="line"/>
    </contour>
  </outline>
</glyph>
<glyph name="Ograve" format="2">
  <advance width="1555"/>
  <unicode hex="00D2"/>
  <outline>
    <contour>
      <point x="649" y="0" type="line"/>
      <point x="907" y="0" type="line"/>
      <point x="1404" y="540" type="line"/>
      <point x="1404" y="930" type="line"/>
      <point x="910" y="1460" type="line"/>
      <point x="649" y="1460" type="line"/>
      <point x="151" y="930" type="line"/>
      <point x="151" y="540" type="line"/>
    </contour>
    <contour>
      <point x="708" y="110" type="line"/>
      <point x="277" y="581" type="line"/>
      <point x="277" y="889" type="line"/>
      <point x="708" y="1350" type="line"/>
      <point x="847" y="1350" type="line"/>
      <point x="1278" y="889" type="line"/>
      <point x="1278" y="581" type="line"/>
      <point x="847" y="110" type="line"/>
    </contour>
    <contour>
      <point x="728" y="1652.076" type="line"/>
      <point x="847" y="1652.076" type="line"/>
      <point x="575" y="1883.57" type="line"/>
      <point x="422" y="1883.57" type="line"/>
    </contour>
  </outline>
</glyph>
<glyph name="multiply" format="2">
  <advance width="1555"/>
  <unicode hex="00D7"/>
  <outline>
    <contour>
      <point x="285" y="1057" type="line"/>
      <point x="1188" y="153" type="line"/>
      <point x="1270" y="235" type="line"/>
      <point x="367" y="1139" type="line"/>
    </contour>
    <contour>
      <point x="365" y="155" type="line"/>
      <point x="1268" y="1059" type="line"/>
      <point x="1190" y="1137" type="line"/>
      <point x="287" y="233" type="line"/>
    </contour>
  </outline>
</glyph>
<glyph name="Ugrave" format="2">
  <advance width="1555"/>
  <unicode hex="00D9"/>
  <outline>
    <contour>
      <point x="436" y="0" type="line"/>
      <point x="1120" y="0" type="line"/>
      <point x="1322" y="244" type="line"/>
      <point x="1322" y="1460" type="line"/>
      <point x="1196" y="1460" type="line"/>
      <point x="1196" y="295" type="line"/>
      <point x="1047" y="110" type="line"/>
      <point x="509" y="110" type="line"/>
      <point x="360" y="295" type="line"/>
      <point x="360" y="1460" type="line"/>
      <point x="234" y="1460" type="line"/>
      <point x="234" y="244" type="line"/>
    </contour>
    <contour>
      <point x="728" y="1652.076" type="line"/>
      <point x="847" y="1652.076" type="line"/>
      <point x="575" y="1883.57" type="line"/>
      <point x="422" y="1883.57" type="line"/>
    </contour>
  </outline>
</glyph>
<glyph name="Ucircumflex" format="2">
  <advance width="1555"/>
  <unicode hex="00DB"/>
  <outline>
    <contour>
      <point x="436" y="0" type="line"/>
      <point x="1120" y="0" type="line"/>
      <point x="1322" y="244" type="line"/>
      <point x="1322" y="1460" type="line"/>
      <point x="1196" y="1460" type="line"/>
      <point x="1196" y="295" type="line"/>
      <point x="1047" y="110" type="line"/>
      <point x="509" y="110" type="line"/>
      <point x="360" y="295" type="line"/>
      <point x="360" y="1460" type="line"/>
      <point x="234" y="1460" type="line"/>
      <point x="234" y="244" type="line"/>
    </contour>
    <contour>
      <point x="386" y="1650" type="line"/>
      <point x="533" y="1650" type="line"/>
      <point x="808" y="1859" type="line"/>
      <point x="746" y="1859" type="line"/>
      <point x="1022" y="1650" type="line"/>
      <point x="1169" y="1650" type="line"/>
      <point x="855" y="1883" type="line"/>
      <point x="699" y="1883" type="line"/>
    </contour>
  </outline>
</glyph>
<glyph name="Udieresis" format="2">
  <advance width="1555"/>
  <unicode hex="00DC"/>
  <outline>
    <contour>
      <point x="436" y="0" type="line"/>
      <point x="1120" y="0" type="line"/>
      <point x="1322" y="244" type="line"/>
      <point x="1322" y="1460" type="line"/>
      <point x="1196" y="1460" type="line"/>
      <point x="1196" y="295" type="line"/>
      <point x="1047" y="110" type="line"/>
      <point x="509" y="110" type="line"/>
      <point x="360" y="295" type="line"/>
      <point x="360" y="1460" type="line"/>
      <point x="234" y="1460" type="line"/>
      <point x="234" y="244" type="line"/>
    </contour>
    <contour>
      <point x="472" y="1626" type="line"/>
      <point x="609" y="1756" type="line"/>
      <point x="472" y="1886" type="line"/>
      <point x="335" y="1756" type="line"/>
    </contour>
    <contour>
      <point x="1084" y="1626" type="line"/>
      <point x="1221" y="1756" type="line"/>
      <point x="1084" y="1886" type="line"/>
      <point x="947" y="1756" type="line"/>
    </contour>
  </outline>
</glyph>
<glyph name="Thorn" format="2">
  <advance width="1555"/>
  <unicode hex="00DE"/>
  <outline>
    <contour>
      <point x="212" y="0" type="line"/>
      <point x="338" y="0" type="line"/>
      <point x="338" y="1460" type="line"/>
      <point x="212" y="1460" type="line"/>
    </contour>
    <contour>
      <point x="279" y="313" type="line"/>
      <point x="1037" y="313" type="line"/>
      <point x="1387" y="640" type="line"/>
      <point x="1387" y="924" type="line"/>
      <point x="1037" y="1206" type="line"/>
      <point x="279" y="1206" type="line"/>
      <point x="279" y="1106" type="line"/>
      <point x="978" y="1106" type="line"/>
      <point x="1261" y="885" type="line"/>
      <point x="1261" y="675" type="line"/>
      <point x="978" y="413" type="line"/>
      <point x="279" y="413" type="line"/>
    </contour>
  </outline>
</glyph>
<glyph name="aring" format="2">
  <advance width="1555"/>
  <unicode hex="00E5"/>
  <outline>
    <contour>
      <point x="1244" y="0" type="line"/>
      <point x="1320" y="0" type="line"/>
      <point x="1320" y="802" type="line"/>
      <point x="1114" y="1000" type="line"/>
      <point x="322" y="1000" type="line"/>
      <point x="302" y="902" type="line"/>
      <point x="1059" y="902" type="line"/>
      <point x="1204" y="772" type="line"/>
      <point x="1204" y="176" type="line"/>
    </contour>
    <contour>
      <point x="545" y="-23" type="line"/>
      <point x="1253" y="154" type="line"/>
      <point x="1253" y="236" type="line"/>
      <point x="575" y="83" type="line"/>
      <point x="279" y="260" type="line"/>
      <point x="279" y="365" type="line"/>
      <point x="548" y="486" type="line"/>
      <point x="1253" y="486" type="line"/>
      <point x="1253" y="586" type="line"/>
      <point x="509" y="586" type="line"/>
      <point x="169" y="415" type="line"/>
      <point x="169" y="217" type="line"/>
    </contour>
    <contour>
      <point x="682" y="1215" type="line"/>
      <point x="856" y="1215" type="line"/>
      <point x="996" y="1372" type="line"/>
      <point x="996" y="1506" type="line"/>
      <point x="856" y="1662" type="line"/>
      <point x="682" y="1662" type="line"/>
      <point x="542" y="1505" type="line"/>
      <point x="542" y="1371" type="line"/>
    </contour>
    <contour>
      <point x="636" y="1409" type="line"/>
      <point x="636" y="1468" type="line"/>
      <point x="729" y="1574" type="line"/>
      <point x="809" y="1574" type="line"/>
      <point x="902" y="1468" type="line"/>
      <point x="902" y="1409" type="line"/>
      <point x="809" y="1303" type="line"/>
      <point x="729" y="1303" type="line"/>
    </contour>
  </outline>
</glyph>
<glyph name="igrave" format="2">
  <advance width="1555"/>
  <unicode hex="00EC"/>
  <outline>
    <contour>
      <point x="769" y="0" type="line"/>
      <point x="893" y="0" type="line"/>
      <point x="893" y="935" type="line"/>
      <point x="832" y="1000" type="line"/>
      <point x="284" y="1000" type="line"/>
      <point x="264" y="902" type="line"/>
      <point x="815" y="902" type="line"/>
      <point x="769" y="938" type="line"/>
    </contour>
    <contour>
      <point x="642" y="1274" type="line"/>
      <point x="761" y="1274" type="line"/>
      <point x="489" y="1597" type="line"/>
      <point x="336" y="1597" type="line"/>
    </contour>
  </outline>
</glyph>
<glyph name="iacute" format="2">
  <advance width="1555"/>
  <unicode hex="00ED"/>
  <outline>
    <contour>
      <point x="766" y="0" type="line"/>
      <point x="890" y="0" type="line"/>
      <point x="890" y="935" type="line"/>
      <point x="829" y="1000" type="line"/>
      <point x="281" y="1000" type="line"/>
      <point x="261" y="902" type="line"/>
      <point x="812" y="902" type="line"/>
      <point x="766" y="938" type="line"/>
    </contour>
    <contour>
      <point x="738" y="1274" type="line"/>
      <point x="619" y="1274" type="line"/>
      <point x="891" y="1597" type="line"/>
      <point x="1044" y="1597" type="line"/>
    </contour>
  </outline>
</glyph>
<glyph name="idieresis" format="2">
  <advance width="1555"/>
  <unicode hex="00EF"/>
  <outline>
    <contour>
      <point x="771" y="0" type="line"/>
      <point x="895" y="0" type="line"/>
      <point x="895" y="935" type="line"/>
      <point x="834" y="1000" type="line"/>
      <point x="286" y="1000" type="line"/>
      <point x="266" y="902" type="line"/>
      <point x="817" y="902" type="line"/>
      <point x="771" y="938" type="line"/>
    </contour>
    <contour>
      <point x="388" y="1276" type="line"/>
      <point x="525" y="1406" type="line"/>
      <point x="388" y="1536" type="line"/>
      <point x="251" y="1406" type="line"/>
    </contour>
    <contour>
      <point x="1000" y="1276" type="line"/>
      <point x="1137" y="1406" type="line"/>
      <point x="1000" y="1536" type="line"/>
      <point x="863" y="1406" type="line"/>
    </contour>
  </outline>
</glyph>
<glyph name="otilde" format="2">
  <advance width="1555"/>
  <unicode hex="00F5"/>
  <outline>
    <contour>
      <point x="655" y="0" type="line"/>
      <point x="899" y="0" type="line"/>
      <point x="1385" y="337" type="line"/>
      <point x="1385" y="663" type="line"/>
      <point x="899" y="1000" type="line"/>
      <point x="655" y="1000" type="line"/>
      <point x="170" y="663" type="line"/>
      <point x="170" y="337" type="line"/>
    </contour>
    <contour>
      <point x="693" y="98" type="line"/>
      <point x="286" y="384" type="line"/>
      <point x="286" y="616" type="line"/>
      <point x="693" y="902" type="line"/>
      <point x="861" y="902" type="line"/>
      <point x="1269" y="616" type="line"/>
      <point x="1269" y="384" type="line"/>
      <point x="861" y="98" type="line"/>
    </contour>
    <contour>
      <point x="686" y="1577" type="line"/>
      <point x="498" y="1577" type="line"/>
      <point x="318" y="1419" type="line"/>
      <point x="318" y="1267" type="line"/>
      <point x="408" y="1267" type="line"/>
      <point x="408" y="1378" type="line"/>
      <point x="536" y="1489" type="line"/>
      <point x="637" y="1489" type="line"/>
      <point x="869" y="1267" type="line"/>
      <point x="1057" y="1267" type="line"/>
      <point x="1237" y="1425" type="line"/>
      <point x="1237" y="1577" type="line"/>
      <point x="1147" y="1577" type="line"/>
      <point x="1147" y="1466" type="line"/>
      <point x="1019" y="1355" type="line"/>
      <point x="918" y="1355" type="line"/>
    </contour>
  </outline>
</glyph>
<glyph name="odieresis" format="2">
  <advance width="1555"/>
  <unicode hex="00F6"/>
  <outline>
    <contour>
      <point x="655" y="0" type="line"/>
      <point x="899" y="0" type="line"/>
      <point x="1385" y="337" type="line"/>
      <point x="1385" y="663" type="line"/>
      <point x="899" y="1000" type="line"/>
      <point x="655" y="1000" type="line"/>
      <point x="170" y="663" type="line"/>
      <point x="170" y="337" type="line"/>
    </contour>
    <contour>
      <point x="693" y="98" type="line"/>
      <point x="286" y="384" type="line"/>
      <point x="286" y="616" type="line"/>
      <point x="693" y="902" type="line"/>
      <point x="861" y="902" type="line"/>
      <point x="1269" y="616" type="line"/>
      <point x="1269" y="384" type="line"/>
      <point x="861" y="98" type="line"/>
    </contour>
    <contour>
      <point x="472" y="1276" type="line"/>
      <point x="609" y="1406" type="line"/>
      <point x="472" y="1536" type="line"/>
      <point x="335" y="1406" type="line"/>
    </contour>
    <contour>
      <point x="1084" y="1276" type="line"/>
      <point x="1221" y="1406" type="line"/>
      <point x="1084" y="1536" type="line"/>
      <point x="947" y="1406" type="line"/>
    </contour>
  </outline>
</glyph>
<glyph name="divide" format="2">
  <advance width="1555"/>
  <unicode hex="00F7"/>
  <outline>
    <contour>
      <point x="777" y="180" type="curve" smooth="yes"/>
      <point x="837" y="180"/>
      <point x="884" y="219"/>
      <point x="884" y="284" type="curve" smooth="yes"/>
      <point x="884" y="350"/>
      <point x="837" y="388"/>
      <point x="777" y="388" type="curve" smooth="yes"/>
      <point x="718" y="388"/>
      <point x="671" y="350"/>
      <point x="671" y="284" type="curve" smooth="yes"/>
      <point x="671" y="219"/>
      <point x="718" y="180"/>
    </contour>
    <contour>
      <point x="777" y="904" type="curve" smooth="yes"/>
      <point x="837" y="904"/>
      <point x="884" y="943"/>
      <point x="884" y="1008" type="curve" smooth="yes"/>
      <point x="884" y="1074"/>
      <point x="837" y="1112"/>
      <point x="777" y="1112" type="curve" smooth="yes"/>
      <point x="718" y="1112"/>
      <point x="671" y="1074"/>
      <point x="671" y="1008" type="curve" smooth="yes"/>
      <point x="671" y="943"/>
      <point x="718" y="904"/>
    </contour>
    <contour>
      <point x="250" y="591" type="line"/>
      <point x="1305" y="591" type="line"/>
      <point x="1305" y="701" type="line"/>
      <point x="250" y="701" type="line"/>
    </contour>
  </outline>
</glyph>
<glyph name="oslash" format="2">
  <advance width="1555"/>
  <unicode hex="00F8"/>
  <outline>
    <contour>
      <point x="513" y="133" type="line"/>
      <point x="1118" y="788" type="line"/>
      <point x="1034" y="858" type="line"/>
      <point x="423" y="196" type="line"/>
    </contour>
    <contour>
      <point x="230" y="-177" type="line"/>
      <point x="535" y="150" type="line"/>
      <point x="426" y="216" type="line"/>
      <point x="138" y="-92" type="line"/>
    </contour>
    <contour>
      <point x="1114" y="768" type="line"/>
      <point x="1418" y="1092" type="line"/>
      <point x="1326" y="1177" type="line"/>
      <point x="1011" y="841" type="line"/>
    </contour>
    <contour>
      <point x="656" y="0" type="line"/>
      <point x="900" y="0" type="line"/>
      <point x="1386" y="337" type="line"/>
      <point x="1386" y="663" type="line"/>
      <point x="900" y="1000" type="line"/>
      <point x="656" y="1000" type="line"/>
      <point x="171" y="663" type="line"/>
      <point x="171" y="337" type="line"/>
    </contour>
    <contour>
      <point x="694" y="98" type="line"/>
      <point x="287" y="384" type="line"/>
      <point x="287" y="616" type="line"/>
      <point x="694" y="902" type="line"/>
      <point x="862" y="902" type="line"/>
      <point x="1270" y="616" type="line"/>
      <point x="1270" y="384" type="line"/>
      <point x="862" y="98" type="line"/>
    </contour>
  </outline>
</glyph>
<glyph name="uacute" format="2">
  <advance width="1555"/>
  <unicode hex="00FA"/>
  <outline>
    <contour>
      <point x="362" y="1000" type="line"/>
      <point x="236" y="1000" type="line"/>
      <point x="236" y="219" type="line"/>
      <point x="555" y="-23" type="line"/>
      <point x="1261" y="136" type="line"/>
      <point x="1261" y="218" type="line"/>
      <point x="593" y="93" type="line"/>
      <point x="362" y="263" type="line"/>
    </contour>
    <contour>
      <point x="1320" y="1000" type="line"/>
      <point x="1196" y="1000" type="line"/>
      <point x="1196" y="142" type="line"/>
      <point x="1233" y="0" type="line"/>
      <point x="1320" y="0" type="line"/>
    </contour>
    <contour>
      <point x="828" y="1274" type="line"/>
      <point x="709" y="1274" type="line"/>
      <point x="981" y="1597" type="line"/>
      <point x="1134" y="1597" type="line"/>
    </contour>
  </outline>
</glyph>
<glyph name="thorn" format="2">
  <advance width="1555"/>
  <unicode hex="00FE"/>
  <outline>
    <contour>
      <point x="229" y="-400" type="line"/>
      <point x="353" y="-400" type="line"/>
      <point x="353" y="1530" type="line"/>
      <point x="229" y="1530" type="line"/>
    </contour>
    <contour>
      <point x="294" y="0" type="line"/>
      <point x="934" y="0" type="line"/>
      <point x="1363" y="334" type="line"/>
      <point x="1363" y="746" type="line"/>
      <point x="945" y="1023" type="line"/>
      <point x="294" y="864" type="line"/>
      <point x="294" y="776" type="line"/>
      <point x="914" y="901" type="line"/>
      <point x="1237" y="700" type="line"/>
      <point x="1237" y="372" type="line"/>
      <point x="876" y="94" type="line"/>
      <point x="294" y="94" type="line"/>
    </contour>
  </outline>
</glyph>
<glyph name="ydieresis" format="2">
  <advance width="1555"/>
  <unicode hex="00FF"/>
  <outline>
    <contour>
      <point x="355" y="-400" type="line"/>
      <point x="981" y="-400" type="line"/>
      <point x="1302" y="-112" type="line"/>
      <point x="1302" y="1000" type="line"/>
      <point x="1186" y="1000" type="line"/>
      <point x="1186" y="294" type="line"/>
      <point x="1186" y="254" type="line"/>
      <point x="1186" y="-82" type="line"/>
      <point x="925" y="-302" type="line"/>
      <point x="335" y="-302" type="line"/>
    </contour>
    <contour>
      <point x="536" y="79" type="line"/>
      <point x="1222" y="237" type="line"/>
      <point x="1222" y="320" type="line"/>
      <point x="573" y="195" type="line"/>
      <point x="338" y="366" type="line"/>
      <point x="338" y="1000" type="line"/>
      <point x="212" y="1000" type="line"/>
      <point x="212" y="323" type="line"/>
    </contour>
    <contour>
      <point x="454" y="1276" type="line"/>
      <point x="591" y="1406" type="line"/>
      <point x="454" y="1536" type="line"/>
      <point x="317" y="1406" type="line"/>
    </contour>
    <contour>
      <point x="1066" y="1276" type="line"/>
      <point x="1203" y="1406" type="line"/>
      <point x="1066" y="1536" type="line"/>
      <point x="929" y="1406" type="line"/>
    </contour>
  </outline>
</glyph>
<glyph name="abreve" format="2">
  <advance width="1555"/>
  <unicode hex="0103"/>
  <outline>
    <contour>
      <point x="1244" y="0" type="line"/>
      <point x="1320" y="0" type="line"/>
      <point x="1320" y="802" type="line"/>
      <point x="1114" y="1000" type="line"/>
      <point x="322" y="1000" type="line"/>
      <point x="302" y="902" type="line"/>
      <point x="1059" y="902" type="line"/>
      <point x="1204" y="772" type="line"/>
      <point x="1204" y="176" type="line"/>
    </contour>
    <contour>
      <point x="545" y="-23" type="line"/>
      <point x="1253" y="154" type="line"/>
      <point x="1253" y="236" type="line"/>
      <point x="575" y="83" type="line"/>
      <point x="279" y="260" type="line"/>
      <point x="279" y="365" type="line"/>
      <point x="548" y="486" type="line"/>
      <point x="1253" y="486" type="line"/>
      <point x="1253" y="586" type="line"/>
      <point x="509" y="586" type="line"/>
      <point x="169" y="415" type="line"/>
      <point x="169" y="217" type="line"/>
    </contour>
    <contour>
      <point x="592" y="1267" type="line"/>
      <point x="946" y="1267" type="line"/>
      <point x="1106" y="1414" type="line"/>
      <point x="1106" y="1597" type="line"/>
      <point x="1016" y="1597" type="line"/>
      <point x="1016" y="1451" type="line"/>
      <point x="904" y="1355" type="line"/>
      <point x="634" y="1355" type="line"/>
      <point x="522" y="1451" type="line"/>
      <point x="522" y="1597" type="line"/>
      <point x="432" y="1597" type="line"/>
      <point x="432" y="1413" type="line"/>
    </contour>
  </outline>
</glyph>
<glyph name="aogonek" format="2">
  <advance width="1555"/>
  <unicode hex="0105"/>
  <outline>
    <contour>
      <point x="1244" y="0" type="line"/>
      <point x="1320" y="0" type="line"/>
      <point x="1320" y="802" type="line"/>
      <point x="1114" y="1000" type="line"/>
      <point x="322" y="1000" type="line"/>
      <point x="302" y="902" type="line"/>
      <point x="1059" y="902" type="line"/>
      <point x="1204" y="772" type="line"/>
      <point x="1204" y="176" type="line"/>
    </contour>
    <contour>
      <point x="545" y="-23" type="line"/>
      <point x="1253" y="154" type="line"/>
      <point x="1253" y="236" type="line"/>
      <point x="575" y="83" type="line"/>
      <point x="279" y="260" type="line"/>
      <point x="279" y="365" type="line"/>
      <point x="548" y="486" type="line"/>
      <point x="1253" y="486" type="line"/>
      <point x="1253" y="586" type="line"/>
      <point x="509" y="586" type="line"/>
      <point x="169" y="415" type="line"/>
      <point x="169" y="217" type="line"/>
    </contour>
    <contour>
      <point x="1050" y="-132" type="line"/>
      <point x="1050" y="-310" type="line"/>
      <point x="1198" y="-400" type="line"/>
      <point x="1320" y="-400" type="line"/>
      <point x="1320" y="-310" type="line"/>
      <point x="1229" y="-310" type="line"/>
      <point x="1152" y="-262" type="line"/>
      <point x="1152" y="-161" type="line"/>
      <point x="1320" y="0" type="line"/>
      <point x="1239" y="37" type="line"/>
    </contour>
  </outline>
</glyph>
<glyph name="Ccaron" format="2">
  <advance width="1555"/>
  <unicode hex="010C"/>
  <outline>
    <contour>
      <point x="671" y="0" type="line"/>
      <point x="1316" y="0" type="line"/>
      <point x="1336" y="110" type="line"/>
      <point x="736" y="110" type="line"/>
      <point x="315" y="573" type="line"/>
      <point x="315" y="897" type="line"/>
      <point x="736" y="1350" type="line"/>
      <point x="1336" y="1350" type="line"/>
      <point x="1316" y="1460" type="line"/>
      <point x="671" y="1460" type="line"/>
      <point x="189" y="933" type="line"/>
      <point x="189" y="537" type="line"/>
    </contour>
    <contour>
      <point x="504" y="1883" type="line"/>
      <point x="651" y="1883" type="line"/>
      <point x="926" y="1674" type="line"/>
      <point x="864" y="1674" type="line"/>
      <point x="1140" y="1883" type="line"/>
      <point x="1287" y="1883" type="line"/>
      <point x="973" y="1650" type="line"/>
      <point x="817" y="1650" type="line"/>
    </contour>
  </outline>
</glyph>
<glyph name="ccaron" format="2">
  <advance width="1555"/>
  <unicode hex="010D"/>
  <outline>
    <contour>
      <point x="614" y="0" type="line"/>
      <point x="1333" y="0" type="line"/>
      <point x="1360" y="98" type="line"/>
      <point x="660" y="98" type="line"/>
      <point x="281" y="377" type="line"/>
      <point x="281" y="623" type="line"/>
      <point x="660" y="902" type="line"/>
      <point x="1360" y="902" type="line"/>
      <point x="1333" y="1000" type="line"/>
      <point x="614" y="1000" type="line"/>
      <point x="165" y="662" type="line"/>
      <point x="165" y="339" type="line"/>
    </contour>
    <contour>
      <point x="421" y="1597" type="line"/>
      <point x="558" y="1597" type="line"/>
      <point x="843" y="1309" type="line"/>
      <point x="781" y="1309" type="line"/>
      <point x="1067" y="1597" type="line"/>
      <point x="1204" y="1597" type="line"/>
      <point x="870" y="1274" type="line"/>
      <point x="754" y="1274" type="line"/>
    </contour>
  </outline>
</glyph>
<glyph name="dcroat" format="2">
  <advance width="1555"/>
  <unicode hex="0111"/>
  <outline>
    <contour>
      <point x="565" y="1231" type="line"/>
      <point x="1495" y="1231" type="line"/>
      <point x="1495" y="1330" type="line"/>
      <point x="1295" y="1330" type="line"/>
      <point x="1266" y="1330" type="line"/>
      <point x="565" y="1330" type="line"/>
    </contour>
    <contour>
      <point x="1223" y="0" type="line"/>
      <point x="1313" y="0" type="line"/>
      <point x="1313" y="1530" type="line"/>
      <point x="1189" y="1510" type="line"/>
      <point x="1189" y="934" type="line"/>
      <point x="1199" y="903" type="line"/>
      <point x="1199" y="146" type="line"/>
    </contour>
    <contour>
      <point x="1222" y="960" type="line"/>
      <point x="582" y="960" type="line"/>
      <point x="153" y="626" type="line"/>
      <point x="153" y="254" type="line"/>
      <point x="571" y="-23" type="line"/>
      <point x="1222" y="136" type="line"/>
      <point x="1222" y="224" type="line"/>
      <point x="602" y="99" type="line"/>
      <point x="279" y="300" type="line"/>
      <point x="279" y="588" type="line"/>
      <point x="640" y="866" type="line"/>
      <point x="1222" y="866" type="line"/>
    </contour>
  </outline>
</glyph>
<glyph name="ebreve" format="2">
  <advance width="1555"/>
  <unicode hex="0115"/>
  <outline>
    <contour>
      <point x="615" y="0" type="line"/>
      <point x="1262" y="0" type="line"/>
      <point x="1282" y="98" type="line"/>
      <point x="661" y="98" type="line"/>
      <point x="299" y="373" type="line"/>
      <point x="299" y="627" type="line"/>
      <point x="644" y="902" type="line"/>
      <point x="1056" y="902" type="line"/>
      <point x="1253" y="798" type="line"/>
      <point x="1253" y="670" type="line"/>
      <point x="1073" y="577" type="line"/>
      <point x="241" y="577" type="line"/>
      <point x="241" y="480" type="line"/>
      <point x="1112" y="480" type="line"/>
      <point x="1359" y="613" type="line"/>
      <point x="1359" y="847" type="line"/>
      <point x="1096" y="1000" type="line"/>
      <point x="590" y="1000" type="line"/>
      <point x="183" y="670" type="line"/>
      <point x="183" y="330" type="line"/>
    </contour>
    <contour>
      <point x="651" y="1267" type="line"/>
      <point x="1005" y="1267" type="line"/>
      <point x="1165" y="1414" type="line"/>
      <point x="1165" y="1597" type="line"/>
      <point x="1075" y="1597" type="line"/>
      <point x="1075" y="1451" type="line"/>
      <point x="963" y="1355" type="line"/>
      <point x="693" y="1355" type="line"/>
      <point x="581" y="1451" type="line"/>
      <point x="581" y="1597" type="line"/>
      <point x="491" y="1597" type="line"/>
      <point x="491" y="1413" type="line"/>
    </contour>
  </outline>
</glyph>
<glyph name="Hbar" format="2">
  <advance width="1555"/>
  <unicode hex="0126"/>
  <outline>
    <contour>
      <point x="40" y="1102" type="line"/>
      <point x="1515" y="1102" type="line"/>
      <point x="1515" y="1212" type="line"/>
      <point x="40" y="1212" type="line"/>
    </contour>
    <contour>
      <point x="1196" y="0" type="line"/>
      <point x="1322" y="0" type="line"/>
      <point x="1322" y="1460" type="line"/>
      <point x="1196" y="1460" type="line"/>
    </contour>
    <contour>
      <point x="234" y="0" type="line"/>
      <point x="360" y="0" type="line"/>
      <point x="360" y="1460" type="line"/>
      <point x="234" y="1460" type="line"/>
    </contour>
    <contour>
      <point x="303" y="709" type="line"/>
      <point x="1257" y="709" type="line"/>
      <point x="1257" y="810" type="line"/>
      <point x="303" y="810" type="line"/>
    </contour>
  </outline>
</glyph>
<glyph name="imacron" format="2">
  <advance width="1555"/>
  <unicode hex="012B"/>
  <outline>
    <contour>
      <point x="750" y="0" type="line"/>
      <point x="874" y="0" type="line"/>
      <point x="874" y="935" type="line"/>
      <point x="813" y="1000" type="line"/>
      <point x="265" y="1000" type="line"/>
      <point x="245" y="902" type="line"/>
      <point x="796" y="902" type="line"/>
      <point x="750" y="938" type="line"/>
    </contour>
    <contour>
      <point x="258" y="1339" type="line"/>
      <point x="1087" y="1339" type="line"/>
      <point x="1087" y="1439" type="line"/>
      <point x="258" y="1439" type="line"/>
    </contour>
  </outline>
</glyph>
<glyph name="Iogonek" format="2">
  <advance width="1555"/>
  <unicode hex="012E"/>
  <outline>
    <contour>
      <point x="705" y="0" type="line"/>
      <point x="831" y="0" type="line"/>
      <point x="831" y="1460" type="line"/>
      <point x="705" y="1460" type="line"/>
    </contour>
    <contour>
      <point x="228" y="0" type="line"/>
      <point x="1328" y="0" type="line"/>
      <point x="1348" y="110" type="line"/>
      <point x="208" y="110" type="line"/>
    </contour>
    <contour>
      <point x="208" y="1350" type="line"/>
      <point x="1348" y="1350" type="line"/>
      <point x="1328" y="1460" type="line"/>
      <point x="228" y="1460" type="line"/>
    </contour>
    <contour>
      <point x="544" y="-132" type="line"/>
      <point x="544" y="-310" type="line"/>
      <point x="692" y="-400" type="line"/>
      <point x="814" y="-400" type="line"/>
      <point x="814" y="-310" type="line"/>
      <point x="723" y="-310" type="line"/>
      <point x="646" y="-262" type="line"/>
      <point x="646" y="-161" type="line"/>
      <point x="814" y="0" type="line"/>
      <point x="733" y="37" type="line"/>
    </contour>
  </outline>
</glyph>
<glyph name="idotless" format="2">
  <advance width="1555"/>
  <unicode hex="0131"/>
  <outline>
    <contour>
      <point x="769" y="0" type="line"/>
      <point x="893" y="0" type="line"/>
      <point x="893" y="935" type="line"/>
      <point x="832" y="1000" type="line"/>
      <point x="284" y="1000" type="line"/>
      <point x="264" y="902" type="line"/>
      <point x="815" y="902" type="line"/>
      <point x="769" y="938" type="line"/>
    </contour>
  </outline>
</glyph>
<glyph name="Jcircumflex" format="2">
  <advance width="1555"/>
  <unicode hex="0134"/>
  <outline>
    <contour>
      <point x="715" y="0" type="line"/>
      <point x="861" y="0" type="line"/>
      <point x="1344" y="489" type="line"/>
      <point x="1344" y="1460" type="line"/>
      <point x="1218" y="1460" type="line"/>
      <point x="1218" y="528" type="line"/>
      <point x="768" y="80" type="line"/>
      <point x="808" y="80" type="line"/>
      <point x="338" y="532" type="line"/>
      <point x="338" y="778" type="line"/>
      <point x="212" y="778" type="line"/>
      <point x="212" y="489" type="line"/>
    </contour>
    <contour>
      <point x="325" y="1350" type="line"/>
      <point x="1300" y="1350" type="line"/>
      <point x="1300" y="1460" type="line"/>
      <point x="345" y="1460" type="line"/>
    </contour>
    <contour>
      <point x="404" y="1650" type="line"/>
      <point x="551" y="1650" type="line"/>
      <point x="826" y="1859" type="line"/>
      <point x="764" y="1859" type="line"/>
      <point x="1040" y="1650" type="line"/>
      <point x="1187" y="1650" type="line"/>
      <point x="873" y="1883" type="line"/>
      <point x="717" y="1883" type="line"/>
    </contour>
  </outline>
</glyph>
<glyph name="kgreenlandic" format="2">
  <advance width="1555"/>
  <unicode hex="0138"/>
  <outline>
    <contour>
      <point x="1220" y="0" type="line"/>
      <point x="1344" y="0" type="line"/>
      <point x="1344" y="206" type="line"/>
      <point x="804" y="574" type="line"/>
      <point x="804" y="532" type="line"/>
      <point x="1400" y="1000" type="line"/>
      <point x="1243" y="1000" type="line"/>
      <point x="670" y="552" type="line"/>
      <point x="763" y="598" type="line"/>
      <point x="362" y="598" type="line"/>
      <point x="362" y="493" type="line"/>
      <point x="755" y="493" type="line"/>
      <point x="693" y="516" type="line"/>
      <point x="1220" y="171" type="line"/>
    </contour>
    <contour>
      <point x="284" y="0" type="line"/>
      <point x="408" y="0" type="line"/>
      <point x="408" y="1000" type="line"/>
      <point x="284" y="1000" type="line"/>
    </contour>
  </outline>
</glyph>
<glyph name="Lacute" format="2">
  <advance width="1555"/>
  <unicode hex="0139"/>
  <outline>
    <contour>
      <point x="298" y="0" type="line"/>
      <point x="424" y="0" type="line"/>
      <point x="424" y="1460" type="line"/>
      <point x="298" y="1460" type="line"/>
    </contour>
    <contour>
      <point x="383" y="0" type="line"/>
      <point x="1359" y="0" type="line"/>
      <point x="1379" y="110" type="line"/>
      <point x="383" y="110" type="line"/>
    </contour>
    <contour>
      <point x="426" y="1652" type="line"/>
      <point x="307" y="1652" type="line"/>
      <point x="579" y="1884" type="line"/>
      <point x="732" y="1884" type="line"/>
    </contour>
  </outline>
</glyph>
<glyph name="Lcaron" format="2">
  <advance width="1555"/>
  <unicode hex="013D"/>
  <outline>
    <contour>
      <point x="298" y="0" type="line"/>
      <point x="424" y="0" type="line"/>
      <point x="424" y="1460" type="line"/>
      <point x="298" y="1460" type="line"/>
    </contour>
    <contour>
      <point x="383" y="0" type="line"/>
      <point x="1359" y="0" type="line"/>
      <point x="1379" y="110" type="line"/>
      <point x="383" y="110" type="line"/>
    </contour>
    <contour>
      <point x="752" y="1212" type="line"/>
      <point x="849" y="1212" type="line"/>
      <point x="890" y="1548" type="line"/>
      <point x="769" y="1548" type="line"/>
    </contour>
  </outline>
</glyph>
<glyph name="lslash" format="2">
  <advance width="1555"/>
  <unicode hex="0142"/>
  <outline>
    <contour>
      <point x="303" y="574" type="line"/>
      <point x="1180" y="984" type="line"/>
      <point x="1180" y="1102" type="line"/>
      <point x="303" y="692" type="line"/>
    </contour>
    <contour>
      <point x="889" y="0" type="line"/>
      <point x="1335" y="0" type="line"/>
      <point x="1355" y="98" type="line"/>
      <point x="943" y="98" type="line"/>
      <point x="749" y="318" type="line"/>
      <point x="749" y="1465" type="line"/>
      <point x="688" y="1530" type="line"/>
      <point x="164" y="1530" type="line"/>
      <point x="144" y="1432" type="line"/>
      <point x="671" y="1432" type="line"/>
      <point x="633" y="1468" type="line"/>
      <point x="633" y="288" type="line"/>
    </contour>
  </outline>
</glyph>
<glyph name="Nacute" format="2">
  <advance width="1555"/>
  <unicode hex="0143"/>
  <outline>
    <contour>
      <point x="234" y="0" type="line"/>
      <point x="354" y="0" type="line"/>
      <point x="354" y="1266" type="line"/>
      <point x="366" y="1266" type="line"/>
      <point x="1176" y="1" type="line"/>
      <point x="1322" y="1" type="line"/>
      <point x="1322" y="1461" type="line"/>
      <point x="1202" y="1461" type="line"/>
      <point x="1202" y="214" type="line"/>
      <point x="1190" y="214" type="line"/>
      <point x="382" y="1460" type="line"/>
      <point x="234" y="1460" type="line"/>
    </contour>
    <contour>
      <point x="827" y="1652.076" type="line"/>
      <point x="708" y="1652.076" type="line"/>
      <point x="980" y="1883.57" type="line"/>
      <point x="1133" y="1883.57" type="line"/>
    </contour>
  </outline>
</glyph>
<glyph name="Ncommaaccent" format="2">
  <advance width="1555"/>
  <unicode hex="0145"/>
  <outline>
    <contour>
      <point x="234" y="0" type="line"/>
      <point x="354" y="0" type="line"/>
      <point x="354" y="1266" type="line"/>
      <point x="366" y="1266" type="line"/>
      <point x="1176" y="1" type="line"/>
      <point x="1322" y="1" type="line"/>
      <point x="1322" y="1461" type="line"/>
      <point x="1202" y="1461" type="line"/>
      <point x="1202" y="214" type="line"/>
      <point x="1190" y="214" type="line"/>
      <point x="382" y="1460" type="line"/>
      <point x="234" y="1460" type="line"/>
    </contour>
    <contour>
      <point x="685" y="-527" type="line"/>
      <point x="838" y="-527" type="line"/>
      <point x="838" y="-471" type="line"/>
      <point x="656" y="-707" type="line"/>
      <point x="731" y="-747" type="line"/>
      <point x="900" y="-527" type="line"/>
      <point x="900" y="-312" type="line"/>
      <point x="685" y="-312" type="line"/>
    </contour>
  </outline>
</glyph>
<glyph name="ncommaaccent" format="2">
  <advance width="1555"/>
  <unicode hex="0146"/>
  <outline>
    <contour>
      <point x="1194" y="0" type="line"/>
      <point x="1320" y="0" type="line"/>
      <point x="1320" y="781" type="line"/>
      <point x="1001" y="1023" type="line"/>
      <point x="295" y="864" type="line"/>
      <point x="295" y="782" type="line"/>
      <point x="963" y="907" type="line"/>
      <point x="1194" y="737" type="line"/>
    </contour>
    <contour>
      <point x="236" y="0" type="line"/>
      <point x="360" y="0" type="line"/>
      <point x="360" y="858" type="line"/>
      <point x="323" y="1000" type="line"/>
      <point x="236" y="1000" type="line"/>
    </contour>
    <contour>
      <point x="685" y="-527" type="line"/>
      <point x="838" y="-527" type="line"/>
      <point x="838" y="-471" type="line"/>
      <point x="656" y="-707" type="line"/>
      <point x="731" y="-747" type="line"/>
      <point x="900" y="-527" type="line"/>
      <point x="900" y="-312" type="line"/>
      <point x="685" y="-312" type="line"/>
    </contour>
  </outline>
</glyph>
<glyph name="ncaron" format="2">
  <advance width="1555"/>
  <unicode hex="0148"/>
  <outline>
    <contour>
      <point x="1194" y="0" type="line"/>
      <point x="1320" y="0" type="line"/>
      <point x="1320" y="781" type="line"/>
      <point x="1001" y="1023" type="line"/>
      <point x="295" y="864" type="line"/>
      <point x="295" y="782" type="line"/>
      <point x="963" y="907" type="line"/>
      <point x="1194" y="737" type="line"/>
    </contour>
    <contour>
      <point x="236" y="0" type="line"/>
      <point x="360" y="0" type="line"/>
      <point x="360" y="858" type="line"/>
      <point x="323" y="1000" type="line"/>
      <point x="236" y="1000" type="line"/>
    </contour>
    <contour>
      <point x="386" y="1597" type="line"/>
      <point x="523" y="1597" type="line"/>
      <point x="808" y="1309" type="line"/>
      <point x="746" y="1309" type="line"/>
      <point x="1032" y="1597" type="line"/>
      <point x="1169" y="1597" type="line"/>
      <point x="835" y="1274" type="line"/>
      <point x="719" y="1274" type="line"/>
    </contour>
  </outline>
</glyph>
<glyph name="Eng" format="2">
  <advance width="1555"/>
  <unicode hex="014A"/>
  <outline>
    <contour>
      <point x="1247" y="-76" type="line"/>
      <point x="1345" y="0" type="line"/>
      <point x="1345" y="1460" type="line"/>
      <point x="1223" y="1460" type="line"/>
      <point x="1223" y="217" type="line"/>
      <point x="1211" y="217" type="line"/>
      <point x="358" y="1460" type="line"/>
      <point x="210" y="1460" type="line"/>
      <point x="210" y="0" type="line"/>
      <point x="332" y="0" type="line"/>
      <point x="332" y="1278" type="line"/>
      <point x="344" y="1278" type="line"/>
    </contour>
    <contour>
      <point x="1171" y="-400" type="line"/>
      <point x="1345" y="-172" type="line"/>
      <point x="1345" y="50" type="line"/>
      <point x="1225" y="50" type="line"/>
      <point x="1225" y="-142" type="line"/>
      <point x="1107" y="-302" type="line"/>
      <point x="972" y="-302" type="line"/>
      <point x="992" y="-400" type="line"/>
    </contour>
  </outline>
</glyph>
<glyph name="OE" format="2">
  <advance width="1555"/>
  <unicode hex="0152"/>
  <outline>
    <contour>
      <point x="785" y="0" type="line"/>
      <point x="911" y="0" type="line"/>
      <point x="911" y="1460" type="line"/>
      <point x="785" y="1460" type="line"/>
    </contour>
    <contour>
      <point x="868" y="0" type="line"/>
      <point x="1417" y="0" type="line"/>
      <point x="1437" y="110" type="line"/>
      <point x="868" y="110" type="line"/>
    </contour>
    <contour>
      <point x="868" y="674" type="line"/>
      <point x="1334" y="674" type="line"/>
      <point x="1334" y="779" type="line"/>
      <point x="868" y="779" type="line"/>
    </contour>
    <contour>
      <point x="868" y="1350" type="line"/>
      <point x="1407" y="1350" type="line"/>
      <point x="1387" y="1460" type="line"/>
      <point x="868" y="1460" type="line"/>
    </contour>
    <contour>
      <point x="837" y="0" type="line"/>
      <point x="837" y="110" type="line"/>
      <point x="627" y="110" type="line"/>
      <point x="275" y="579" type="line"/>
      <point x="275" y="892" type="line"/>
      <point x="627" y="1350" type="line"/>
      <point x="837" y="1350" type="line"/>
      <point x="837" y="1460" type="line"/>
      <point x="564" y="1460" type="line"/>
      <point x="149" y="930" type="line"/>
      <point x="149" y="540" type="line"/>
      <point x="564" y="0" type="line"/>
    </contour>
  </outline>
</glyph>
<glyph name="oe" format="2">
  <advance width="1555"/>
  <unicode hex="0153"/>
  <outline>
    <contour>
      <point x="949" y="1000" type="line"/>
      <point x="734" y="803" type="line"/>
      <point x="734" y="186" type="line"/>
      <point x="1015" y="0" type="line"/>
      <point x="1354" y="0" type="line"/>
      <point x="1374" y="98" type="line"/>
      <point x="1061" y="98" type="line"/>
      <point x="840" y="232" type="line"/>
      <point x="840" y="753" type="line"/>
      <point x="1009" y="902" type="line"/>
      <point x="1217" y="902" type="line"/>
      <point x="1330" y="812" type="line"/>
      <point x="1330" y="674" type="line"/>
      <point x="1217" y="594" type="line"/>
      <point x="787" y="594" type="line"/>
      <point x="787" y="497" type="line"/>
      <point x="1266" y="497" type="line"/>
      <point x="1432" y="621" type="line"/>
      <point x="1432" y="855" type="line"/>
      <point x="1260" y="1000" type="line"/>
    </contour>
    <contour>
      <point x="369" y="0" type="line"/>
      <point x="598" y="0" type="line"/>
      <point x="840" y="330" type="line"/>
      <point x="840" y="670" type="line"/>
      <point x="598" y="1000" type="line"/>
      <point x="369" y="1000" type="line"/>
      <point x="125" y="670" type="line"/>
      <point x="125" y="330" type="line"/>
    </contour>
    <contour>
      <point x="415" y="98" type="line"/>
      <point x="225" y="352" type="line"/>
      <point x="225" y="648" type="line"/>
      <point x="415" y="902" type="line"/>
      <point x="552" y="902" type="line"/>
      <point x="734" y="648" type="line"/>
      <point x="734" y="352" type="line"/>
      <point x="552" y="98" type="line"/>
    </contour>
  </outline>
</glyph>
<glyph name="racute" format="2">
  <advance width="1555"/>
  <unicode hex="0155"/>
  <outline>
    <contour>
      <point x="1191" y="605" type="line"/>
      <point x="1310" y="625" type="line"/>
      <point x="1306" y="772" type="line"/>
      <point x="982" y="1023" type="line"/>
      <point x="284" y="864" type="line"/>
      <point x="284" y="782" type="line"/>
      <point x="946" y="917" type="line"/>
      <point x="1191" y="723" type="line"/>
    </contour>
    <contour>
      <point x="245" y="0" type="line"/>
      <point x="369" y="0" type="line"/>
      <point x="369" y="845" type="line"/>
      <point x="332" y="1000" type="line"/>
      <point x="245" y="1000" type="line"/>
    </contour>
    <contour>
      <point x="836" y="1274" type="line"/>
      <point x="717" y="1274" type="line"/>
      <point x="989" y="1597" type="line"/>
      <point x="1142" y="1597" type="line"/>
    </contour>
  </outline>
</glyph>
<glyph name="Rcommaaccent" format="2">
  <advance width="1555"/>
  <unicode hex="0156"/>
  <outline>
    <contour>
      <point x="305" y="637" type="line"/>
      <point x="986" y="637" type="line"/>
      <point x="1361" y="938" type="line"/>
      <point x="1361" y="1172" type="line"/>
      <point x="1003" y="1460" type="line"/>
      <point x="305" y="1460" type="line"/>
      <point x="305" y="1360" type="line"/>
      <point x="944" y="1360" type="line"/>
      <point x="1235" y="1133" type="line"/>
      <point x="1235" y="973" type="line"/>
      <point x="944" y="737" type="line"/>
      <point x="305" y="737" type="line"/>
    </contour>
    <contour>
      <point x="263" y="0" type="line"/>
      <point x="389" y="0" type="line"/>
      <point x="389" y="1460" type="line"/>
      <point x="263" y="1460" type="line"/>
    </contour>
    <contour>
      <point x="1225" y="0" type="line"/>
      <point x="1351" y="0" type="line"/>
      <point x="1351" y="266" type="line"/>
      <point x="970" y="697" type="line"/>
      <point x="819" y="697" type="line"/>
      <point x="1225" y="238" type="line"/>
    </contour>
    <contour>
      <point x="713" y="-527" type="line"/>
      <point x="866" y="-527" type="line"/>
      <point x="866" y="-471" type="line"/>
      <point x="684" y="-707" type="line"/>
      <point x="759" y="-747" type="line"/>
      <point x="928" y="-527" type="line"/>
      <point x="928" y="-312" type="line"/>
      <point x="713" y="-312" type="line"/>
    </contour>
  </outline>
</glyph>
<glyph name="Sacute" format="2">
  <advance width="1555"/>
  <unicode hex="015A"/>
  <outline>
    <contour>
      <point x="269" y="0" type="line"/>
      <point x="1035" y="0" type="line"/>
      <point x="1292" y="289" type="line"/>
      <point x="1292" y="478" type="line"/>
      <point x="369" y="1047" type="line"/>
      <point x="369" y="1129" type="line"/>
      <point x="572" y="1362" type="line"/>
      <point x="1262" y="1362" type="line"/>
      <point x="1242" y="1460" type="line"/>
      <point x="516" y="1460" type="line"/>
      <point x="259" y="1171" type="line"/>
      <point x="259" y="982" type="line"/>
      <point x="1183" y="413" type="line"/>
      <point x="1183" y="331" type="line"/>
      <point x="980" y="98" type="line"/>
      <point x="249" y="98" type="line"/>
    </contour>
    <contour>
      <point x="826" y="1652" type="line"/>
      <point x="707" y="1652" type="line"/>
      <point x="979" y="1884" type="line"/>
      <point x="1132" y="1884" type="line"/>
    </contour>
  </outline>
</glyph>
<glyph name="sacute" format="2">
  <advance width="1555"/>
  <unicode hex="015B"/>
  <outline>
    <contour>
      <point x="240" y="0" type="line"/>
      <point x="1128" y="0" type="line"/>
      <point x="1334" y="209" type="line"/>
      <point x="1334" y="382" type="line"/>
      <point x="350" y="699" type="line"/>
      <point x="350" y="756" type="line"/>
      <point x="497" y="902" type="line"/>
      <point x="1322" y="902" type="line"/>
      <point x="1302" y="1000" type="line"/>
      <point x="444" y="1000" type="line"/>
      <point x="238" y="791" type="line"/>
      <point x="238" y="627" type="line"/>
      <point x="1222" y="310" type="line"/>
      <point x="1222" y="245" type="line"/>
      <point x="1075" y="98" type="line"/>
      <point x="220" y="98" type="line"/>
    </contour>
    <contour>
      <point x="842" y="1274" type="line"/>
      <point x="723" y="1274" type="line"/>
      <point x="995" y="1597" type="line"/>
      <point x="1148" y="1597" type="line"/>
    </contour>
  </outline>
</glyph>
<glyph name="Scircumflex" format="2">
  <advance width="1555"/>
  <unicode hex="015C"/>
  <outline>
    <contour>
      <point x="269" y="0" type="line"/>
      <point x="1035" y="0" type="line"/>
      <point x="1292" y="289" type="line"/>
      <point x="1292" y="478" type="line"/>
      <point x="369" y="1047" type="line"/>
      <point x="369" y="1129" type="line"/>
      <point x="572" y="1362" type="line"/>
      <point x="1262" y="1362" type="line"/>
      <point x="1242" y="1460" type="line"/>
      <point x="516" y="1460" type="line"/>
      <point x="259" y="1171" type="line"/>
      <point x="259" y="982" type="line"/>
      <point x="1183" y="413" type="line"/>
      <point x="1183" y="331" type="line"/>
      <point x="980" y="98" type="line"/>
      <point x="249" y="98" type="line"/>
    </contour>
    <contour>
      <point x="385" y="1650" type="line"/>
      <point x="532" y="1650" type="line"/>
      <point x="807" y="1859" type="line"/>
      <point x="745" y="1859" type="line"/>
      <point x="1021" y="1650" type="line"/>
      <point x="1168" y="1650" type="line"/>
      <point x="854" y="1883" type="line"/>
      <point x="698" y="1883" type="line"/>
    </contour>
  </outline>
</glyph>
<glyph name="scedilla" format="2">
  <advance width="1555"/>
  <unicode hex="015F"/>
  <outline>
    <contour>
      <point x="240" y="0" type="line"/>
      <point x="1128" y="0" type="line"/>
      <point x="1334" y="209" type="line"/>
      <point x="1334" y="382" type="line"/>
      <point x="350" y="699" type="line"/>
      <point x="350" y="756" type="line"/>
      <point x="497" y="902" type="line"/>
      <point x="1322" y="902" type="line"/>
      <point x="1302" y="1000" type="line"/>
      <point x="444" y="1000" type="line"/>
      <point x="238" y="791" type="line"/>
      <point x="238" y="627" type="line"/>
      <point x="1222" y="310" type="line"/>
      <point x="1222" y="245" type="line"/>
      <point x="1075" y="98" type="line"/>
      <point x="220" y="98" type="line"/>
    </contour>
    <contour>
      <point x="646" y="-565" type="line"/>
      <point x="890" y="-565" type="line"/>
      <point x="1086" y="-455" type="line"/>
      <point x="1086" y="-279" type="line"/>
      <point x="889" y="-169" type="line"/>
      <point x="811" y="-169" type="line"/>
      <point x="830" y="-191" type="line"/>
      <point x="830" y="48" type="line"/>
      <point x="736" y="48" type="line"/>
      <point x="736" y="-259" type="line"/>
      <point x="862" y="-259" type="line"/>
      <point x="998" y="-329" type="line"/>
      <point x="998" y="-405" type="line"/>
      <point x="862" y="-475" type="line"/>
      <point x="646" y="-475" type="line"/>
    </contour>
  </outline>
</glyph>
<glyph name="tcaron" format="2">
  <advance width="1555"/>
  <unicode hex="0165"/>
  <outline>
    <contour>
      <point x="746" y="0" type="line"/>
      <point x="1269" y="0" type="line"/>
      <point x="1269" y="98" type="line"/>
      <point x="802" y="98" type="line"/>
      <point x="623" y="318" type="line"/>
      <point x="623" y="1291" type="line"/>
      <point x="507" y="1271" type="line"/>
      <point x="507" y="288" type="line"/>
    </contour>
    <contour>
      <point x="168" y="818" type="line"/>
      <point x="1269" y="818" type="line"/>
      <point x="1269" y="918" type="line"/>
      <point x="168" y="918" type="line"/>
    </contour>
    <contour>
      <point x="1169" y="1212" type="line"/>
      <point x="1266" y="1212" type="line"/>
      <point x="1307" y="1548" type="line"/>
      <point x="1186" y="1548" type="line"/>
    </contour>
  </outline>
</glyph>
<glyph name="Tbar" format="2">
  <advance width="1555"/>
  <unicode hex="0166"/>
  <outline>
    <contour>
      <point x="321" y="704" type="line"/>
      <point x="1234" y="704" type="line"/>
      <point x="1234" y="814" type="line"/>
      <point x="321" y="814" type="line"/>
    </contour>
    <contour>
      <point x="704" y="0" type="line"/>
      <point x="830" y="0" type="line"/>
      <point x="830" y="1460" type="line"/>
      <point x="704" y="1460" type="line"/>
    </contour>
    <contour>
      <point x="174" y="1350" type="line"/>
      <point x="1380" y="1350" type="line"/>
      <point x="1365" y="1460" type="line"/>
      <point x="189" y="1460" type="line"/>
    </contour>
  </outline>
</glyph>
<glyph name="Umacron" format="2">
  <advance width="1555"/>
  <unicode hex="016A"/>
  <outline>
    <contour>
      <point x="436" y="0" type="line"/>
      <point x="1120" y="0" type="line"/>
      <point x="1322" y="244" type="line"/>
      <point x="1322" y="1460" type="line"/>
      <point x="1196" y="1460" type="line"/>
      <point x="1196" y="295" type="line"/>
      <point x="1047" y="110" type="line"/>
      <point x="509" y="110" type="line"/>
      <point x="360" y="295" type="line"/>
      <point x="360" y="1460" type="line"/>
      <point x="234" y="1460" type="line"/>
      <point x="234" y="244" type="line"/>
    </contour>
    <contour>
      <point x="363" y="1731" type="line"/>
      <point x="1192" y="1731" type="line"/>
      <point x="1192" y="1831" type="line"/>
      <point x="363" y="1831" type="line"/>
    </contour>
  </outline>
</glyph>
<glyph name="Ubreve" format="2">
  <advance width="1555"/>
  <unicode hex="016C"/>
  <outline>
    <contour>
      <point x="436" y="0" type="line"/>
      <point x="1120" y="0" type="line"/>
      <point x="1322" y="244" type="line"/>
      <point x="1322" y="1460" type="line"/>
      <point x="1196" y="1460" type="line"/>
      <point x="1196" y="295" type="line"/>
      <point x="1047" y="110" type="line"/>
      <point x="509" y="110" type="line"/>
      <point x="360" y="295" type="line"/>
      <point x="360" y="1460" type="line"/>
      <point x="234" y="1460" type="line"/>
      <point x="234" y="244" type="line"/>
    </contour>
    <contour>
      <point x="607" y="1643" type="line"/>
      <point x="941" y="1643" type="line"/>
      <point x="1091" y="1760" type="line"/>
      <point x="1091" y="1883" type="line"/>
      <point x="1001" y="1883" type="line"/>
      <point x="1001" y="1797" type="line"/>
      <point x="901" y="1731" type="line"/>
      <point x="647" y="1731" type="line"/>
      <point x="547" y="1797" type="line"/>
      <point x="547" y="1883" type="line"/>
      <point x="457" y="1883" type="line"/>
      <point x="457" y="1759" type="line"/>
    </contour>
  </outline>
</glyph>
<glyph name="wcircumflex" format="2">
  <advance width="1555"/>
  <unicode hex="0175"/>
  <outline>
    <contour>
      <point x="477" y="0" type="line"/>
      <point x="597" y="0" type="line"/>
      <point x="804" y="498" type="line"/>
      <point x="750" y="498" type="line"/>
      <point x="957" y="0" type="line"/>
      <point x="1077" y="0" type="line"/>
      <point x="1344" y="545" type="line"/>
      <point x="1344" y="1000" type="line"/>
      <point x="1218" y="1000" type="line"/>
      <point x="1218" y="573" type="line"/>
      <point x="994" y="90" type="line"/>
      <point x="1028" y="90" type="line"/>
      <point x="834" y="577" type="line"/>
      <point x="834" y="725" type="line"/>
      <point x="720" y="725" type="line"/>
      <point x="720" y="573" type="line"/>
      <point x="526" y="90" type="line"/>
      <point x="560" y="90" type="line"/>
      <point x="336" y="577" type="line"/>
      <point x="336" y="1000" type="line"/>
      <point x="210" y="1000" type="line"/>
      <point x="210" y="545" type="line"/>
    </contour>
    <contour>
      <point x="385" y="1274" type="line"/>
      <point x="522" y="1274" type="line"/>
      <point x="807" y="1562" type="line"/>
      <point x="745" y="1562" type="line"/>
      <point x="1031" y="1274" type="line"/>
      <point x="1168" y="1274" type="line"/>
      <point x="834" y="1597" type="line"/>
      <point x="718" y="1597" type="line"/>
    </contour>
  </outline>
</glyph>
<glyph name="Ydieresis" format="2">
  <advance width="1555"/>
  <unicode hex="0178"/>
  <outline>
    <contour>
      <point x="715" y="564" type="line"/>
      <point x="841" y="564" type="line"/>
      <point x="1329" y="1079" type="line"/>
      <point x="1329" y="1460" type="line"/>
      <point x="1203" y="1460" type="line"/>
      <point x="1203" y="1115" type="line"/>
      <point x="758" y="654" type="line"/>
      <point x="798" y="654" type="line"/>
      <point x="352" y="1119" type="line"/>
      <point x="352" y="1460" type="line"/>
      <point x="226" y="1460" type="line"/>
      <point x="226" y="1079" type="line"/>
    </contour>
    <contour>
      <point x="715" y="0" type="line"/>
      <point x="841" y="0" type="line"/>
      <point x="841" y="644" type="line"/>
      <point x="715" y="644" type="line"/>
    </contour>
    <contour>
      <point x="472" y="1626" type="line"/>
      <point x="609" y="1756" type="line"/>
      <point x="472" y="1886" type="line"/>
      <point x="335" y="1756" type="line"/>
    </contour>
    <contour>
      <point x="1084" y="1626" type="line"/>
      <point x="1221" y="1756" type="line"/>
      <point x="1084" y="1886" type="line"/>
      <point x="947" y="1756" type="line"/>
    </contour>
  </outline>
</glyph>
<glyph name="Schwa" format="2">
  <advance width="1555"/>
  <unicode hex="018F"/>
  <outline>
    <contour>
      <point x="350" y="0" type="line"/>
      <point x="942" y="0" type="line"/>
      <point x="1382" y="540" type="line"/>
      <point x="1382" y="930" type="line"/>
      <point x="908" y="1460" type="line"/>
      <point x="235" y="1460" type="line"/>
      <point x="215" y="1350" type="line"/>
      <point x="842" y="1350" type="line"/>
      <point x="1256" y="900" type="line"/>
      <point x="1256" y="570" type="line"/>
      <point x="876" y="110" type="line"/>
      <point x="412" y="110" type="line"/>
      <point x="275" y="263" type="line"/>
      <point x="275" y="546" type="line"/>
      <point x="412" y="699" type="line"/>
      <point x="1326" y="699" type="line"/>
      <point x="1326" y="803" type="line"/>
      <point x="350" y="803" type="line"/>
      <point x="163" y="595" type="line"/>
      <point x="163" y="208" type="line"/>
    </contour>
  </outline>
</glyph>
<glyph name="Nhookleft" format="2">
  <advance width="1555"/>
  <unicode hex="019D"/>
  <outline>
    <contour>
      <point x="345" y="50" type="line"/>
      <point x="225" y="50" type="line"/>
      <point x="225" y="-142" type="line"/>
      <point x="107" y="-302" type="line"/>
      <point x="-28" y="-302" type="line"/>
      <point x="-8" y="-400" type="line"/>
      <point x="171" y="-400" type="line"/>
      <point x="345" y="-172" type="line"/>
    </contour>
    <contour>
      <point x="225" y="0" type="line"/>
      <point x="345" y="0" type="line"/>
      <point x="345" y="1266" type="line"/>
      <point x="357" y="1266" type="line"/>
      <point x="1167" y="1" type="line"/>
      <point x="1313" y="1" type="line"/>
      <point x="1313" y="1461" type="line"/>
      <point x="1193" y="1461" type="line"/>
      <point x="1193" y="214" type="line"/>
      <point x="1181" y="214" type="line"/>
      <point x="373" y="1460" type="line"/>
      <point x="225" y="1460" type="line"/>
    </contour>
  </outline>
</glyph>
<glyph name="aeacute" format="2">
  <advance width="1555"/>
  <unicode hex="01FD"/>
  <outline>
    <contour>
      <point x="605" y="1000" type="line"/>
      <point x="227" y="1000" type="line"/>
      <point x="207" y="902" type="line"/>
      <point x="544" y="902" type="line"/>
      <point x="713" y="753" type="line"/>
      <point x="713" y="654" type="line"/>
      <point x="819" y="654" type="line"/>
      <point x="819" y="802" type="line"/>
    </contour>
    <contour>
      <point x="283" y="586" type="line"/>
      <point x="124" y="423" type="line"/>
      <point x="124" y="208" type="line"/>
      <point x="382" y="-11" type="line"/>
      <point x="748" y="128" type="line"/>
      <point x="805" y="128" type="line"/>
      <point x="805" y="208" type="line"/>
      <point x="752" y="207" type="line"/>
      <point x="396" y="106" type="line"/>
      <point x="226" y="243" type="line"/>
      <point x="226" y="378" type="line"/>
      <point x="327" y="486" type="line"/>
      <point x="757" y="486" type="line"/>
      <point x="757" y="586" type="line"/>
    </contour>
    <contour>
      <point x="928" y="1000" type="line"/>
      <point x="713" y="803" type="line"/>
      <point x="713" y="186" type="line"/>
      <point x="994" y="0" type="line"/>
      <point x="1353" y="0" type="line"/>
      <point x="1373" y="98" type="line"/>
      <point x="1040" y="98" type="line"/>
      <point x="819" y="232" type="line"/>
      <point x="819" y="753" type="line"/>
      <point x="988" y="902" type="line"/>
      <point x="1216" y="902" type="line"/>
      <point x="1329" y="812" type="line"/>
      <point x="1329" y="674" type="line"/>
      <point x="1216" y="594" type="line"/>
      <point x="766" y="594" type="line"/>
      <point x="766" y="497" type="line"/>
      <point x="1265" y="497" type="line"/>
      <point x="1431" y="621" type="line"/>
      <point x="1431" y="855" type="line"/>
      <point x="1259" y="1000" type="line"/>
    </contour>
    <contour>
      <point x="827" y="1274" type="line"/>
      <point x="708" y="1274" type="line"/>
      <point x="980" y="1597" type="line"/>
      <point x="1133" y="1597" type="line"/>
    </contour>
  </outline>
</glyph>
<glyph name="Scommaaccent" format="2">
  <advance width="1555"/>
  <unicode hex="0218"/>
  <outline>
    <contour>
      <point x="269" y="0" type="line"/>
      <point x="1035" y="0" type="line"/>
      <point x="1292" y="289" type="line"/>
      <point x="1292" y="478" type="line"/>
      <point x="369" y="1047" type="line"/>
      <point x="369" y="1129" type="line"/>
      <point x="572" y="1362" type="line"/>
      <point x="1262" y="1362" type="line"/>
      <point x="1242" y="1460" type="line"/>
      <point x="516" y="1460" type="line"/>
      <point x="259" y="1171" type="line"/>
      <point x="259" y="982" type="line"/>
      <point x="1183" y="413" type="line"/>
      <point x="1183" y="331" type="line"/>
      <point x="980" y="98" type="line"/>
      <point x="249" y="98" type="line"/>
    </contour>
    <contour>
      <point x="684" y="-527" type="line"/>
      <point x="837" y="-527" type="line"/>
      <point x="837" y="-471" type="line"/>
      <point x="655" y="-707" type="line"/>
      <point x="730" y="-747" type="line"/>
      <point x="899" y="-527" type="line"/>
      <point x="899" y="-312" type="line"/>
      <point x="684" y="-312" type="line"/>
    </contour>
  </outline>
</glyph>
<glyph name="ymacron" format="2">
  <advance width="1555"/>
  <unicode hex="0233"/>
  <outline>
    <contour>
      <point x="355" y="-400" type="line"/>
      <point x="981" y="-400" type="line"/>
      <point x="1302" y="-112" type="line"/>
      <point x="1302" y="1000" type="line"/>
      <point x="1186" y="1000" type="line"/>
      <point x="1186" y="294" type="line"/>
      <point x="1186" y="254" type="line"/>
      <point x="1186" y="-82" type="line"/>
      <point x="925" y="-302" type="line"/>
      <point x="335" y="-302" type="line"/>
    </contour>
    <contour>
      <point x="536" y="79" type="line"/>
      <point x="1222" y="237" type="line"/>
      <point x="1222" y="320" type="line"/>
      <point x="573" y="195" type="line"/>
      <point x="338" y="366" type="line"/>
      <point x="338" y="1000" type="line"/>
      <point x="212" y="1000" type="line"/>
      <point x="212" y="323" type="line"/>
    </contour>
    <contour>
      <point x="345" y="1339" type="line"/>
      <point x="1174" y="1339" type="line"/>
      <point x="1174" y="1439" type="line"/>
      <point x="345" y="1439" type="line"/>
    </contour>
  </outline>
</glyph>
<glyph name="circumflex" format="2">
  <advance width="1555"/>
  <unicode hex="02C6"/>
  <outline>
    <contour>
      <point x="386" y="1274" type="line"/>
      <point x="523" y="1274" type="line"/>
      <point x="808" y="1562" type="line"/>
      <point x="746" y="1562" type="line"/>
      <point x="1032" y="1274" type="line"/>
      <point x="1169" y="1274" type="line"/>
      <point x="835" y="1597" type="line"/>
      <point x="719" y="1597" type="line"/>
    </contour>
  </outline>
</glyph>
<glyph name="ring" format="2">
  <advance width="1555"/>
  <unicode hex="02DA"/>
  <outline>
    <contour>
      <point x="690" y="1215" type="line"/>
      <point x="864" y="1215" type="line"/>
      <point x="1004" y="1372" type="line"/>
      <point x="1004" y="1506" type="line"/>
      <point x="864" y="1662" type="line"/>
      <point x="690" y="1662" type="line"/>
      <point x="550" y="1505" type="line"/>
      <point x="550" y="1371" type="line"/>
    </contour>
    <contour>
      <point x="644" y="1409" type="line"/>
      <point x="644" y="1468" type="line"/>
      <point x="737" y="1574" type="line"/>
      <point x="817" y="1574" type="line"/>
      <point x="910" y="1468" type="line"/>
      <point x="910" y="1409" type="line"/>
      <point x="817" y="1303" type="line"/>
      <point x="737" y="1303" type="line"/>
    </contour>
  </outline>
</glyph>
<glyph name="ogonek" format="2">
  <advance width="1555"/>
  <unicode hex="02DB"/>
  <outline>
    <contour>
      <point x="480" y="-132" type="line"/>
      <point x="480" y="-310" type="line"/>
      <point x="628" y="-400" type="line"/>
      <point x="750" y="-400" type="line"/>
      <point x="750" y="-310" type="line"/>
      <point x="659" y="-310" type="line"/>
      <point x="582" y="-262" type="line"/>
      <point x="582" y="-161" type="line"/>
      <point x="750" y="0" type="line"/>
      <point x="669" y="37" type="line"/>
    </contour>
  </outline>
</glyph>
<glyph name="hungarumlaut" format="2">
  <advance width="1555"/>
  <unicode hex="02DD"/>
  <outline>
    <contour>
      <point x="955" y="1294" type="line"/>
      <point x="1060" y="1294" type="line"/>
      <point x="1286" y="1617" type="line"/>
      <point x="1151" y="1617" type="line"/>
    </contour>
    <contour>
      <point x="463" y="1294" type="line"/>
      <point x="569" y="1294" type="line"/>
      <point x="794" y="1617" type="line"/>
      <point x="660" y="1617" type="line"/>
    </contour>
  </outline>
</glyph>
<glyph name="macroncomb" format="2">
  <unicode hex="0304"/>
  <outline>
    <contour>
      <point x="363" y="1339" type="line"/>
      <point x="1192" y="1339" type="line"/>
      <point x="1192" y="1439" type="line"/>
      <point x="363" y="1439" type="line"/>
    </contour>
  </outline>
</glyph>
<glyph name="dieresiscomb" format="2">
  <unicode hex="0308"/>
  <outline>
    <contour>
      <point x="471" y="1276" type="line"/>
      <point x="608" y="1406" type="line"/>
      <point x="471" y="1536" type="line"/>
      <point x="334" y="1406" type="line"/>
    </contour>
    <contour>
      <point x="1083" y="1276" type="line"/>
      <point x="1220" y="1406" type="line"/>
      <point x="1083" y="1536" type="line"/>
      <point x="946" y="1406" type="line"/>
    </contour>
  </outline>
</glyph>
<glyph name="hungarumlautcomb" format="2">
  <unicode hex="030B"/>
  <outline>
    <contour>
      <point x="955" y="1294" type="line"/>
      <point x="1060" y="1294" type="line"/>
      <point x="1286" y="1617" type="line"/>
      <point x="1151" y="1617" type="line"/>
    </contour>
    <contour>
      <point x="463" y="1294" type="line"/>
      <point x="569" y="1294" type="line"/>
      <point x="794" y="1617" type="line"/>
      <point x="660" y="1617" type="line"/>
    </contour>
  </outline>
</glyph>
<glyph name="dotbelowcomb" format="2">
  <unicode hex="0323"/>
  <outline>
    <contour>
      <point x="777" y="-546" type="line"/>
      <point x="914" y="-416" type="line"/>
      <point x="777" y="-286" type="line"/>
      <point x="640" y="-416" type="line"/>
    </contour>
  </outline>
</glyph>
<glyph name="commaaccentcomb" format="2">
  <unicode hex="0326"/>
  <outline>
    <contour>
      <point x="685" y="-527" type="line"/>
      <point x="838" y="-527" type="line"/>
      <point x="838" y="-471" type="line"/>
      <point x="656" y="-707" type="line"/>
      <point x="731" y="-747" type="line"/>
      <point x="900" y="-527" type="line"/>
      <point x="900" y="-312" type="line"/>
      <point x="685" y="-312" type="line"/>
    </contour>
  </outline>
</glyph>
<glyph name="cedillacomb" format="2">
  <unicode hex="0327"/>
  <outline>
    <contour>
      <point x="623" y="-565" type="line"/>
      <point x="867" y="-565" type="line"/>
      <point x="1063" y="-455" type="line"/>
      <point x="1063" y="-279" type="line"/>
      <point x="866" y="-169" type="line"/>
      <point x="788" y="-169" type="line"/>
      <point x="807" y="-191" type="line"/>
      <point x="807" y="48" type="line"/>
      <point x="713" y="48" type="line"/>
      <point x="713" y="-259" type="line"/>
      <point x="839" y="-259" type="line"/>
      <point x="975" y="-329" type="line"/>
      <point x="975" y="-405" type="line"/>
      <point x="839" y="-475" type="line"/>
      <point x="623" y="-475" type="line"/>
    </contour>
  </outline>
</glyph>
<glyph name="ogonekcomb" format="2">
  <unicode hex="0328"/>
  <outline>
    <contour>
      <point x="480" y="-132" type="line"/>
      <point x="480" y="-310" type="line"/>
      <point x="628" y="-400" type="line"/>
      <point x="750" y="-400" type="line"/>
      <point x="750" y="-310" type="line"/>
      <point x="659" y="-310" type="line"/>
      <point x="582" y="-262" type="line"/>
      <point x="582" y="-161" type="line"/>
      <point x="750" y="0" type="line"/>
      <point x="669" y="37" type="line"/>
    </contour>
  </outline>
</glyph>
<glyph name="Germandbls" format="2">
  <advance width="1555"/>
  <unicode hex="1E9E"/>
  <outline>
    <contour>
      <point x="1276" y="1460" type="line"/>
      <point x="252" y="1460" type="line"/>
      <point x="252" y="0" type="line"/>
      <point x="378" y="0" type="line"/>
      <point x="378" y="1405" type="line"/>
      <point x="333" y="1360" type="line"/>
      <point x="1183" y="1360" type="line"/>
      <point x="1162" y="1403" type="line"/>
      <point x="928" y="887" type="line"/>
      <point x="928" y="787" type="line"/>
      <point x="1254" y="563" type="line"/>
      <point x="1254" y="319" type="line"/>
      <point x="993" y="100" type="line"/>
      <point x="661" y="100" type="line"/>
      <point x="661" y="0" type="line"/>
      <point x="1058" y="0" type="line"/>
      <point x="1380" y="280" type="line"/>
      <point x="1380" y="598" type="line"/>
      <point x="987" y="880" type="line"/>
      <point x="1007" y="796" type="line"/>
      <point x="1276" y="1390" type="line"/>
    </contour>
  </outline>
</glyph>
<glyph name="Idotbelow" format="2">
  <advance width="1555"/>
  <unicode hex="1ECA"/>
  <outline>
    <contour>
      <point x="705" y="0" type="line"/>
      <point x="831" y="0" type="line"/>
      <point x="831" y="1460" type="line"/>
      <point x="705" y="1460" type="line"/>
    </contour>
    <contour>
      <point x="228" y="0" type="line"/>
      <point x="1328" y="0" type="line"/>
      <point x="1348" y="110" type="line"/>
      <point x="208" y="110" type="line"/>
    </contour>
    <contour>
      <point x="208" y="1350" type="line"/>
      <point x="1348" y="1350" type="line"/>
      <point x="1328" y="1460" type="line"/>
      <point x="228" y="1460" type="line"/>
    </contour>
    <contour>
      <point x="779" y="-546" type="line"/>
      <point x="916" y="-416" type="line"/>
      <point x="779" y="-286" type="line"/>
      <point x="642" y="-416" type="line"/>
    </contour>
  </outline>
</glyph>
<glyph name="idotbelow" format="2">
  <advance width="1555"/>
  <unicode hex="1ECB"/>
  <outline>
    <contour>
      <point x="777" y="0" type="line"/>
      <point x="901" y="0" type="line"/>
      <point x="901" y="935" type="line"/>
      <point x="840" y="1000" type="line"/>
      <point x="292" y="1000" type="line"/>
      <point x="272" y="902" type="line"/>
      <point x="823" y="902" type="line"/>
      <point x="777" y="938" type="line"/>
    </contour>
    <contour>
      <point x="776" y="1276" type="line"/>
      <point x="913" y="1406" type="line"/>
      <point x="776" y="1536" type="line"/>
      <point x="639" y="1406" type="line"/>
    </contour>
    <contour>
      <point x="840" y="-546" type="line"/>
      <point x="977" y="-416" type="line"/>
      <point x="840" y="-286" type="line"/>
      <point x="703" y="-416" type="line"/>
    </contour>
  </outline>
</glyph>
<glyph name="Odotbelow" format="2">
  <advance width="1555"/>
  <unicode hex="1ECC"/>
  <outline>
    <contour>
      <point x="649" y="0" type="line"/>
      <point x="907" y="0" type="line"/>
      <point x="1404" y="540" type="line"/>
      <point x="1404" y="930" type="line"/>
      <point x="910" y="1460" type="line"/>
      <point x="649" y="1460" type="line"/>
      <point x="151" y="930" type="line"/>
      <point x="151" y="540" type="line"/>
    </contour>
    <contour>
      <point x="708" y="110" type="line"/>
      <point x="277" y="581" type="line"/>
      <point x="277" y="889" type="line"/>
      <point x="708" y="1350" type="line"/>
      <point x="847" y="1350" type="line"/>
      <point x="1278" y="889" type="line"/>
      <point x="1278" y="581" type="line"/>
      <point x="847" y="110" type="line"/>
    </contour>
    <contour>
      <point x="778" y="-546" type="line"/>
      <point x="915" y="-416" type="line"/>
      <point x="778" y="-286" type="line"/>
      <point x="641" y="-416" type="line"/>
    </contour>
  </outline>
</glyph>
<glyph name="odotbelow" format="2">
  <advance width="1555"/>
  <unicode hex="1ECD"/>
  <outline>
    <contour>
      <point x="655" y="0" type="line"/>
      <point x="899" y="0" type="line"/>
      <point x="1385" y="337" type="line"/>
      <point x="1385" y="663" type="line"/>
      <point x="899" y="1000" type="line"/>
      <point x="655" y="1000" type="line"/>
      <point x="170" y="663" type="line"/>
      <point x="170" y="337" type="line"/>
    </contour>
    <contour>
      <point x="693" y="98" type="line"/>
      <point x="286" y="384" type="line"/>
      <point x="286" y="616" type="line"/>
      <point x="693" y="902" type="line"/>
      <point x="861" y="902" type="line"/>
      <point x="1269" y="616" type="line"/>
      <point x="1269" y="384" type="line"/>
      <point x="861" y="98" type="line"/>
    </contour>
    <contour>
      <point x="778" y="-546" type="line"/>
      <point x="915" y="-416" type="line"/>
      <point x="778" y="-286" type="line"/>
      <point x="641" y="-416" type="line"/>
    </contour>
  </outline>
</glyph>
<glyph name="Ygrave" format="2">
  <advance width="1555"/>
  <unicode hex="1EF2"/>
  <outline>
    <contour>
      <point x="715" y="564" type="line"/>
      <point x="841" y="564" type="line"/>
      <point x="1329" y="1079" type="line"/>
      <point x="1329" y="1460" type="line"/>
      <point x="1203" y="1460" type="line"/>
      <point x="1203" y="1115" type="line"/>
      <point x="758" y="654" type="line"/>
      <point x="798" y="654" type="line"/>
      <point x="352" y="1119" type="line"/>
      <point x="352" y="1460" type="line"/>
      <point x="226" y="1460" type="line"/>
      <point x="226" y="1079" type="line"/>
    </contour>
    <contour>
      <point x="715" y="0" type="line"/>
      <point x="841" y="0" type="line"/>
      <point x="841" y="644" type="line"/>
      <point x="715" y="644" type="line"/>
    </contour>
    <contour>
      <point x="728" y="1652.076" type="line"/>
      <point x="847" y="1652.076" type="line"/>
      <point x="575" y="1883.57" type="line"/>
      <point x="422" y="1883.57" type="line"/>
    </contour>
  </outline>
</glyph>
<glyph name="emdash" format="2">
  <advance width="1555"/>
  <unicode hex="2014"/>
  <outline>
    <contour>
      <point x="0" y="591" type="line"/>
      <point x="1555" y="591" type="line"/>
      <point x="1555" y="701" type="line"/>
      <point x="0" y="701" type="line"/>
    </contour>
  </outline>
</glyph>
<glyph name="quoteleft" format="2">
  <advance width="1555"/>
  <unicode hex="2018"/>
  <outline>
    <contour>
      <point x="620" y="1108" type="curve" smooth="yes"/>
      <point x="598" y="1108"/>
      <point x="572" y="1105"/>
      <point x="543" y="1093" type="curve"/>
      <point x="563" y="1071" type="line"/>
      <point x="586" y="1194"/>
      <point x="665" y="1309"/>
      <point x="791" y="1434" type="curve"/>
      <point x="721" y="1494" type="line"/>
      <point x="580" y="1369"/>
      <point x="451" y="1188"/>
      <point x="451" y="1005" type="curve" smooth="yes"/>
      <point x="451" y="860"/>
      <point x="532" y="797"/>
      <point x="626" y="797" type="curve" smooth="yes"/>
      <point x="713" y="797"/>
      <point x="784" y="851"/>
      <point x="784" y="951" type="curve" smooth="yes"/>
      <point x="784" y="1047"/>
      <point x="719" y="1108"/>
    </contour>
  </outline>
</glyph>
<glyph name="daggerdbl" format="2">
  <advance width="1555"/>
  <unicode hex="2021"/>
  <outline>
    <contour>
      <point x="841" y="-200" type="line"/>
      <point x="841" y="1460" type="line"/>
      <point x="715" y="1460" type="line"/>
      <point x="715" y="-200" type="line"/>
    </contour>
    <contour>
      <point x="295" y="900" type="line"/>
      <point x="1261" y="900" type="line"/>
      <point x="1261" y="1010" type="line"/>
      <point x="295" y="1010" type="line"/>
    </contour>
    <contour>
      <point x="295" y="250" type="line"/>
      <point x="1261" y="250" type="line"/>
      <point x="1261" y="360" type="line"/>
      <point x="295" y="360" type="line"/>
    </contour>
  </outline>
</glyph>
<glyph name="triangularbullet" format="2">
  <advance width="1555"/>
  <unicode hex="2023"/>
  <outline>
    <contour>
      <point x="562" y="950" type="line"/>
      <point x="562" y="339" type="line"/>
      <point x="1096" y="645" type="line"/>
    </contour>
  </outline>
</glyph>
<glyph name="guilsinglleft" format="2">
  <advance width="1555"/>
  <unicode hex="2039"/>
  <outline>
    <contour>
      <point x="985" y="47" type="line"/>
      <point x="568" y="542" type="line"/>
      <point x="460" y="500" type="line"/>
      <point x="901" y="-24" type="line"/>
    </contour>
    <contour>
      <point x="901" y="1024" type="line"/>
      <point x="460" y="500" type="line"/>
      <point x="567" y="461" type="line"/>
      <point x="985" y="953" type="line"/>
    </contour>
  </outline>
</glyph>
<glyph name="guilsinglright" format="2">
  <advance width="1555"/>
  <unicode hex="203A"/>
  <outline>
    <contour>
      <point x="570" y="953" type="line"/>
      <point x="987" y="458" type="line"/>
      <point x="1095" y="500" type="line"/>
      <point x="654" y="1024" type="line"/>
    </contour>
    <contour>
      <point x="654" y="-24" type="line"/>
      <point x="1095" y="500" type="line"/>
      <point x="988" y="539" type="line"/>
      <point x="570" y="47" type="line"/>
    </contour>
  </outline>
</glyph>
<glyph name="sixsuperior" format="2">
  <advance width="1555"/>
  <unicode hex="2076"/>
  <outline>
    <contour>
      <point x="789" y="1664" type="curve" smooth="yes"/>
      <point x="651" y="1664"/>
      <point x="549" y="1598"/>
      <point x="549" y="1380" type="curve" smooth="yes"/>
      <point x="549" y="1153"/>
      <point x="643" y="1091"/>
      <point x="777" y="1091" type="curve" smooth="yes"/>
      <point x="924" y="1091"/>
      <point x="1006" y="1145"/>
      <point x="1006" y="1273" type="curve" smooth="yes"/>
      <point x="1006" y="1390"/>
      <point x="933" y="1438"/>
      <point x="816" y="1438" type="curve" smooth="yes"/>
      <point x="704" y="1438"/>
      <point x="637" y="1366"/>
      <point x="605" y="1336" type="curve"/>
      <point x="612" y="1284" type="line"/>
      <point x="648" y="1324"/>
      <point x="715" y="1372"/>
      <point x="795" y="1372" type="curve" smooth="yes"/>
      <point x="863" y="1372"/>
      <point x="907" y="1338"/>
      <point x="907" y="1273" type="curve" smooth="yes"/>
      <point x="907" y="1202"/>
      <point x="856" y="1170"/>
      <point x="780" y="1170" type="curve" smooth="yes"/>
      <point x="702" y="1170"/>
      <point x="651" y="1215"/>
      <point x="651" y="1373" type="curve" smooth="yes"/>
      <point x="651" y="1542"/>
      <point x="707" y="1587"/>
      <point x="785" y="1587" type="curve" smooth="yes"/>
      <point x="855" y="1587"/>
      <point x="892" y="1565"/>
      <point x="901" y="1505" type="curve"/>
      <point x="994" y="1513" type="line"/>
      <point x="992" y="1617"/>
      <point x="904" y="1664"/>
    </contour>
  </outline>
</glyph>
<glyph name="sixinferior" format="2">
  <advance width="1555"/>
  <unicode hex="2086"/>
  <outline>
    <contour>
      <point x="789" y="284" type="curve" smooth="yes"/>
      <point x="651" y="284"/>
      <point x="549" y="218"/>
      <point x="549" y="0" type="curve" smooth="yes"/>
      <point x="549" y="-227"/>
      <point x="643" y="-289"/>
      <point x="777" y="-289" type="curve" smooth="yes"/>
      <point x="924" y="-289"/>
      <point x="1006" y="-235"/>
      <point x="1006" y="-107" type="curve" smooth="yes"/>
      <point x="1006" y="10"/>
      <point x="933" y="58"/>
      <point x="816" y="58" type="curve" smooth="yes"/>
      <point x="704" y="58"/>
      <point x="637" y="-14"/>
      <point x="605" y="-44" type="curve"/>
      <point x="612" y="-96" type="line"/>
      <point x="648" y="-56"/>
      <point x="715" y="-8"/>
      <point x="795" y="-8" type="curve" smooth="yes"/>
      <point x="863" y="-8"/>
      <point x="907" y="-42"/>
      <point x="907" y="-107" type="curve" smooth="yes"/>
      <point x="907" y="-178"/>
      <point x="856" y="-210"/>
      <point x="780" y="-210" type="curve" smooth="yes"/>
      <point x="702" y="-210"/>
      <point x="651" y="-165"/>
      <point x="651" y="-7" type="curve" smooth="yes"/>
      <point x="651" y="162"/>
      <point x="707" y="207"/>
      <point x="785" y="207" type="curve" smooth="yes"/>
      <point x="855" y="207"/>
      <point x="892" y="185"/>
      <point x="901" y="125" type="curve"/>
      <point x="994" y="133" type="line"/>
      <point x="992" y="237"/>
      <point x="904" y="284"/>
    </contour>
  </outline>
</glyph>
<glyph name="seveninferior" format="2">
  <advance width="1555"/>
  <unicode hex="2087"/>
  <outline>
    <contour>
      <point x="567" y="275" type="line"/>
      <point x="567" y="195" type="line"/>
      <point x="932" y="195" type="line"/>
      <point x="897" y="222" type="line"/>
      <point x="673" y="-280" type="line"/>
      <point x="775" y="-280" type="line"/>
      <point x="993" y="215" type="line"/>
      <point x="993" y="275" type="line"/>
    </contour>
  </outline>
</glyph>
<glyph name="peso" format="2">
  <advance width="1555"/>
  <unicode hex="20B1"/>
  <outline>
    <contour>
      <point x="443" y="0" type="line"/>
      <point x="443" y="1460" type="line"/>
      <point x="317" y="1460" type="line"/>
      <point x="317" y="0" type="line"/>
    </contour>
    <contour>
      <point x="390" y="625" type="line"/>
      <point x="390" y="516" type="line"/>
      <point x="708" y="516" type="line" smooth="yes"/>
      <point x="1101" y="516"/>
      <point x="1263" y="733"/>
      <point x="1263" y="1031" type="curve" smooth="yes"/>
      <point x="1263" y="1329"/>
      <point x="1098" y="1460"/>
      <point x="736" y="1460" type="curve" smooth="yes"/>
      <point x="406" y="1460" type="line"/>
      <point x="406" y="1350" type="line"/>
      <point x="727" y="1350" type="line" smooth="yes"/>
      <point x="1012" y="1350"/>
      <point x="1135" y="1253"/>
      <point x="1135" y="1020" type="curve" smooth="yes"/>
      <point x="1135" y="787"/>
      <point x="1012" y="625"/>
      <point x="697" y="625" type="curve" smooth="yes"/>
    </contour>
    <contour>
      <point x="1475" y="1078" type="line"/>
      <point x="1475" y="1187" type="line"/>
      <point x="80" y="1187" type="line"/>
      <point x="80" y="1078" type="line"/>
    </contour>
    <contour>
      <point x="1475" y="788" type="line"/>
      <point x="1475" y="897" type="line"/>
      <point x="80" y="897" type="line"/>
      <point x="80" y="788" type="line"/>
    </contour>
  </outline>
</glyph>
<glyph name="bitcoin" format="2">
  <advance width="1555"/>
  <unicode hex="20BF"/>
  <outline>
    <contour>
      <point x="930" y="1410" type="line"/>
      <point x="1039" y="1410" type="line"/>
      <point x="1039" y="1775" type="line"/>
      <point x="930" y="1775" type="line"/>
    </contour>
    <contour>
      <point x="459" y="1410" type="line"/>
      <point x="568" y="1410" type="line"/>
      <point x="568" y="1775" type="line"/>
      <point x="459" y="1775" type="line"/>
    </contour>
    <contour>
      <point x="946" y="-315" type="line"/>
      <point x="1055" y="-315" type="line"/>
      <point x="1055" y="50" type="line"/>
      <point x="946" y="50" type="line"/>
    </contour>
    <contour>
      <point x="475" y="-315" type="line"/>
      <point x="584" y="-315" type="line"/>
      <point x="584" y="50" type="line"/>
      <point x="475" y="50" type="line"/>
    </contour>
    <contour>
      <point x="377" y="0" type="line"/>
      <point x="377" y="1460" type="line"/>
      <point x="251" y="1460" type="line"/>
      <point x="251" y="0" type="line"/>
    </contour>
    <contour>
      <point x="838" y="1460" type="curve"/>
      <point x="336" y="1460" type="line"/>
      <point x="336" y="1350" type="line"/>
      <point x="774" y="1350" type="line" smooth="yes"/>
      <point x="1079" y="1350"/>
      <point x="1172" y="1260"/>
      <point x="1172" y="1125" type="curve" smooth="yes"/>
      <point x="1172" y="940"/>
      <point x="1039" y="825"/>
      <point x="774" y="825" type="curve"/>
      <point x="283" y="825" type="line"/>
      <point x="284" y="718" type="line"/>
      <point x="774" y="718" type="line"/>
      <point x="1061" y="718"/>
      <point x="1265" y="657"/>
      <point x="1265" y="412" type="curve" smooth="yes"/>
      <point x="1265" y="201"/>
      <point x="1112" y="110"/>
      <point x="774" y="110" type="curve" smooth="yes"/>
      <point x="336" y="110" type="line"/>
      <point x="336" y="0" type="line"/>
      <point x="792" y="0" type="line" smooth="yes"/>
      <point x="1212" y="0"/>
      <point x="1396" y="163"/>
      <point x="1396" y="416" type="curve" smooth="yes"/>
      <point x="1396" y="689"/>
      <point x="1157" y="759"/>
      <point x="999" y="777" type="curve"/>
      <point x="999" y="784" type="line"/>
      <point x="1112" y="809"/>
      <point x="1305" y="917"/>
      <point x="1305" y="1151" type="curve" smooth="yes"/>
      <point x="1305" y="1345"/>
      <point x="1157" y="1460"/>
    </contour>
  </outline>
</glyph>
<glyph name="numero" format="2">
  <advance width="1555"/>
  <unicode hex="2116"/>
  <outline>
    <contour>
      <point x="668" y="0" type="line"/>
      <point x="815" y="0" type="line"/>
      <point x="815" y="1460" type="line"/>
      <point x="699" y="1460" type="line"/>
      <point x="699" y="283" type="line"/>
      <point x="683" y="283" type="line"/>
      <point x="269" y="1460" type="line"/>
      <point x="120" y="1460" type="line"/>
      <point x="120" y="0" type="line"/>
      <point x="236" y="0" type="line"/>
      <point x="236" y="1189" type="line"/>
      <point x="252" y="1189" type="line"/>
    </contour>
    <contour>
      <point x="1520" y="1079" type="curve" smooth="yes"/>
      <point x="1520" y="1337"/>
      <point x="1411" y="1484"/>
      <point x="1244" y="1484" type="curve" smooth="yes"/>
      <point x="1077" y="1484"/>
      <point x="970" y="1337"/>
      <point x="970" y="1079" type="curve" smooth="yes"/>
      <point x="970" y="819"/>
      <point x="1077" y="673"/>
      <point x="1244" y="673" type="curve" smooth="yes"/>
      <point x="1411" y="673"/>
      <point x="1520" y="819"/>
    </contour>
    <contour>
      <point x="1420" y="1079" type="curve" smooth="yes"/>
      <point x="1420" y="893"/>
      <point x="1354" y="789"/>
      <point x="1245" y="789" type="curve" smooth="yes"/>
      <point x="1136" y="789"/>
      <point x="1071" y="893"/>
      <point x="1071" y="1079" type="curve" smooth="yes"/>
      <point x="1071" y="1264"/>
      <point x="1136" y="1368"/>
      <point x="1245" y="1368" type="curve" smooth="yes"/>
      <point x="1354" y="1368"/>
      <point x="1420" y="1264"/>
    </contour>
    <contour>
      <point x="1245" y="248" type="curve" smooth="yes"/>
      <point x="1320" y="248"/>
      <point x="1381" y="297"/>
      <point x="1381" y="380" type="curve" smooth="yes"/>
      <point x="1381" y="463"/>
      <point x="1320" y="512"/>
      <point x="1245" y="512" type="curve" smooth="yes"/>
      <point x="1170" y="512"/>
      <point x="1110" y="463"/>
      <point x="1110" y="380" type="curve" smooth="yes"/>
      <point x="1110" y="297"/>
      <point x="1170" y="248"/>
    </contour>
  </outline>
</glyph>
<glyph name="trademark" format="2">
  <advance width="1555"/>
  <unicode hex="2122"/>
  <outline>
    <contour>
      <point x="437" y="862" type="line"/>
      <point x="437" y="1530" type="line"/>
      <point x="342" y="1530" type="line"/>
      <point x="342" y="862" type="line"/>
    </contour>
    <contour>
      <point x="106" y="1443" type="line"/>
      <point x="672" y="1443" type="line"/>
      <point x="672" y="1530" type="line"/>
      <point x="106" y="1530" type="line"/>
    </contour>
    <contour>
      <point x="800" y="1530" type="line"/>
      <point x="800" y="862" type="line"/>
      <point x="895" y="862" type="line"/>
      <point x="895" y="1349" type="line"/>
      <point x="900" y="1349" type="line"/>
      <point x="1083" y="1029" type="line"/>
      <point x="1119" y="1029" type="line"/>
      <point x="1300" y="1349" type="line"/>
      <point x="1305" y="1349" type="line"/>
      <point x="1305" y="862" type="line"/>
      <point x="1400" y="862" type="line"/>
      <point x="1400" y="1530" type="line"/>
      <point x="1302" y="1530" type="line"/>
      <point x="1107" y="1182" type="line"/>
      <point x="1101" y="1182" type="line"/>
      <point x="901" y="1530" type="line"/>
    </contour>
  </outline>
</glyph>
<glyph name="fiveeighths" format="2">
  <advance width="1555"/>
  <unicode hex="215D"/>
  <outline>
    <contour>
      <point x="249" y="1460" type="line"/>
      <point x="209" y="1163" type="line"/>
      <point x="297" y="1150" type="line"/>
      <point x="328" y="1179"/>
      <point x="374" y="1197"/>
      <point x="424" y="1197" type="curve" smooth="yes"/>
      <point x="504" y="1197"/>
      <point x="547" y="1156"/>
      <point x="547" y="1085" type="curve" smooth="yes"/>
      <point x="547" y="1001"/>
      <point x="502" y="975"/>
      <point x="423" y="975" type="curve" smooth="yes"/>
      <point x="350" y="975"/>
      <point x="306" y="993"/>
      <point x="294" y="1069" type="curve"/>
      <point x="199" y="1060" type="line"/>
      <point x="201" y="949"/>
      <point x="280" y="896"/>
      <point x="423" y="896" type="curve" smooth="yes"/>
      <point x="566" y="896"/>
      <point x="646" y="953"/>
      <point x="646" y="1083" type="curve" smooth="yes"/>
      <point x="646" y="1195"/>
      <point x="570" y="1260"/>
      <point x="441" y="1260" type="curve" smooth="yes"/>
      <point x="380" y="1260"/>
      <point x="335" y="1248"/>
      <point x="295" y="1227" type="curve"/>
      <point x="305" y="1214" type="line"/>
      <point x="335" y="1407" type="line"/>
      <point x="310" y="1380" type="line"/>
      <point x="612" y="1380" type="line"/>
      <point x="612" y="1460" type="line"/>
    </contour>
    <contour>
      <point x="1200" y="1214" type="line"/>
      <point x="286" y="300" type="line"/>
      <point x="356" y="230" type="line"/>
      <point x="1270" y="1144" type="line"/>
    </contour>
    <contour>
      <point x="1088" y="564" type="curve" smooth="yes"/>
      <point x="964" y="564"/>
      <point x="876" y="522"/>
      <point x="876" y="416" type="curve" smooth="yes"/>
      <point x="876" y="342"/>
      <point x="938" y="290"/>
      <point x="1047" y="252" type="curve" smooth="yes"/>
      <point x="1154" y="215"/>
      <point x="1216" y="194"/>
      <point x="1216" y="145" type="curve" smooth="yes"/>
      <point x="1216" y="98"/>
      <point x="1169" y="69"/>
      <point x="1091" y="69" type="curve" smooth="yes"/>
      <point x="1015" y="69"/>
      <point x="952" y="86"/>
      <point x="952" y="152" type="curve" smooth="yes"/>
      <point x="952" y="223"/>
      <point x="1035" y="251"/>
      <point x="1094" y="272" type="curve"/>
      <point x="1051" y="302" type="line"/>
      <point x="931" y="276"/>
      <point x="856" y="227"/>
      <point x="856" y="145" type="curve" smooth="yes"/>
      <point x="856" y="38"/>
      <point x="933" y="-9"/>
      <point x="1088" y="-9" type="curve" smooth="yes"/>
      <point x="1233" y="-9"/>
      <point x="1318" y="40"/>
      <point x="1318" y="151" type="curve" smooth="yes"/>
      <point x="1318" y="233"/>
      <point x="1240" y="280"/>
      <point x="1118" y="317" type="curve" smooth="yes"/>
      <point x="1016" y="348"/>
      <point x="971" y="378"/>
      <point x="971" y="420" type="curve" smooth="yes"/>
      <point x="971" y="468"/>
      <point x="1017" y="487"/>
      <point x="1086" y="487" type="curve" smooth="yes"/>
      <point x="1160" y="487"/>
      <point x="1208" y="464"/>
      <point x="1208" y="411" type="curve" smooth="yes"/>
      <point x="1208" y="347"/>
      <point x="1132" y="323"/>
      <point x="1071" y="302" type="curve"/>
      <point x="1125" y="267" type="line"/>
      <point x="1207" y="289"/>
      <point x="1299" y="326"/>
      <point x="1299" y="418" type="curve" smooth="yes"/>
      <point x="1299" y="520"/>
      <point x="1206" y="564"/>
    </contour>
  </outline>
</glyph>
<glyph name="leftArrow" format="2">
  <advance width="1555"/>
  <unicode hex="2190"/>
  <outline>
    <contour>
      <point x="260" y="730" type="line"/>
      <point x="763" y="224" type="line"/>
      <point x="844" y="305" type="line"/>
      <point x="392" y="755" type="line"/>
      <point x="392" y="704" type="line"/>
      <point x="844" y="1154" type="line"/>
      <point x="763" y="1235" type="line"/>
    </contour>
    <contour>
      <point x="375" y="671" type="line"/>
      <point x="1268" y="671" type="line"/>
      <point x="1268" y="789" type="line"/>
      <point x="375" y="789" type="line"/>
    </contour>
    <contour>
      <point x="454" y="888" type="line"/>
      <point x="389" y="730" type="line"/>
      <point x="455" y="572" type="line"/>
      <point x="516" y="730" type="line"/>
    </contour>
  </outline>
</glyph>
<glyph name="rightArrow" format="2">
  <advance width="1555"/>
  <unicode hex="2192"/>
  <outline>
    <contour>
      <point x="1295" y="730" type="line"/>
      <point x="792" y="1236" type="line"/>
      <point x="711" y="1155" type="line"/>
      <point x="1163" y="705" type="line"/>
      <point x="1163" y="756" type="line"/>
      <point x="711" y="306" type="line"/>
      <point x="792" y="225" type="line"/>
    </contour>
    <contour>
      <point x="1180" y="789" type="line"/>
      <point x="287" y="789" type="line"/>
      <point x="287" y="671" type="line"/>
      <point x="1180" y="671" type="line"/>
    </contour>
    <contour>
      <point x="1101" y="572" type="line"/>
      <point x="1166" y="730" type="line"/>
      <point x="1100" y="888" type="line"/>
      <point x="1039" y="730" type="line"/>
    </contour>
  </outline>
</glyph>
<glyph name="northEastArrow" format="2">
  <advance width="1555"/>
  <unicode hex="2197"/>
  <outline>
    <contour>
      <point x="1141" y="1093" type="line"/>
      <point x="428" y="1095" type="line"/>
      <point x="428" y="981" type="line"/>
      <point x="1066" y="982" type="line"/>
      <point x="1030" y="1018" type="line"/>
      <point x="1028" y="380" type="line"/>
      <point x="1143" y="380" type="line"/>
    </contour>
    <contour>
      <point x="1018" y="1053" type="line"/>
      <point x="387" y="422" type="line"/>
      <point x="470" y="339" type="line"/>
      <point x="1102" y="970" type="line"/>
    </contour>
    <contour>
      <point x="1116" y="844" type="line"/>
      <point x="1050" y="1002" type="line"/>
      <point x="892" y="1067" type="line"/>
      <point x="960" y="912" type="line"/>
    </contour>
  </outline>
</glyph>
<glyph name="rightHookArrow" format="2">
  <advance width="1555"/>
  <unicode hex="21AA"/>
  <outline>
    <contour>
      <point x="1375" y="451" type="line"/>
      <point x="922" y="906" type="line"/>
      <point x="841" y="825" type="line"/>
      <point x="1244" y="426" type="line"/>
      <point x="1244" y="476" type="line"/>
      <point x="841" y="77" type="line"/>
      <point x="922" y="-4" type="line"/>
    </contour>
    <contour>
      <point x="1182" y="609" type="line"/>
      <point x="1122" y="451" type="line"/>
      <point x="1181" y="293" type="line"/>
      <point x="1244" y="451" type="line"/>
    </contour>
    <contour>
      <point x="351" y="838" type="curve" smooth="yes"/>
      <point x="351" y="1067"/>
      <point x="460" y="1164"/>
      <point x="677" y="1164" type="curve" smooth="yes"/>
      <point x="1289" y="1164" type="line"/>
      <point x="1289" y="1282" type="line"/>
      <point x="719" y="1282" type="line" smooth="yes"/>
      <point x="376" y="1282"/>
      <point x="230" y="1164"/>
      <point x="230" y="838" type="curve" smooth="yes"/>
      <point x="230" y="512"/>
      <point x="376" y="392"/>
      <point x="719" y="392" type="curve" smooth="yes"/>
      <point x="1199" y="392" type="line"/>
      <point x="1199" y="510" type="line"/>
      <point x="677" y="510" type="line" smooth="yes"/>
      <point x="460" y="510"/>
      <point x="351" y="609"/>
    </contour>
  </outline>
</glyph>
<glyph name="universal" format="2">
  <advance width="1555"/>
  <unicode hex="2200"/>
  <outline>
    <contour>
      <point x="90" y="1000" type="line"/>
      <point x="719" y="0" type="line"/>
      <point x="837" y="0" type="line"/>
      <point x="1466" y="1000" type="line"/>
      <point x="1342" y="1000" type="line"/>
      <point x="784" y="117" type="line"/>
      <point x="773" y="117" type="line"/>
      <point x="216" y="1000" type="line"/>
    </contour>
    <contour>
      <point x="1196" y="737" type="line"/>
      <point x="365" y="737" type="line"/>
      <point x="365" y="632" type="line"/>
      <point x="1196" y="632" type="line"/>
    </contour>
  </outline>
</glyph>
<glyph name="existential" format="2">
  <advance width="1555"/>
  <unicode hex="2203"/>
  <outline>
    <contour>
      <point x="295" y="0" type="line"/>
      <point x="1338" y="0" type="line"/>
      <point x="1338" y="1460" type="line"/>
      <point x="295" y="1460" type="line"/>
      <point x="295" y="1350" type="line"/>
      <point x="1257" y="1350" type="line"/>
      <point x="1212" y="1395" type="line"/>
      <point x="1212" y="754" type="line"/>
      <point x="1257" y="799" type="line"/>
      <point x="418" y="799" type="line"/>
      <point x="418" y="694" type="line"/>
      <point x="1257" y="694" type="line"/>
      <point x="1212" y="739" type="line"/>
      <point x="1212" y="65" type="line"/>
      <point x="1257" y="110" type="line"/>
      <point x="295" y="110" type="line"/>
    </contour>
  </outline>
</glyph>
<glyph name="increment" format="2">
  <advance width="1555"/>
  <unicode hex="2206"/>
  <outline>
    <contour>
      <point x="1421" y="110" type="line"/>
      <point x="847" y="1460" type="line"/>
      <point x="709" y="1460" type="line"/>
      <point x="136" y="110" type="line"/>
      <point x="265" y="71" type="line"/>
      <point x="265" y="120" type="line"/>
      <point x="772" y="1309" type="line"/>
      <point x="783" y="1309" type="line"/>
      <point x="1287" y="120" type="line"/>
      <point x="1287" y="68" type="line"/>
    </contour>
    <contour>
      <point x="135" y="0" type="line"/>
      <point x="1421" y="0" type="line"/>
      <point x="1421" y="110" type="line"/>
      <point x="136" y="110" type="line"/>
    </contour>
  </outline>
</glyph>
<glyph name="gradient" format="2">
  <advance width="1555"/>
  <unicode hex="2207"/>
  <outline>
    <contour>
      <point x="135" y="1351" type="line"/>
      <point x="709" y="1" type="line"/>
      <point x="847" y="1" type="line"/>
      <point x="1420" y="1351" type="line"/>
      <point x="1291" y="1390" type="line"/>
      <point x="1291" y="1341" type="line"/>
      <point x="784" y="152" type="line"/>
      <point x="773" y="152" type="line"/>
      <point x="269" y="1341" type="line"/>
      <point x="269" y="1393" type="line"/>
    </contour>
    <contour>
      <point x="1421" y="1461" type="line"/>
      <point x="135" y="1461" type="line"/>
      <point x="135" y="1351" type="line"/>
      <point x="1420" y="1351" type="line"/>
    </contour>
  </outline>
</glyph>
<glyph name="coproduct" format="2">
  <advance width="1555"/>
  <unicode hex="2210"/>
  <outline>
    <contour>
      <point x="1042" y="1460" type="line"/>
      <point x="1042" y="-400" type="line"/>
      <point x="1168" y="-400" type="line"/>
      <point x="1168" y="1460" type="line"/>
    </contour>
    <contour>
      <point x="1380" y="-290" type="line"/>
      <point x="175" y="-290" type="line"/>
      <point x="175" y="-400" type="line"/>
      <point x="1380" y="-400" type="line"/>
    </contour>
    <contour>
      <point x="387" y="1460" type="line"/>
      <point x="387" y="-400" type="line"/>
      <point x="513" y="-400" type="line"/>
      <point x="513" y="1460" type="line"/>
    </contour>
  </outline>
</glyph>
<glyph name="infinity" format="2">
  <advance width="1555"/>
  <unicode hex="221E"/>
  <outline>
    <contour>
      <point x="734" y="599" type="curve"/>
      <point x="819" y="692" type="line"/>
      <point x="917" y="505"/>
      <point x="1020" y="423"/>
      <point x="1140" y="423" type="curve" smooth="yes"/>
      <point x="1245" y="423"/>
      <point x="1353" y="485"/>
      <point x="1353" y="646" type="curve" smooth="yes"/>
      <point x="1353" y="802"/>
      <point x="1251" y="869"/>
      <point x="1140" y="869" type="curve" smooth="yes"/>
      <point x="966" y="869"/>
      <point x="856" y="705"/>
      <point x="804" y="570" type="curve"/>
      <point x="746" y="667" type="line"/>
      <point x="813" y="842"/>
      <point x="931" y="977"/>
      <point x="1140" y="977" type="curve" smooth="yes"/>
      <point x="1268" y="977"/>
      <point x="1455" y="926"/>
      <point x="1455" y="646" type="curve" smooth="yes"/>
      <point x="1455" y="370"/>
      <point x="1271" y="315"/>
      <point x="1140" y="315" type="curve" smooth="yes"/>
      <point x="971" y="315"/>
      <point x="839" y="408"/>
    </contour>
    <contour>
      <point x="820" y="693" type="curve"/>
      <point x="735" y="600" type="line"/>
      <point x="638" y="787"/>
      <point x="535" y="869"/>
      <point x="415" y="869" type="curve" smooth="yes"/>
      <point x="310" y="869"/>
      <point x="202" y="807"/>
      <point x="202" y="646" type="curve" smooth="yes"/>
      <point x="202" y="490"/>
      <point x="304" y="423"/>
      <point x="415" y="423" type="curve" smooth="yes"/>
      <point x="589" y="423"/>
      <point x="699" y="587"/>
      <point x="751" y="722" type="curve"/>
      <point x="809" y="625" type="line"/>
      <point x="742" y="450"/>
      <point x="624" y="315"/>
      <point x="415" y="315" type="curve" smooth="yes"/>
      <point x="287" y="315"/>
      <point x="100" y="366"/>
      <point x="100" y="646" type="curve" smooth="yes"/>
      <point x="100" y="922"/>
      <point x="284" y="977"/>
      <point x="415" y="977" type="curve" smooth="yes"/>
      <point x="584" y="977"/>
      <point x="716" y="884"/>
    </contour>
  </outline>
</glyph>
<glyph name="angle" format="2">
  <advance width="1555"/>
  <unicode hex="2220"/>
  <outline>
    <contour>
      <point x="1235" y="0" type="line"/>
      <point x="1235" y="110" type="line"/>
      <point x="440" y="110" type="line"/>
      <point x="433" y="123" type="line"/>
      <point x="921" y="958" type="line"/>
      <point x="818" y="1013" type="line"/>
      <point x="254" y="41" type="line"/>
      <point x="271" y="0" type="line"/>
    </contour>
  </outline>
</glyph>
<glyph name="logicaland" format="2">
  <advance width="1555"/>
  <unicode hex="2227"/>
  <outline>
    <contour>
      <point x="1392" y="235" type="line"/>
      <point x="795" y="1235" type="line"/>
      <point x="747" y="1235" type="line"/>
      <point x="164" y="235" type="line"/>
      <point x="288" y="235" type="line"/>
      <point x="756" y="1053" type="line"/>
      <point x="773" y="1053" type="line"/>
      <point x="1258" y="235" type="line"/>
    </contour>
  </outline>
</glyph>
<glyph name="logicalor" format="2">
  <advance width="1555"/>
  <unicode hex="2228"/>
  <outline>
    <contour>
      <point x="164" y="1225" type="line"/>
      <point x="761" y="225" type="line"/>
      <point x="809" y="225" type="line"/>
      <point x="1392" y="1225" type="line"/>
      <point x="1268" y="1225" type="line"/>
      <point x="800" y="407" type="line"/>
      <point x="783" y="407" type="line"/>
      <point x="298" y="1225" type="line"/>
    </contour>
  </outline>
</glyph>
<glyph name="notequal" format="2">
  <advance width="1555"/>
  <unicode hex="2260"/>
  <outline>
    <contour>
      <point x="703" y="0" type="line"/>
      <point x="963" y="1288" type="line"/>
      <point x="854" y="1288" type="line"/>
      <point x="593" y="0" type="line"/>
    </contour>
    <contour>
      <point x="250" y="854" type="line"/>
      <point x="1305" y="854" type="line"/>
      <point x="1305" y="964" type="line"/>
      <point x="250" y="964" type="line"/>
    </contour>
    <contour>
      <point x="250" y="324" type="line"/>
      <point x="1305" y="324" type="line"/>
      <point x="1305" y="434" type="line"/>
      <point x="250" y="434" type="line"/>
    </contour>
  </outline>
</glyph>
<glyph name="equivalence" format="2">
  <advance width="1555"/>
  <unicode hex="2261"/>
  <outline>
    <contour>
      <point x="250" y="1019" type="line"/>
      <point x="1305" y="1019" type="line"/>
      <point x="1305" y="1129" type="line"/>
      <point x="250" y="1129" type="line"/>
    </contour>
    <contour>
      <point x="250" y="589" type="line"/>
      <point x="1305" y="589" type="line"/>
      <point x="1305" y="699" type="line"/>
      <point x="250" y="699" type="line"/>
    </contour>
    <contour>
      <point x="250" y="159" type="line"/>
      <point x="1305" y="159" type="line"/>
      <point x="1305" y="269" type="line"/>
      <point x="250" y="269" type="line"/>
    </contour>
  </outline>
</glyph>
<glyph name="lessequal" format="2">
  <advance width="1555"/>
  <unicode hex="2264"/>
  <outline>
    <contour>
      <point x="1305" y="203" type="line"/>
      <point x="1305" y="313" type="line"/>
      <point x="250" y="313" type="line"/>
      <point x="250" y="203" type="line"/>
    </contour>
    <contour>
      <point x="1272" y="1466" type="line"/>
      <point x="250" y="1050" type="line"/>
      <point x="250" y="952" type="line"/>
      <point x="1272" y="536" type="line"/>
      <point x="1313" y="638" type="line"/>
      <point x="439" y="994" type="line"/>
      <point x="439" y="1008" type="line"/>
      <point x="1313" y="1364" type="line"/>
    </contour>
  </outline>
</glyph>
<glyph name="greaterequal" format="2">
  <advance width="1555"/>
  <unicode hex="2265"/>
  <outline>
    <contour>
      <point x="250" y="203" type="line"/>
      <point x="1305" y="203" type="line"/>
      <point x="1305" y="313" type="line"/>
      <point x="250" y="313" type="line"/>
    </contour>
    <contour>
      <point x="283" y="536" type="line"/>
      <point x="1305" y="952" type="line"/>
      <point x="1305" y="1050" type="line"/>
      <point x="283" y="1466" type="line"/>
      <point x="242" y="1364" type="line"/>
      <point x="1116" y="1008" type="line"/>
      <point x="1116" y="994" type="line"/>
      <point x="242" y="638" type="line"/>
    </contour>
  </outline>
</glyph>
<glyph name="subset" format="2">
  <advance width="1555"/>
  <unicode hex="2282"/>
  <outline>
    <contour>
      <point x="394" y="500" type="curve" smooth="yes"/>
      <point x="394" y="820"/>
      <point x="577" y="891"/>
      <point x="842" y="891" type="curve" smooth="yes"/>
      <point x="1235" y="891" type="line"/>
      <point x="1235" y="1000" type="line"/>
      <point x="808" y="1000" type="line" smooth="yes"/>
      <point x="508" y="1000"/>
      <point x="260" y="889"/>
      <point x="260" y="500" type="curve" smooth="yes"/>
      <point x="260" y="111"/>
      <point x="508" y="0"/>
      <point x="808" y="0" type="curve" smooth="yes"/>
      <point x="1235" y="0" type="line"/>
      <point x="1235" y="109" type="line"/>
      <point x="842" y="109" type="line" smooth="yes"/>
      <point x="577" y="109"/>
      <point x="394" y="180"/>
    </contour>
  </outline>
</glyph>
<glyph name="rightBlackSmallTriangle" format="2">
  <advance width="1555"/>
  <unicode hex="25B8"/>
  <outline>
    <contour>
      <point x="562" y="1034" type="line"/>
      <point x="562" y="423" type="line"/>
      <point x="1096" y="729" type="line"/>
    </contour>
  </outline>
</glyph>
<glyph name="downBlackSmallTriangle" format="2">
  <advance width="1555"/>
  <unicode hex="25BE"/>
  <outline>
    <contour>
      <point x="1083" y="979" type="line"/>
      <point x="472" y="979" type="line"/>
      <point x="778" y="445" type="line"/>
    </contour>
  </outline>
</glyph>
<glyph name="lozenge" format="2">
  <advance width="1555"/>
  <unicode hex="25CA"/>
  <outline>
    <contour>
      <point x="156" y="730" type="line"/>
      <point x="718" y="0" type="line"/>
      <point x="837" y="0" type="line"/>
      <point x="1399" y="730" type="line"/>
      <point x="1293" y="761" type="line"/>
      <point x="785" y="104" type="line"/>
      <point x="770" y="104" type="line"/>
      <point x="262" y="761" type="line"/>
    </contour>
    <contour>
      <point x="1399" y="730" type="line"/>
      <point x="837" y="1460" type="line"/>
      <point x="718" y="1460" type="line"/>
      <point x="156" y="730" type="line"/>
      <point x="262" y="699" type="line"/>
      <point x="770" y="1356" type="line"/>
      <point x="785" y="1356" type="line"/>
      <point x="1293" y="699" type="line"/>
    </contour>
  </outline>
</glyph>
<glyph name="rightTipUpArrow" format="2">
  <advance width="1555"/>
  <unicode hex="2B0F"/>
  <outline>
    <contour>
      <point x="860" y="1284" type="line"/>
      <point x="354" y="781" type="line"/>
      <point x="435" y="700" type="line"/>
      <point x="885" y="1152" type="line"/>
      <point x="834" y="1152" type="line"/>
      <point x="1284" y="700" type="line"/>
      <point x="1365" y="781" type="line"/>
    </contour>
    <contour>
      <point x="801" y="1169" type="line"/>
      <point x="801" y="186" type="line"/>
      <point x="919" y="186" type="line"/>
      <point x="919" y="1169" type="line"/>
    </contour>
    <contour>
      <point x="1018" y="1090" type="line"/>
      <point x="860" y="1155" type="line"/>
      <point x="702" y="1089" type="line"/>
      <point x="860" y="1028" type="line"/>
    </contour>
    <contour>
      <point x="919" y="307" type="line"/>
      <point x="220" y="307" type="line"/>
      <point x="220" y="186" type="line"/>
      <point x="919" y="186" type="line"/>
    </contour>
  </outline>
</glyph>
<glyph name="leftArrowTipDown" format="2">
  <advance width="1555"/>
  <unicode hex="2B10"/>
  <outline>
    <contour>
      <point x="695" y="177" type="line"/>
      <point x="1201" y="680" type="line"/>
      <point x="1120" y="761" type="line"/>
      <point x="670" y="309" type="line"/>
      <point x="721" y="309" type="line"/>
      <point x="271" y="761" type="line"/>
      <point x="190" y="680" type="line"/>
    </contour>
    <contour>
      <point x="754" y="292" type="line"/>
      <point x="754" y="1275" type="line"/>
      <point x="636" y="1275" type="line"/>
      <point x="636" y="292" type="line"/>
    </contour>
    <contour>
      <point x="537" y="371" type="line"/>
      <point x="695" y="306" type="line"/>
      <point x="853" y="372" type="line"/>
      <point x="695" y="433" type="line"/>
    </contour>
    <contour>
      <point x="636" y="1154" type="line"/>
      <point x="1335" y="1154" type="line"/>
      <point x="1335" y="1275" type="line"/>
      <point x="636" y="1275" type="line"/>
    </contour>
  </outline>
</glyph>
<glyph name="leftArrowTipUp" format="2">
  <advance width="1555"/>
  <unicode hex="2B11"/>
  <outline>
    <contour>
      <point x="695" y="1284" type="line"/>
      <point x="190" y="781" type="line"/>
      <point x="271" y="700" type="line"/>
      <point x="721" y="1152" type="line"/>
      <point x="670" y="1152" type="line"/>
      <point x="1120" y="700" type="line"/>
      <point x="1201" y="781" type="line"/>
    </contour>
    <contour>
      <point x="754" y="1169" type="line"/>
      <point x="636" y="1169" type="line"/>
      <point x="636" y="186" type="line"/>
      <point x="754" y="186" type="line"/>
    </contour>
    <contour>
      <point x="537" y="1090" type="line"/>
      <point x="695" y="1028" type="line"/>
      <point x="853" y="1089" type="line"/>
      <point x="695" y="1155" type="line"/>
    </contour>
    <contour>
      <point x="636" y="307" type="line"/>
      <point x="636" y="186" type="line"/>
      <point x="1335" y="186" type="line"/>
      <point x="1335" y="307" type="line"/>
    </contour>
  </outline>
</glyph>
<glyph name="Aacute.alt5" format="2">
  <advance width="1555"/>
  <outline>
    <contour>
      <point x="234" y="0" type="line"/>
      <point x="360" y="0" type="line"/>
      <point x="360" y="821" type="line"/>
      <point x="798" y="1380" type="line"/>
      <point x="758" y="1380" type="line"/>
      <point x="1196" y="825" type="line"/>
      <point x="1196" y="0" type="line"/>
      <point x="1322" y="0" type="line"/>
      <point x="1322" y="861" type="line"/>
      <point x="851" y="1460" type="line"/>
      <point x="705" y="1460" type="line"/>
      <point x="234" y="861" type="line"/>
    </contour>
    <contour>
      <point x="313" y="449" type="line"/>
      <point x="1238" y="449" type="line"/>
      <point x="1238" y="552" type="line"/>
      <point x="313" y="552" type="line"/>
    </contour>
    <contour>
      <point x="827" y="1652.076" type="line"/>
      <point x="708" y="1652.076" type="line"/>
      <point x="980" y="1883.57" type="line"/>
      <point x="1133" y="1883.57" type="line"/>
    </contour>
  </outline>
</glyph>
<glyph name="Acircumflex.alt1" format="2">
  <advance width="1555"/>
  <outline>
    <contour>
      <point x="234" y="0" type="line"/>
      <point x="360" y="0" type="line"/>
      <point x="360" y="821" type="line"/>
      <point x="798" y="1380" type="line"/>
      <point x="758" y="1380" type="line"/>
      <point x="1196" y="825" type="line"/>
      <point x="1196" y="0" type="line"/>
      <point x="1322" y="0" type="line"/>
      <point x="1322" y="861" type="line"/>
      <point x="851" y="1460" type="line"/>
      <point x="705" y="1460" type="line"/>
      <point x="234" y="861" type="line"/>
    </contour>
    <contour>
      <point x="313" y="449" type="line"/>
      <point x="1238" y="449" type="line"/>
      <point x="1238" y="552" type="line"/>
      <point x="313" y="552" type="line"/>
    </contour>
    <contour>
      <point x="386" y="1650" type="line"/>
      <point x="533" y="1650" type="line"/>
      <point x="808" y="1859" type="line"/>
      <point x="746" y="1859" type="line"/>
      <point x="1022" y="1650" type="line"/>
      <point x="1169" y="1650" type="line"/>
      <point x="855" y="1883" type="line"/>
      <point x="699" y="1883" type="line"/>
    </contour>
  </outline>
</glyph>
<glyph name="Adieresis.alt1" format="2">
  <advance width="1555"/>
  <outline>
    <contour>
      <point x="234" y="0" type="line"/>
      <point x="360" y="0" type="line"/>
      <point x="360" y="821" type="line"/>
      <point x="798" y="1380" type="line"/>
      <point x="758" y="1380" type="line"/>
      <point x="1196" y="825" type="line"/>
      <point x="1196" y="0" type="line"/>
      <point x="1322" y="0" type="line"/>
      <point x="1322" y="861" type="line"/>
      <point x="851" y="1460" type="line"/>
      <point x="705" y="1460" type="line"/>
      <point x="234" y="861" type="line"/>
    </contour>
    <contour>
      <point x="313" y="449" type="line"/>
      <point x="1238" y="449" type="line"/>
      <point x="1238" y="552" type="line"/>
      <point x="313" y="552" type="line"/>
    </contour>
    <contour>
      <point x="472" y="1626" type="line"/>
      <point x="609" y="1756" type="line"/>
      <point x="472" y="1886" type="line"/>
      <point x="335" y="1756" type="line"/>
    </contour>
    <contour>
      <point x="1084" y="1626" type="line"/>
      <point x="1221" y="1756" type="line"/>
      <point x="1084" y="1886" type="line"/>
      <point x="947" y="1756" type="line"/>
    </contour>
  </outline>
</glyph>
<glyph name="B.alt4" format="2">
  <advance width="1555"/>
  <outline>
    <contour>
      <point x="294" y="0" type="line"/>
      <point x="1058" y="0" type="line"/>
      <point x="1380" y="268" type="line"/>
      <point x="1380" y="526" type="line"/>
      <point x="1058" y="800" type="line"/>
      <point x="1058" y="716" type="line"/>
      <point x="1320" y="988" type="line"/>
      <point x="1320" y="1192" type="line"/>
      <point x="1058" y="1460" type="line"/>
      <point x="294" y="1460" type="line"/>
      <point x="294" y="1360" type="line"/>
      <point x="993" y="1360" type="line"/>
      <point x="1194" y="1153" type="line"/>
      <point x="1194" y="1023" type="line"/>
      <point x="993" y="807" type="line"/>
      <point x="294" y="807" type="line"/>
      <point x="294" y="707" type="line"/>
      <point x="993" y="707" type="line"/>
      <point x="1254" y="491" type="line"/>
      <point x="1254" y="307" type="line"/>
      <point x="993" y="100" type="line"/>
      <point x="294" y="100" type="line"/>
    </contour>
    <contour>
      <point x="252" y="0" type="line"/>
      <point x="378" y="0" type="line"/>
      <point x="378" y="1460" type="line"/>
      <point x="252" y="1460" type="line"/>
    </contour>
  </outline>
</glyph>
<glyph name="B.alt5" format="2">
  <advance width="1555"/>
  <outline>
    <contour>
      <point x="294" y="0" type="line"/>
      <point x="1058" y="0" type="line"/>
      <point x="1380" y="268" type="line"/>
      <point x="1380" y="526" type="line"/>
      <point x="1058" y="800" type="line"/>
      <point x="1058" y="716" type="line"/>
      <point x="1320" y="988" type="line"/>
      <point x="1320" y="1192" type="line"/>
      <point x="1058" y="1460" type="line"/>
      <point x="294" y="1460" type="line"/>
      <point x="294" y="1360" type="line"/>
      <point x="993" y="1360" type="line"/>
      <point x="1194" y="1153" type="line"/>
      <point x="1194" y="1023" type="line"/>
      <point x="993" y="807" type="line"/>
      <point x="294" y="807" type="line"/>
      <point x="294" y="707" type="line"/>
      <point x="993" y="707" type="line"/>
      <point x="1254" y="491" type="line"/>
      <point x="1254" y="307" type="line"/>
      <point x="993" y="100" type="line"/>
      <point x="294" y="100" type="line"/>
    </contour>
    <contour>
      <point x="252" y="0" type="line"/>
      <point x="378" y="0" type="line"/>
      <point x="378" y="1460" type="line"/>
      <point x="252" y="1460" type="line"/>
    </contour>
  </outline>
</glyph>
<glyph name="C.alt5" format="2">
  <advance width="1555"/>
  <outline>
    <contour>
      <point x="671" y="0" type="line"/>
      <point x="1316" y="0" type="line"/>
      <point x="1336" y="110" type="line"/>
      <point x="736" y="110" type="line"/>
      <point x="315" y="573" type="line"/>
      <point x="315" y="897" type="line"/>
      <point x="736" y="1350" type="line"/>
      <point x="1336" y="1350" type="line"/>
      <point x="1316" y="1460" type="line"/>
      <point x="671" y="1460" type="line"/>
      <point x="189" y="933" type="line"/>
      <point x="189" y="537" type="line"/>
    </contour>
  </outline>
</glyph>
<glyph name="Cacute.alt1" format="2">
  <advance width="1555"/>
  <outline>
    <contour>
      <point x="671" y="0" type="line"/>
      <point x="1316" y="0" type="line"/>
      <point x="1336" y="110" type="line"/>
      <point x="736" y="110" type="line"/>
      <point x="315" y="573" type="line"/>
      <point x="315" y="897" type="line"/>
      <point x="736" y="1350" type="line"/>
      <point x="1336" y="1350" type="line"/>
      <point x="1316" y="1460" type="line"/>
      <point x="671" y="1460" type="line"/>
      <point x="189" y="933" type="line"/>
      <point x="189" y="537" type="line"/>
    </contour>
    <contour>
      <point x="945" y="1652" type="line"/>
      <point x="826" y="1652" type="line"/>
      <point x="1098" y="1884" type="line"/>
      <point x="1251" y="1884" type="line"/>
    </contour>
  </outline>
</glyph>
<glyph name="Ccircumflex.alt1" format="2">
  <advance width="1555"/>
  <outline>
    <contour>
      <point x="671" y="0" type="line"/>
      <point x="1316" y="0" type="line"/>
      <point x="1336" y="110" type="line"/>
      <point x="736" y="110" type="line"/>
      <point x="315" y="573" type="line"/>
      <point x="315" y="897" type="line"/>
      <point x="736" y="1350" type="line"/>
      <point x="1336" y="1350" type="line"/>
      <point x="1316" y="1460" type="line"/>
      <point x="671" y="1460" type="line"/>
      <point x="189" y="933" type="line"/>
      <point x="189" y="537" type="line"/>
    </contour>
    <contour>
      <point x="504" y="1650" type="line"/>
      <point x="651" y="1650" type="line"/>
      <point x="926" y="1859" type="line"/>
      <point x="864" y="1859" type="line"/>
      <point x="1140" y="1650" type="line"/>
      <point x="1287" y="1650" type="line"/>
      <point x="973" y="1883" type="line"/>
      <point x="817" y="1883" type="line"/>
    </contour>
  </outline>
</glyph>
<glyph name="D.alt5" format="2">
  <advance width="1555"/>
  <outline>
    <contour>
      <point x="289" y="0" type="line"/>
      <point x="931" y="0" type="line"/>
      <point x="1406" y="540" type="line"/>
      <point x="1406" y="930" type="line"/>
      <point x="931" y="1460" type="line"/>
      <point x="289" y="1460" type="line"/>
      <point x="289" y="1350" type="line"/>
      <point x="868" y="1350" type="line"/>
      <point x="1280" y="892" type="line"/>
      <point x="1280" y="579" type="line"/>
      <point x="868" y="110" type="line"/>
      <point x="289" y="110" type="line"/>
    </contour>
    <contour>
      <point x="236" y="0" type="line"/>
      <point x="362" y="0" type="line"/>
      <point x="362" y="1460" type="line"/>
      <point x="236" y="1460" type="line"/>
    </contour>
  </outline>
</glyph>
<glyph name="Dcaron.alt5" format="2">
  <advance width="1555"/>
  <outline>
    <contour>
      <point x="289" y="0" type="line"/>
      <point x="931" y="0" type="line"/>
      <point x="1406" y="540" type="line"/>
      <point x="1406" y="930" type="line"/>
      <point x="931" y="1460" type="line"/>
      <point x="289" y="1460" type="line"/>
      <point x="289" y="1350" type="line"/>
      <point x="868" y="1350" type="line"/>
      <point x="1280" y="892" type="line"/>
      <point x="1280" y="579" type="line"/>
      <point x="868" y="110" type="line"/>
      <point x="289" y="110" type="line"/>
    </contour>
    <contour>
      <point x="236" y="0" type="line"/>
      <point x="362" y="0" type="line"/>
      <point x="362" y="1460" type="line"/>
      <point x="236" y="1460" type="line"/>
    </contour>
    <contour>
      <point x="274" y="1883" type="line"/>
      <point x="421" y="1883" type="line"/>
      <point x="696" y="1674" type="line"/>
      <point x="634" y="1674" type="line"/>
      <point x="910" y="1883" type="line"/>
      <point x="1057" y="1883" type="line"/>
      <point x="743" y="1650" type="line"/>
      <point x="587" y="1650" type="line"/>
    </contour>
  </outline>
</glyph>
<glyph name="E.alt" format="2">
  <advance width="1555"/>
  <outline>
    <contour>
      <point x="416" y="0" type="line"/>
      <point x="416" y="1460" type="line"/>
      <point x="290" y="1460" type="line"/>
      <point x="290" y="0" type="line"/>
    </contour>
    <contour>
      <point x="1338" y="110" type="line"/>
      <point x="375" y="110" type="line"/>
      <point x="375" y="0" type="line"/>
      <point x="1318" y="0" type="line"/>
    </contour>
    <contour>
      <point x="1141" y="779" type="line"/>
      <point x="375" y="779" type="line"/>
      <point x="375" y="674" type="line"/>
      <point x="1141" y="674" type="line"/>
    </contour>
    <contour>
      <point x="1298" y="1350" type="line"/>
      <point x="1278" y="1460" type="line"/>
      <point x="375" y="1460" type="line"/>
      <point x="375" y="1350" type="line"/>
    </contour>
  </outline>
</glyph>
<glyph name="E.alt1" format="2">
  <advance width="1555"/>
  <outline>
    <contour>
      <point x="416" y="0" type="line"/>
      <point x="416" y="1460" type="line"/>
      <point x="290" y="1460" type="line"/>
      <point x="290" y="0" type="line"/>
    </contour>
    <contour>
      <point x="1338" y="110" type="line"/>
      <point x="375" y="110" type="line"/>
      <point x="375" y="0" type="line"/>
      <point x="1318" y="0" type="line"/>
    </contour>
    <contour>
      <point x="1141" y="779" type="line"/>
      <point x="375" y="779" type="line"/>
      <point x="375" y="674" type="line"/>
      <point x="1141" y="674" type="line"/>
    </contour>
    <contour>
      <point x="1298" y="1350" type="line"/>
      <point x="1278" y="1460" type="line"/>
      <point x="375" y="1460" type="line"/>
      <point x="375" y="1350" type="line"/>
    </contour>
  </outline>
</glyph>
<glyph name="Ebreve.alt5" format="2">
  <advance width="1555"/>
  <outline>
    <contour>
      <point x="416" y="0" type="line"/>
      <point x="416" y="1460" type="line"/>
      <point x="290" y="1460" type="line"/>
      <point x="290" y="0" type="line"/>
    </contour>
    <contour>
      <point x="1338" y="110" type="line"/>
      <point x="375" y="110" type="line"/>
      <point x="375" y="0" type="line"/>
      <point x="1318" y="0" type="line"/>
    </contour>
    <contour>
      <point x="1141" y="779" type="line"/>
      <point x="375" y="779" type="line"/>
      <point x="375" y="674" type="line"/>
      <point x="1141" y="674" type="line"/>
    </contour>
    <contour>
      <point x="1298" y="1350" type="line"/>
      <point x="1278" y="1460" type="line"/>
      <point x="375" y="1460" type="line"/>
      <point x="375" y="1350" type="line"/>
    </contour>
    <contour>
      <point x="644" y="1643" type="line"/>
      <point x="978" y="1643" type="line"/>
      <point x="1128" y="1760" type="line"/>
      <point x="1128" y="1883" type="line"/>
      <point x="1038" y="1883" type="line"/>
      <point x="1038" y="1797" type="line"/>
      <point x="938" y="1731" type="line"/>
      <point x="684" y="1731" type="line"/>
      <point x="584" y="1797" type="line"/>
      <point x="584" y="1883" type="line"/>
      <point x="494" y="1883" type="line"/>
      <point x="494" y="1759" type="line"/>
    </contour>
  </outline>
</glyph>
<glyph name="Ecaron.alt1" format="2">
  <advance width="1555"/>
  <outline>
    <contour>
      <point x="416" y="0" type="line"/>
      <point x="416" y="1460" type="line"/>
      <point x="290" y="1460" type="line"/>
      <point x="290" y="0" type="line"/>
    </contour>
    <contour>
      <point x="1338" y="110" type="line"/>
      <point x="375" y="110" type="line"/>
      <point x="375" y="0" type="line"/>
      <point x="1318" y="0" type="line"/>
    </contour>
    <contour>
      <point x="1141" y="779" type="line"/>
      <point x="375" y="779" type="line"/>
      <point x="375" y="674" type="line"/>
      <point x="1141" y="674" type="line"/>
    </contour>
    <contour>
      <point x="1298" y="1350" type="line"/>
      <point x="1278" y="1460" type="line"/>
      <point x="375" y="1460" type="line"/>
      <point x="375" y="1350" type="line"/>
    </contour>
    <contour>
      <point x="423" y="1883" type="line"/>
      <point x="570" y="1883" type="line"/>
      <point x="845" y="1674" type="line"/>
      <point x="783" y="1674" type="line"/>
      <point x="1059" y="1883" type="line"/>
      <point x="1206" y="1883" type="line"/>
      <point x="892" y="1650" type="line"/>
      <point x="736" y="1650" type="line"/>
    </contour>
  </outline>
</glyph>
<glyph name="Edieresis.alt5" format="2">
  <advance width="1555"/>
  <outline>
    <contour>
      <point x="416" y="0" type="line"/>
      <point x="416" y="1460" type="line"/>
      <point x="290" y="1460" type="line"/>
      <point x="290" y="0" type="line"/>
    </contour>
    <contour>
      <point x="1338" y="110" type="line"/>
      <point x="375" y="110" type="line"/>
      <point x="375" y="0" type="line"/>
      <point x="1318" y="0" type="line"/>
    </contour>
    <contour>
      <point x="1141" y="779" type="line"/>
      <point x="375" y="779" type="line"/>
      <point x="375" y="674" type="line"/>
      <point x="1141" y="674" type="line"/>
    </contour>
    <contour>
      <point x="1298" y="1350" type="line"/>
      <point x="1278" y="1460" type="line"/>
      <point x="375" y="1460" type="line"/>
      <point x="375" y="1350" type="line"/>
    </contour>
    <contour>
      <point x="509" y="1626" type="line"/>
      <point x="646" y="1756" type="line"/>
      <point x="509" y="1886" type="line"/>
      <point x="372" y="1756" type="line"/>
    </contour>
    <contour>
      <point x="1121" y="1626" type="line"/>
      <point x="1258" y="1756" type="line"/>
      <point x="1121" y="1886" type="line"/>
      <point x="984" y="1756" type="line"/>
    </contour>
  </outline>
</glyph>
<glyph name="Eng.alt1" format="2">
  <advance width="1555"/>
  <outline>
    <contour>
      <point x="1247" y="-76" type="line"/>
      <point x="1345" y="0" type="line"/>
      <point x="1345" y="1460" type="line"/>
      <point x="1223" y="1460" type="line"/>
      <point x="1223" y="217" type="line"/>
      <point x="1211" y="217" type="line"/>
      <point x="358" y="1460" type="line"/>
      <point x="210" y="1460" type="line"/>
      <point x="210" y="0" type="line"/>
      <point x="332" y="0" type="line"/>
      <point x="332" y="1278" type="line"/>
      <point x="344" y="1278" type="line"/>
    </contour>
    <contour>
      <point x="1171" y="-400" type="line"/>
      <point x="1345" y="-172" type="line"/>
      <point x="1345" y="50" type="line"/>
      <point x="1225" y="50" type="line"/>
      <point x="1225" y="-142" type="line"/>
      <point x="1107" y="-302" type="line"/>
      <point x="972" y="-302" type="line"/>
      <point x="992" y="-400" type="line"/>
    </contour>
  </outline>
</glyph>
<glyph name="Etilde.alt5" format="2">
  <advance width="1555"/>
  <outline>
    <contour>
      <point x="416" y="0" type="line"/>
      <point x="416" y="1460" type="line"/>
      <point x="290" y="1460" type="line"/>
      <point x="290" y="0" type="line"/>
    </contour>
    <contour>
      <point x="1338" y="110" type="line"/>
      <point x="375" y="110" type="line"/>
      <point x="375" y="0" type="line"/>
      <point x="1318" y="0" type="line"/>
    </contour>
    <contour>
      <point x="1141" y="779" type="line"/>
      <point x="375" y="779" type="line"/>
      <point x="375" y="674" type="line"/>
      <point x="1141" y="674" type="line"/>
    </contour>
    <contour>
      <point x="1298" y="1350" type="line"/>
      <point x="1278" y="1460" type="line"/>
      <point x="375" y="1460" type="line"/>
      <point x="375" y="1350" type="line"/>
    </contour>
    <contour>
      <point x="717" y="1893" type="line"/>
      <point x="517" y="1893" type="line"/>
      <point x="377" y="1765" type="line"/>
      <point x="377" y="1643" type="line"/>
      <point x="467" y="1643" type="line"/>
      <point x="467" y="1734" type="line"/>
      <point x="555" y="1805" type="line"/>
      <point x="676" y="1805" type="line"/>
      <point x="912" y="1643" type="line"/>
      <point x="1112" y="1643" type="line"/>
      <point x="1252" y="1771" type="line"/>
      <point x="1252" y="1893" type="line"/>
      <point x="1162" y="1893" type="line"/>
      <point x="1162" y="1802" type="line"/>
      <point x="1074" y="1731" type="line"/>
      <point x="953" y="1731" type="line"/>
    </contour>
  </outline>
</glyph>
<glyph name="F.alt2" format="2">
  <advance width="1555"/>
  <outline>
    <contour>
      <point x="283" y="0" type="line"/>
      <point x="409" y="0" type="line"/>
      <point x="409" y="1460" type="line"/>
      <point x="283" y="1460" type="line"/>
    </contour>
    <contour>
      <point x="368" y="627" type="line"/>
      <point x="1148" y="627" type="line"/>
      <point x="1148" y="726" type="line"/>
      <point x="368" y="726" type="line"/>
    </contour>
    <contour>
      <point x="368" y="1360" type="line"/>
      <point x="1365" y="1360" type="line"/>
      <point x="1345" y="1460" type="line"/>
      <point x="368" y="1460" type="line"/>
    </contour>
  </outline>
</glyph>
<glyph name="G.alt2" format="2">
  <advance width="1555"/>
  <outline>
    <contour>
      <point x="603" y="0" type="line"/>
      <point x="1195" y="0" type="line"/>
      <point x="1382" y="208" type="line"/>
      <point x="1382" y="763" type="line"/>
      <point x="766" y="763" type="line"/>
      <point x="766" y="659" type="line"/>
      <point x="1327" y="659" type="line"/>
      <point x="1270" y="704" type="line"/>
      <point x="1270" y="263" type="line"/>
      <point x="1133" y="110" type="line"/>
      <point x="669" y="110" type="line"/>
      <point x="289" y="570" type="line"/>
      <point x="289" y="900" type="line"/>
      <point x="703" y="1350" type="line"/>
      <point x="1330" y="1350" type="line"/>
      <point x="1310" y="1460" type="line"/>
      <point x="637" y="1460" type="line"/>
      <point x="163" y="930" type="line"/>
      <point x="163" y="540" type="line"/>
    </contour>
  </outline>
</glyph>
<glyph name="Gcaron.alt1" format="2">
  <advance width="1555"/>
  <outline>
    <contour>
      <point x="603" y="0" type="line"/>
      <point x="1195" y="0" type="line"/>
      <point x="1382" y="208" type="line"/>
      <point x="1382" y="763" type="line"/>
      <point x="766" y="763" type="line"/>
      <point x="766" y="659" type="line"/>
      <point x="1327" y="659" type="line"/>
      <point x="1270" y="704" type="line"/>
      <point x="1270" y="263" type="line"/>
      <point x="1133" y="110" type="line"/>
      <point x="669" y="110" type="line"/>
      <point x="289" y="570" type="line"/>
      <point x="289" y="900" type="line"/>
      <point x="703" y="1350" type="line"/>
      <point x="1330" y="1350" type="line"/>
      <point x="1310" y="1460" type="line"/>
      <point x="637" y="1460" type="line"/>
      <point x="163" y="930" type="line"/>
      <point x="163" y="540" type="line"/>
    </contour>
    <contour>
      <point x="478" y="1883" type="line"/>
      <point x="625" y="1883" type="line"/>
      <point x="900" y="1674" type="line"/>
      <point x="838" y="1674" type="line"/>
      <point x="1114" y="1883" type="line"/>
      <point x="1261" y="1883" type="line"/>
      <point x="947" y="1650" type="line"/>
      <point x="791" y="1650" type="line"/>
    </contour>
  </outline>
</glyph>
<glyph name="H.alt4" format="2">
  <advance width="1555"/>
  <outline>
    <contour>
      <point x="1196" y="0" type="line"/>
      <point x="1322" y="0" type="line"/>
      <point x="1322" y="1460" type="line"/>
      <point x="1196" y="1460" type="line"/>
    </contour>
    <contour>
      <point x="234" y="0" type="line"/>
      <point x="360" y="0" type="line"/>
      <point x="360" y="1460" type="line"/>
      <point x="234" y="1460" type="line"/>
    </contour>
    <contour>
      <point x="303" y="709" type="line"/>
      <point x="1257" y="709" type="line"/>
      <point x="1257" y="810" type="line"/>
      <point x="303" y="810" type="line"/>
    </contour>
  </outline>
</glyph>
<glyph name="Hbar.alt5" format="2">
  <advance width="1555"/>
  <outline>
    <contour>
      <point x="40" y="1102" type="line"/>
      <point x="1515" y="1102" type="line"/>
      <point x="1515" y="1212" type="line"/>
      <point x="40" y="1212" type="line"/>
    </contour>
    <contour>
      <point x="1196" y="0" type="line"/>
      <point x="1322" y="0" type="line"/>
      <point x="1322" y="1460" type="line"/>
      <point x="1196" y="1460" type="line"/>
    </contour>
    <contour>
      <point x="234" y="0" type="line"/>
      <point x="360" y="0" type="line"/>
      <point x="360" y="1460" type="line"/>
      <point x="234" y="1460" type="line"/>
    </contour>
    <contour>
      <point x="303" y="709" type="line"/>
      <point x="1257" y="709" type="line"/>
      <point x="1257" y="810" type="line"/>
      <point x="303" y="810" type="line"/>
    </contour>
  </outline>
</glyph>
<glyph name="IJ.alt1" format="2">
  <advance width="1555"/>
  <outline>
    <contour>
      <point x="234" y="724" type="line"/>
      <point x="360" y="724" type="line"/>
      <point x="360" y="1460" type="line"/>
      <point x="234" y="1460" type="line"/>
    </contour>
    <contour>
      <point x="566" y="0" type="line"/>
      <point x="1000" y="0" type="line"/>
      <point x="1322" y="244" type="line"/>
      <point x="1322" y="1460" type="line"/>
      <point x="1196" y="1460" type="line"/>
      <point x="1196" y="295" type="line"/>
      <point x="927" y="110" type="line"/>
      <point x="639" y="110" type="line"/>
      <point x="360" y="295" type="line"/>
      <point x="360" y="468" type="line"/>
      <point x="234" y="468" type="line"/>
      <point x="234" y="244" type="line"/>
    </contour>
    <contour>
      <point x="647" y="1350" type="line"/>
      <point x="1282" y="1350" type="line"/>
      <point x="1282" y="1460" type="line"/>
      <point x="667" y="1460" type="line"/>
    </contour>
  </outline>
</glyph>
<glyph name="Ibreve.alt1" format="2">
  <advance width="1555"/>
  <outline>
    <contour>
      <point x="705" y="0" type="line"/>
      <point x="831" y="0" type="line"/>
      <point x="831" y="1460" type="line"/>
      <point x="705" y="1460" type="line"/>
    </contour>
    <contour>
      <point x="228" y="0" type="line"/>
      <point x="1328" y="0" type="line"/>
      <point x="1348" y="110" type="line"/>
      <point x="208" y="110" type="line"/>
    </contour>
    <contour>
      <point x="208" y="1350" type="line"/>
      <point x="1348" y="1350" type="line"/>
      <point x="1328" y="1460" type="line"/>
      <point x="228" y="1460" type="line"/>
    </contour>
    <contour>
      <point x="608" y="1643" type="line"/>
      <point x="942" y="1643" type="line"/>
      <point x="1092" y="1760" type="line"/>
      <point x="1092" y="1883" type="line"/>
      <point x="1002" y="1883" type="line"/>
      <point x="1002" y="1797" type="line"/>
      <point x="902" y="1731" type="line"/>
      <point x="648" y="1731" type="line"/>
      <point x="548" y="1797" type="line"/>
      <point x="548" y="1883" type="line"/>
      <point x="458" y="1883" type="line"/>
      <point x="458" y="1759" type="line"/>
    </contour>
  </outline>
</glyph>
<glyph name="Idotaccent.alt5" format="2">
  <advance width="1555"/>
  <outline>
    <contour>
      <point x="705" y="0" type="line"/>
      <point x="831" y="0" type="line"/>
      <point x="831" y="1460" type="line"/>
      <point x="705" y="1460" type="line"/>
    </contour>
    <contour>
      <point x="228" y="0" type="line"/>
      <point x="1328" y="0" type="line"/>
      <point x="1348" y="110" type="line"/>
      <point x="208" y="110" type="line"/>
    </contour>
    <contour>
      <point x="208" y="1350" type="line"/>
      <point x="1348" y="1350" type="line"/>
      <point x="1328" y="1460" type="line"/>
      <point x="228" y="1460" type="line"/>
    </contour>
    <contour>
      <point x="779" y="1626" type="line"/>
      <point x="916" y="1756" type="line"/>
      <point x="779" y="1886" type="line"/>
      <point x="642" y="1756" type="line"/>
    </contour>
  </outline>
</glyph>
<glyph name="Igrave.alt1" format="2">
  <advance width="1555"/>
  <outline>
    <contour>
      <point x="705" y="0" type="line"/>
      <point x="831" y="0" type="line"/>
      <point x="831" y="1460" type="line"/>
      <point x="705" y="1460" type="line"/>
    </contour>
    <contour>
      <point x="228" y="0" type="line"/>
      <point x="1328" y="0" type="line"/>
      <point x="1348" y="110" type="line"/>
      <point x="208" y="110" type="line"/>
    </contour>
    <contour>
      <point x="208" y="1350" type="line"/>
      <point x="1348" y="1350" type="line"/>
      <point x="1328" y="1460" type="line"/>
      <point x="228" y="1460" type="line"/>
    </contour>
    <contour>
      <point x="729" y="1652" type="line"/>
      <point x="848" y="1652" type="line"/>
      <point x="576" y="1884" type="line"/>
      <point x="423" y="1884" type="line"/>
    </contour>
  </outline>
</glyph>
<glyph name="Imacron.alt5" format="2">
  <advance width="1555"/>
  <outline>
    <contour>
      <point x="705" y="0" type="line"/>
      <point x="831" y="0" type="line"/>
      <point x="831" y="1460" type="line"/>
      <point x="705" y="1460" type="line"/>
    </contour>
    <contour>
      <point x="228" y="0" type="line"/>
      <point x="1328" y="0" type="line"/>
      <point x="1348" y="110" type="line"/>
      <point x="208" y="110" type="line"/>
    </contour>
    <contour>
      <point x="208" y="1350" type="line"/>
      <point x="1348" y="1350" type="line"/>
      <point x="1328" y="1460" type="line"/>
      <point x="228" y="1460" type="line"/>
    </contour>
    <contour>
      <point x="364" y="1731" type="line"/>
      <point x="1193" y="1731" type="line"/>
      <point x="1193" y="1831" type="line"/>
      <point x="364" y="1831" type="line"/>
    </contour>
  </outline>
</glyph>
<glyph name="Iogonek.alt1" format="2">
  <advance width="1555"/>
  <outline>
    <contour>
      <point x="705" y="0" type="line"/>
      <point x="831" y="0" type="line"/>
      <point x="831" y="1460" type="line"/>
      <point x="705" y="1460" type="line"/>
    </contour>
    <contour>
      <point x="228" y="0" type="line"/>
      <point x="1328" y="0" type="line"/>
      <point x="1348" y="110" type="line"/>
      <point x="208" y="110" type="line"/>
    </contour>
    <contour>
      <point x="208" y="1350" type="line"/>
      <point x="1348" y="1350" type="line"/>
      <point x="1328" y="1460" type="line"/>
      <point x="228" y="1460" type="line"/>
    </contour>
    <contour>
      <point x="544" y="-132" type="line"/>
      <point x="544" y="-310" type="line"/>
      <point x="692" y="-400" type="line"/>
      <point x="814" y="-400" type="line"/>
      <point x="814" y="-310" type="line"/>
      <point x="723" y="-310" type="line"/>
      <point x="646" y="-262" type="line"/>
      <point x="646" y="-161" type="line"/>
      <point x="814" y="0" type="line"/>
      <point x="733" y="37" type="line"/>
    </contour>
  </outline>
</glyph>
<glyph name="Itilde.alt1" format="2">
  <advance width="1555"/>
  <outline>
    <contour>
      <point x="705" y="0" type="line"/>
      <point x="831" y="0" type="line"/>
      <point x="831" y="1460" type="line"/>
      <point x="705" y="1460" type="line"/>
    </contour>
    <contour>
      <point x="228" y="0" type="line"/>
      <point x="1328" y="0" type="line"/>
      <point x="1348" y="110" type="line"/>
      <point x="208" y="110" type="line"/>
    </contour>
    <contour>
      <point x="208" y="1350" type="line"/>
      <point x="1348" y="1350" type="line"/>
      <point x="1328" y="1460" type="line"/>
      <point x="228" y="1460" type="line"/>
    </contour>
    <contour>
      <point x="681" y="1893" type="line"/>
      <point x="481" y="1893" type="line"/>
      <point x="341" y="1765" type="line"/>
      <point x="341" y="1643" type="line"/>
      <point x="431" y="1643" type="line"/>
      <point x="431" y="1734" type="line"/>
      <point x="519" y="1805" type="line"/>
      <point x="640" y="1805" type="line"/>
      <point x="876" y="1643" type="line"/>
      <point x="1076" y="1643" type="line"/>
      <point x="1216" y="1771" type="line"/>
      <point x="1216" y="1893" type="line"/>
      <point x="1126" y="1893" type="line"/>
      <point x="1126" y="1802" type="line"/>
      <point x="1038" y="1731" type="line"/>
      <point x="917" y="1731" type="line"/>
    </contour>
  </outline>
</glyph>
<glyph name="J.alt3" format="2">
  <advance width="1555"/>
  <outline>
    <contour>
      <point x="715" y="0" type="line"/>
      <point x="861" y="0" type="line"/>
      <point x="1344" y="489" type="line"/>
      <point x="1344" y="1460" type="line"/>
      <point x="1218" y="1460" type="line"/>
      <point x="1218" y="528" type="line"/>
      <point x="768" y="80" type="line"/>
      <point x="808" y="80" type="line"/>
      <point x="338" y="532" type="line"/>
      <point x="338" y="778" type="line"/>
      <point x="212" y="778" type="line"/>
      <point x="212" y="489" type="line"/>
    </contour>
    <contour>
      <point x="325" y="1350" type="line"/>
      <point x="1300" y="1350" type="line"/>
      <point x="1300" y="1460" type="line"/>
      <point x="345" y="1460" type="line"/>
    </contour>
  </outline>
</glyph>
<glyph name="Jcircumflex.alt1" format="2">
  <advance width="1555"/>
  <outline>
    <contour>
      <point x="715" y="0" type="line"/>
      <point x="861" y="0" type="line"/>
      <point x="1344" y="489" type="line"/>
      <point x="1344" y="1460" type="line"/>
      <point x="1218" y="1460" type="line"/>
      <point x="1218" y="528" type="line"/>
      <point x="768" y="80" type="line"/>
      <point x="808" y="80" type="line"/>
      <point x="338" y="532" type="line"/>
      <point x="338" y="778" type="line"/>
      <point x="212" y="778" type="line"/>
      <point x="212" y="489" type="line"/>
    </contour>
    <contour>
      <point x="325" y="1350" type="line"/>
      <point x="1300" y="1350" type="line"/>
      <point x="1300" y="1460" type="line"/>
      <point x="345" y="1460" type="line"/>
    </contour>
    <contour>
      <point x="404" y="1650" type="line"/>
      <point x="551" y="1650" type="line"/>
      <point x="826" y="1859" type="line"/>
      <point x="764" y="1859" type="line"/>
      <point x="1040" y="1650" type="line"/>
      <point x="1187" y="1650" type="line"/>
      <point x="873" y="1883" type="line"/>
      <point x="717" y="1883" type="line"/>
    </contour>
  </outline>
</glyph>
<glyph name="Kcommaaccent.alt5" format="2">
  <advance width="1555"/>
  <outline>
    <contour>
      <point x="1210" y="0" type="line"/>
      <point x="1336" y="0" type="line"/>
      <point x="1336" y="266" type="line"/>
      <point x="671" y="784" type="line"/>
      <point x="671" y="719" type="line"/>
      <point x="1336" y="1194" type="line"/>
      <point x="1336" y="1460" type="line"/>
      <point x="1210" y="1460" type="line"/>
      <point x="1210" y="1239" type="line"/>
      <point x="547" y="766" type="line"/>
      <point x="655" y="805" type="line"/>
      <point x="336" y="805" type="line"/>
      <point x="336" y="700" type="line"/>
      <point x="647" y="700" type="line"/>
      <point x="543" y="721" type="line"/>
      <point x="1210" y="221" type="line"/>
    </contour>
    <contour>
      <point x="255" y="0" type="line"/>
      <point x="381" y="0" type="line"/>
      <point x="381" y="1460" type="line"/>
      <point x="255" y="1460" type="line"/>
    </contour>
    <contour>
      <point x="705" y="-527" type="line"/>
      <point x="858" y="-527" type="line"/>
      <point x="858" y="-471" type="line"/>
      <point x="676" y="-707" type="line"/>
      <point x="751" y="-747" type="line"/>
      <point x="920" y="-527" type="line"/>
      <point x="920" y="-312" type="line"/>
      <point x="705" y="-312" type="line"/>
    </contour>
  </outline>
</glyph>
<glyph name="L.alt5" format="2">
  <advance width="1555"/>
  <outline>
    <contour>
      <point x="298" y="0" type="line"/>
      <point x="424" y="0" type="line"/>
      <point x="424" y="1460" type="line"/>
      <point x="298" y="1460" type="line"/>
    </contour>
    <contour>
      <point x="383" y="0" type="line"/>
      <point x="1359" y="0" type="line"/>
      <point x="1379" y="110" type="line"/>
      <point x="383" y="110" type="line"/>
    </contour>
  </outline>
</glyph>
<glyph name="Lacute.alt1" format="2">
  <advance width="1555"/>
  <outline>
    <contour>
      <point x="298" y="0" type="line"/>
      <point x="424" y="0" type="line"/>
      <point x="424" y="1460" type="line"/>
      <point x="298" y="1460" type="line"/>
    </contour>
    <contour>
      <point x="383" y="0" type="line"/>
      <point x="1359" y="0" type="line"/>
      <point x="1379" y="110" type="line"/>
      <point x="383" y="110" type="line"/>
    </contour>
    <contour>
      <point x="426" y="1652" type="line"/>
      <point x="307" y="1652" type="line"/>
      <point x="579" y="1884" type="line"/>
      <point x="732" y="1884" type="line"/>
    </contour>
  </outline>
</glyph>
<glyph name="Ldot.alt1" format="2">
  <advance width="1555"/>
  <outline>
    <contour>
      <point x="298" y="0" type="line"/>
      <point x="424" y="0" type="line"/>
      <point x="424" y="1460" type="line"/>
      <point x="298" y="1460" type="line"/>
    </contour>
    <contour>
      <point x="383" y="0" type="line"/>
      <point x="1359" y="0" type="line"/>
      <point x="1379" y="110" type="line"/>
      <point x="383" y="110" type="line"/>
    </contour>
    <contour>
      <point x="1150" y="694" type="line"/>
      <point x="1287" y="824" type="line"/>
      <point x="1150" y="954" type="line"/>
      <point x="1013" y="824" type="line"/>
    </contour>
  </outline>
</glyph>
<glyph name="M.alt5" format="2">
  <advance width="1555"/>
  <outline>
    <contour>
      <point x="226" y="0" type="line"/>
      <point x="345" y="0" type="line"/>
      <point x="345" y="1213" type="line"/>
      <point x="356" y="1213" type="line"/>
      <point x="729" y="389" type="line"/>
      <point x="823" y="389" type="line"/>
      <point x="1192" y="1213" type="line"/>
      <point x="1205" y="1213" type="line"/>
      <point x="1205" y="0" type="line"/>
      <point x="1328" y="0" type="line"/>
      <point x="1328" y="1459" type="line"/>
      <point x="1181" y="1459" type="line"/>
      <point x="792" y="565" type="line"/>
      <point x="773" y="565" type="line"/>
      <point x="371" y="1459" type="line"/>
      <point x="226" y="1459" type="line"/>
    </contour>
  </outline>
</glyph>
<glyph name="Nhookleft.alt1" format="2">
  <advance width="1555"/>
  <outline>
    <contour>
      <point x="345" y="50" type="line"/>
      <point x="225" y="50" type="line"/>
      <point x="225" y="-142" type="line"/>
      <point x="107" y="-302" type="line"/>
      <point x="-28" y="-302" type="line"/>
      <point x="-8" y="-400" type="line"/>
      <point x="171" y="-400" type="line"/>
      <point x="345" y="-172" type="line"/>
    </contour>
    <contour>
      <point x="225" y="0" type="line"/>
      <point x="345" y="0" type="line"/>
      <point x="345" y="1266" type="line"/>
      <point x="357" y="1266" type="line"/>
      <point x="1167" y="1" type="line"/>
      <point x="1313" y="1" type="line"/>
      <point x="1313" y="1461" type="line"/>
      <point x="1193" y="1461" type="line"/>
      <point x="1193" y="214" type="line"/>
      <point x="1181" y="214" type="line"/>
      <point x="373" y="1460" type="line"/>
      <point x="225" y="1460" type="line"/>
    </contour>
  </outline>
</glyph>
<glyph name="Ocircumflex.alt1" format="2">
  <advance width="1555"/>
  <outline>
    <contour>
      <point x="649" y="0" type="line"/>
      <point x="907" y="0" type="line"/>
      <point x="1404" y="540" type="line"/>
      <point x="1404" y="930" type="line"/>
      <point x="910" y="1460" type="line"/>
      <point x="649" y="1460" type="line"/>
      <point x="151" y="930" type="line"/>
      <point x="151" y="540" type="line"/>
    </contour>
    <contour>
      <point x="708" y="110" type="line"/>
      <point x="277" y="581" type="line"/>
      <point x="277" y="889" type="line"/>
      <point x="708" y="1350" type="line"/>
      <point x="847" y="1350" type="line"/>
      <point x="1278" y="889" type="line"/>
      <point x="1278" y="581" type="line"/>
      <point x="847" y="110" type="line"/>
    </contour>
    <contour>
      <point x="386" y="1650" type="line"/>
      <point x="533" y="1650" type="line"/>
      <point x="808" y="1859" type="line"/>
      <point x="746" y="1859" type="line"/>
      <point x="1022" y="1650" type="line"/>
      <point x="1169" y="1650" type="line"/>
      <point x="855" y="1883" type="line"/>
      <point x="699" y="1883" type="line"/>
    </contour>
  </outline>
</glyph>
<glyph name="Odieresis.alt1" format="2">
  <advance width="1555"/>
  <outline>
    <contour>
      <point x="649" y="0" type="line"/>
      <point x="907" y="0" type="line"/>
      <point x="1404" y="540" type="line"/>
      <point x="1404" y="930" type="line"/>
      <point x="910" y="1460" type="line"/>
      <point x="649" y="1460" type="line"/>
      <point x="151" y="930" type="line"/>
      <point x="151" y="540" type="line"/>
    </contour>
    <contour>
      <point x="708" y="110" type="line"/>
      <point x="277" y="581" type="line"/>
      <point x="277" y="889" type="line"/>
      <point x="708" y="1350" type="line"/>
      <point x="847" y="1350" type="line"/>
      <point x="1278" y="889" type="line"/>
      <point x="1278" y="581" type="line"/>
      <point x="847" y="110" type="line"/>
    </contour>
    <contour>
      <point x="472" y="1626" type="line"/>
      <point x="609" y="1756" type="line"/>
      <point x="472" y="1886" type="line"/>
      <point x="335" y="1756" type="line"/>
    </contour>
    <contour>
      <point x="1084" y="1626" type="line"/>
      <point x="1221" y="1756" type="line"/>
      <point x="1084" y="1886" type="line"/>
      <point x="947" y="1756" type="line"/>
    </contour>
  </outline>
</glyph>
<glyph name="Ograve.alt1" format="2">
  <advance width="1555"/>
  <outline>
    <contour>
      <point x="649" y="0" type="line"/>
      <point x="907" y="0" type="line"/>
      <point x="1404" y="540" type="line"/>
      <point x="1404" y="930" type="line"/>
      <point x="910" y="1460" type="line"/>
      <point x="649" y="1460" type="line"/>
      <point x="151" y="930" type="line"/>
      <point x="151" y="540" type="line"/>
    </contour>
    <contour>
      <point x="708" y="110" type="line"/>
      <point x="277" y="581" type="line"/>
      <point x="277" y="889" type="line"/>
      <point x="708" y="1350" type="line"/>
      <point x="847" y="1350" type="line"/>
      <point x="1278" y="889" type="line"/>
      <point x="1278" y="581" type="line"/>
      <point x="847" y="110" type="line"/>
    </contour>
    <contour>
      <point x="728" y="1652.076" type="line"/>
      <point x="847" y="1652.076" type="line"/>
      <point x="575" y="1883.57" type="line"/>
      <point x="422" y="1883.57" type="line"/>
    </contour>
  </outline>
</glyph>
<glyph name="Ohungarumlaut.alt5" format="2">
  <advance width="1555"/>
  <outline>
    <contour>
      <point x="649" y="0" type="line"/>
      <point x="907" y="0" type="line"/>
      <point x="1404" y="540" type="line"/>
      <point x="1404" y="930" type="line"/>
      <point x="910" y="1460" type="line"/>
      <point x="649" y="1460" type="line"/>
      <point x="151" y="930" type="line"/>
      <point x="151" y="540" type="line"/>
    </contour>
    <contour>
      <point x="708" y="110" type="line"/>
      <point x="277" y="581" type="line"/>
      <point x="277" y="889" type="line"/>
      <point x="708" y="1350" type="line"/>
      <point x="847" y="1350" type="line"/>
      <point x="1278" y="889" type="line"/>
      <point x="1278" y="581" type="line"/>
      <point x="847" y="110" type="line"/>
    </contour>
    <contour>
      <point x="957" y="1666.41" type="line"/>
      <point x="1062" y="1666.41" type="line"/>
      <point x="1288" y="1897.904" type="line"/>
      <point x="1153" y="1897.904" type="line"/>
    </contour>
    <contour>
      <point x="465" y="1666.41" type="line"/>
      <point x="571" y="1666.41" type="line"/>
      <point x="796" y="1897.904" type="line"/>
      <point x="662" y="1897.904" type="line"/>
    </contour>
  </outline>
</glyph>
<glyph name="Omega.alt1" format="2">
  <advance width="1555"/>
  <outline>
    <contour>
      <point x="778" y="1367" type="curve" smooth="yes"/>
      <point x="1060" y="1367"/>
      <point x="1289" y="1205"/>
      <point x="1289" y="837" type="curve" smooth="yes"/>
      <point x="1289" y="538"/>
      <point x="1138" y="392"/>
      <point x="958" y="249" type="curve"/>
      <point x="958" y="0" type="line"/>
      <point x="1390" y="0" type="line"/>
      <point x="1390" y="106" type="line"/>
      <point x="1023" y="106" type="line"/>
      <point x="1023" y="197" type="line"/>
      <point x="1221" y="320"/>
      <point x="1425" y="496"/>
      <point x="1425" y="856" type="curve" smooth="yes"/>
      <point x="1425" y="1268"/>
      <point x="1159" y="1484"/>
      <point x="778" y="1484" type="curve" smooth="yes"/>
      <point x="397" y="1484"/>
      <point x="130" y="1268"/>
      <point x="130" y="856" type="curve" smooth="yes"/>
      <point x="130" y="496"/>
      <point x="334" y="320"/>
      <point x="532" y="197" type="curve"/>
      <point x="532" y="106" type="line"/>
      <point x="165" y="106" type="line"/>
      <point x="165" y="0" type="line"/>
      <point x="597" y="0" type="line"/>
      <point x="597" y="249" type="line"/>
      <point x="418" y="392"/>
      <point x="267" y="538"/>
      <point x="267" y="837" type="curve" smooth="yes"/>
      <point x="267" y="1205"/>
      <point x="495" y="1367"/>
    </contour>
  </outline>
</glyph>
<glyph name="Oslash.alt1" format="2">
  <advance width="1555"/>
  <outline>
    <contour>
      <point x="487" y="259" type="line"/>
      <point x="1151" y="1125" type="line"/>
      <point x="1067" y="1200" type="line"/>
      <point x="403" y="333" type="line"/>
    </contour>
    <contour>
      <point x="225" y="-83" type="line"/>
      <point x="499" y="267" type="line"/>
      <point x="406" y="353" type="line"/>
      <point x="125" y="-6" type="line"/>
    </contour>
    <contour>
      <point x="1149" y="1105" type="line"/>
      <point x="1434" y="1471" type="line"/>
      <point x="1334" y="1548" type="line"/>
      <point x="1055" y="1191" type="line"/>
    </contour>
    <contour>
      <point x="651" y="0" type="line"/>
      <point x="909" y="0" type="line"/>
      <point x="1406" y="540" type="line"/>
      <point x="1406" y="930" type="line"/>
      <point x="912" y="1460" type="line"/>
      <point x="651" y="1460" type="line"/>
      <point x="153" y="930" type="line"/>
      <point x="153" y="540" type="line"/>
    </contour>
    <contour>
      <point x="710" y="110" type="line"/>
      <point x="279" y="581" type="line"/>
      <point x="279" y="889" type="line"/>
      <point x="710" y="1350" type="line"/>
      <point x="849" y="1350" type="line"/>
      <point x="1280" y="889" type="line"/>
      <point x="1280" y="581" type="line"/>
      <point x="849" y="110" type="line"/>
    </contour>
  </outline>
</glyph>
<glyph name="R.alt5" format="2">
  <advance width="1555"/>
  <outline>
    <contour>
      <point x="305" y="637" type="line"/>
      <point x="986" y="637" type="line"/>
      <point x="1361" y="938" type="line"/>
      <point x="1361" y="1172" type="line"/>
      <point x="1003" y="1460" type="line"/>
      <point x="305" y="1460" type="line"/>
      <point x="305" y="1360" type="line"/>
      <point x="944" y="1360" type="line"/>
      <point x="1235" y="1133" type="line"/>
      <point x="1235" y="973" type="line"/>
      <point x="944" y="737" type="line"/>
      <point x="305" y="737" type="line"/>
    </contour>
    <contour>
      <point x="263" y="0" type="line"/>
      <point x="389" y="0" type="line"/>
      <point x="389" y="1460" type="line"/>
      <point x="263" y="1460" type="line"/>
    </contour>
    <contour>
      <point x="1225" y="0" type="line"/>
      <point x="1351" y="0" type="line"/>
      <point x="1351" y="266" type="line"/>
      <point x="970" y="697" type="line"/>
      <point x="819" y="697" type="line"/>
      <point x="1225" y="238" type="line"/>
    </contour>
  </outline>
</glyph>
<glyph name="Racute.alt1" format="2">
  <advance width="1555"/>
  <outline>
    <contour>
      <point x="305" y="637" type="line"/>
      <point x="986" y="637" type="line"/>
      <point x="1361" y="938" type="line"/>
      <point x="1361" y="1172" type="line"/>
      <point x="1003" y="1460" type="line"/>
      <point x="305" y="1460" type="line"/>
      <point x="305" y="1360" type="line"/>
      <point x="944" y="1360" type="line"/>
      <point x="1235" y="1133" type="line"/>
      <point x="1235" y="973" type="line"/>
      <point x="944" y="737" type="line"/>
      <point x="305" y="737" type="line"/>
    </contour>
    <contour>
      <point x="263" y="0" type="line"/>
      <point x="389" y="0" type="line"/>
      <point x="389" y="1460" type="line"/>
      <point x="263" y="1460" type="line"/>
    </contour>
    <contour>
      <point x="1225" y="0" type="line"/>
      <point x="1351" y="0" type="line"/>
      <point x="1351" y="266" type="line"/>
      <point x="970" y="697" type="line"/>
      <point x="819" y="697" type="line"/>
      <point x="1225" y="238" type="line"/>
    </contour>
    <contour>
      <point x="855" y="1652" type="line"/>
      <point x="736" y="1652" type="line"/>
      <point x="1008" y="1884" type="line"/>
      <point x="1161" y="1884" type="line"/>
    </contour>
  </outline>
</glyph>
<glyph name="S.alt5" format="2">
  <advance width="1555"/>
  <outline>
    <contour>
      <point x="269" y="0" type="line"/>
      <point x="1035" y="0" type="line"/>
      <point x="1292" y="289" type="line"/>
      <point x="1292" y="478" type="line"/>
      <point x="369" y="1047" type="line"/>
      <point x="369" y="1129" type="line"/>
      <point x="572" y="1362" type="line"/>
      <point x="1262" y="1362" type="line"/>
      <point x="1242" y="1460" type="line"/>
      <point x="516" y="1460" type="line"/>
      <point x="259" y="1171" type="line"/>
      <point x="259" y="982" type="line"/>
      <point x="1183" y="413" type="line"/>
      <point x="1183" y="331" type="line"/>
      <point x="980" y="98" type="line"/>
      <point x="249" y="98" type="line"/>
    </contour>
  </outline>
</glyph>
<glyph name="Schwa.alt5" format="2">
  <advance width="1555"/>
  <outline>
    <contour>
      <point x="350" y="0" type="line"/>
      <point x="942" y="0" type="line"/>
      <point x="1382" y="540" type="line"/>
      <point x="1382" y="930" type="line"/>
      <point x="908" y="1460" type="line"/>
      <point x="235" y="1460" type="line"/>
      <point x="215" y="1350" type="line"/>
      <point x="842" y="1350" type="line"/>
      <point x="1256" y="900" type="line"/>
      <point x="1256" y="570" type="line"/>
      <point x="876" y="110" type="line"/>
      <point x="412" y="110" type="line"/>
      <point x="275" y="263" type="line"/>
      <point x="275" y="546" type="line"/>
      <point x="412" y="699" type="line"/>
      <point x="1326" y="699" type="line"/>
      <point x="1326" y="803" type="line"/>
      <point x="350" y="803" type="line"/>
      <point x="163" y="595" type="line"/>
      <point x="163" y="208" type="line"/>
    </contour>
  </outline>
</glyph>
<glyph name="T.alt" format="2">
  <advance width="1555"/>
  <outline>
    <contour>
      <point x="704" y="0" type="line"/>
      <point x="830" y="0" type="line"/>
      <point x="830" y="1460" type="line"/>
      <point x="704" y="1460" type="line"/>
    </contour>
    <contour>
      <point x="174" y="1350" type="line"/>
      <point x="1380" y="1350" type="line"/>
      <point x="1365" y="1460" type="line"/>
      <point x="189" y="1460" type="line"/>
    </contour>
  </outline>
</glyph>
<glyph name="Tcaron.alt1" format="2">
  <advance width="1555"/>
  <outline>
    <contour>
      <point x="704" y="0" type="line"/>
      <point x="830" y="0" type="line"/>
      <point x="830" y="1460" type="line"/>
      <point x="704" y="1460" type="line"/>
    </contour>
    <contour>
      <point x="174" y="1350" type="line"/>
      <point x="1380" y="1350" type="line"/>
      <point x="1365" y="1460" type="line"/>
      <point x="189" y="1460" type="line"/>
    </contour>
    <contour>
      <point x="386" y="1883" type="line"/>
      <point x="533" y="1883" type="line"/>
      <point x="808" y="1674" type="line"/>
      <point x="746" y="1674" type="line"/>
      <point x="1022" y="1883" type="line"/>
      <point x="1169" y="1883" type="line"/>
      <point x="855" y="1650" type="line"/>
      <point x="699" y="1650" type="line"/>
    </contour>
  </outline>
</glyph>
<glyph name="Tcommaaccent.alt5" format="2">
  <advance width="1555"/>
  <outline>
    <contour>
      <point x="704" y="0" type="line"/>
      <point x="830" y="0" type="line"/>
      <point x="830" y="1460" type="line"/>
      <point x="704" y="1460" type="line"/>
    </contour>
    <contour>
      <point x="174" y="1350" type="line"/>
      <point x="1380" y="1350" type="line"/>
      <point x="1365" y="1460" type="line"/>
      <point x="189" y="1460" type="line"/>
    </contour>
    <contour>
      <point x="677" y="-527" type="line"/>
      <point x="830" y="-527" type="line"/>
      <point x="830" y="-471" type="line"/>
      <point x="648" y="-707" type="line"/>
      <point x="723" y="-747" type="line"/>
      <point x="892" y="-527" type="line"/>
      <point x="892" y="-312" type="line"/>
      <point x="677" y="-312" type="line"/>
    </contour>
  </outline>
</glyph>
<glyph name="Thorn.alt1" format="2">
  <advance width="1555"/>
  <outline>
    <contour>
      <point x="212" y="0" type="line"/>
      <point x="338" y="0" type="line"/>
      <point x="338" y="1460" type="line"/>
      <point x="212" y="1460" type="line"/>
    </contour>
    <contour>
      <point x="279" y="313" type="line"/>
      <point x="1037" y="313" type="line"/>
      <point x="1387" y="640" type="line"/>
      <point x="1387" y="924" type="line"/>
      <point x="1037" y="1206" type="line"/>
      <point x="279" y="1206" type="line"/>
      <point x="279" y="1106" type="line"/>
      <point x="978" y="1106" type="line"/>
      <point x="1261" y="885" type="line"/>
      <point x="1261" y="675" type="line"/>
      <point x="978" y="413" type="line"/>
      <point x="279" y="413" type="line"/>
    </contour>
  </outline>
</glyph>
<glyph name="U.alt5" format="2">
  <advance width="1555"/>
  <outline>
    <contour>
      <point x="436" y="0" type="line"/>
      <point x="1120" y="0" type="line"/>
      <point x="1322" y="244" type="line"/>
      <point x="1322" y="1460" type="line"/>
      <point x="1196" y="1460" type="line"/>
      <point x="1196" y="295" type="line"/>
      <point x="1047" y="110" type="line"/>
      <point x="509" y="110" type="line"/>
      <point x="360" y="295" type="line"/>
      <point x="360" y="1460" type="line"/>
      <point x="234" y="1460" type="line"/>
      <point x="234" y="244" type="line"/>
    </contour>
  </outline>
</glyph>
<glyph name="Uacute.alt1" format="2">
  <advance width="1555"/>
  <outline>
    <contour>
      <point x="436" y="0" type="line"/>
      <point x="1120" y="0" type="line"/>
      <point x="1322" y="244" type="line"/>
      <point x="1322" y="1460" type="line"/>
      <point x="1196" y="1460" type="line"/>
      <point x="1196" y="295" type="line"/>
      <point x="1047" y="110" type="line"/>
      <point x="509" y="110" type="line"/>
      <point x="360" y="295" type="line"/>
      <point x="360" y="1460" type="line"/>
      <point x="234" y="1460" type="line"/>
      <point x="234" y="244" type="line"/>
    </contour>
    <contour>
      <point x="827" y="1652.076" type="line"/>
      <point x="708" y="1652.076" type="line"/>
      <point x="980" y="1883.57" type="line"/>
      <point x="1133" y="1883.57" type="line"/>
    </contour>
  </outline>
</glyph>
